<mxfile host="app.diagrams.net" modified="2022-08-31T03:54:04.891Z" agent="5.0 (Windows NT 10.0; Win64; x64) AppleWebKit/537.36 (KHTML, like Gecko) Chrome/104.0.0.0 Safari/537.36" etag="gWx1oIHtoUd7s0cjz9Sm" version="20.2.7" type="github" pages="5">
  <diagram id="4lsR91rq2kztr-XwpsCy" name="Current design">
    <mxGraphModel dx="1331" dy="717" grid="1" gridSize="10" guides="1" tooltips="1" connect="1" arrows="1" fold="1" page="1" pageScale="1" pageWidth="827" pageHeight="1169" math="0" shadow="0">
      <root>
        <mxCell id="0" />
        <mxCell id="1" parent="0" />
        <mxCell id="oss76SrQx5VusBjYnzVE-1" value="User" style="rounded=1;whiteSpace=wrap;html=1;" parent="1" vertex="1">
          <mxGeometry x="340" y="200" width="120" height="60" as="geometry" />
        </mxCell>
        <mxCell id="oss76SrQx5VusBjYnzVE-3" value="MatrixUser &lt;br&gt;(Bot Config)" style="rounded=1;whiteSpace=wrap;html=1;" parent="1" vertex="1">
          <mxGeometry x="340" y="370" width="120" height="60" as="geometry" />
        </mxCell>
        <mxCell id="oss76SrQx5VusBjYnzVE-6" value="" style="endArrow=classic;startArrow=none;html=1;rounded=0;exitX=0.5;exitY=1;exitDx=0;exitDy=0;entryX=0.5;entryY=0;entryDx=0;entryDy=0;startFill=0;" parent="1" source="oss76SrQx5VusBjYnzVE-1" target="oss76SrQx5VusBjYnzVE-3" edge="1">
          <mxGeometry width="50" height="50" relative="1" as="geometry">
            <mxPoint x="380" y="440" as="sourcePoint" />
            <mxPoint x="430" y="390" as="targetPoint" />
          </mxGeometry>
        </mxCell>
        <mxCell id="oss76SrQx5VusBjYnzVE-7" value="Slack" style="rounded=1;whiteSpace=wrap;html=1;" parent="1" vertex="1">
          <mxGeometry x="190" y="510" width="120" height="60" as="geometry" />
        </mxCell>
        <mxCell id="oss76SrQx5VusBjYnzVE-8" value="WhatsApp" style="rounded=1;whiteSpace=wrap;html=1;" parent="1" vertex="1">
          <mxGeometry x="340" y="510" width="120" height="60" as="geometry" />
        </mxCell>
        <mxCell id="oss76SrQx5VusBjYnzVE-9" value="Messenger" style="rounded=1;whiteSpace=wrap;html=1;" parent="1" vertex="1">
          <mxGeometry x="480" y="510" width="120" height="60" as="geometry" />
        </mxCell>
        <mxCell id="oss76SrQx5VusBjYnzVE-11" value="" style="endArrow=classic;html=1;rounded=0;exitX=0.5;exitY=1;exitDx=0;exitDy=0;entryX=0.5;entryY=0;entryDx=0;entryDy=0;" parent="1" source="oss76SrQx5VusBjYnzVE-3" target="oss76SrQx5VusBjYnzVE-7" edge="1">
          <mxGeometry width="50" height="50" relative="1" as="geometry">
            <mxPoint x="380" y="540" as="sourcePoint" />
            <mxPoint x="430" y="490" as="targetPoint" />
          </mxGeometry>
        </mxCell>
        <mxCell id="oss76SrQx5VusBjYnzVE-12" value="" style="endArrow=classic;html=1;rounded=0;exitX=0.5;exitY=1;exitDx=0;exitDy=0;entryX=0.5;entryY=0;entryDx=0;entryDy=0;" parent="1" source="oss76SrQx5VusBjYnzVE-3" target="oss76SrQx5VusBjYnzVE-8" edge="1">
          <mxGeometry width="50" height="50" relative="1" as="geometry">
            <mxPoint x="410" y="440" as="sourcePoint" />
            <mxPoint x="269" y="520" as="targetPoint" />
          </mxGeometry>
        </mxCell>
        <mxCell id="oss76SrQx5VusBjYnzVE-13" value="" style="endArrow=classic;html=1;rounded=0;entryX=0.5;entryY=0;entryDx=0;entryDy=0;" parent="1" target="oss76SrQx5VusBjYnzVE-9" edge="1">
          <mxGeometry width="50" height="50" relative="1" as="geometry">
            <mxPoint x="400" y="430" as="sourcePoint" />
            <mxPoint x="419" y="520" as="targetPoint" />
          </mxGeometry>
        </mxCell>
      </root>
    </mxGraphModel>
  </diagram>
  <diagram id="lzWJjJodu1Qtfk8vU8q8" name="Issue">
    <mxGraphModel dx="1331" dy="717" grid="1" gridSize="10" guides="1" tooltips="1" connect="1" arrows="1" fold="1" page="1" pageScale="1" pageWidth="827" pageHeight="1169" math="0" shadow="0">
      <root>
        <mxCell id="0" />
        <mxCell id="1" parent="0" />
        <mxCell id="rMIFiAFwOpdv_8ES60nO-1" value="User" style="rounded=1;whiteSpace=wrap;html=1;" parent="1" vertex="1">
          <mxGeometry x="345" y="80" width="120" height="60" as="geometry" />
        </mxCell>
        <mxCell id="rMIFiAFwOpdv_8ES60nO-2" value="MatrixUser &lt;br&gt;(Bot Config)" style="rounded=1;whiteSpace=wrap;html=1;" parent="1" vertex="1">
          <mxGeometry x="345" y="250" width="120" height="60" as="geometry" />
        </mxCell>
        <mxCell id="rMIFiAFwOpdv_8ES60nO-3" value="" style="endArrow=classic;startArrow=none;html=1;rounded=0;exitX=0.5;exitY=1;exitDx=0;exitDy=0;entryX=0.5;entryY=0;entryDx=0;entryDy=0;startFill=0;" parent="1" source="rMIFiAFwOpdv_8ES60nO-1" target="rMIFiAFwOpdv_8ES60nO-2" edge="1">
          <mxGeometry width="50" height="50" relative="1" as="geometry">
            <mxPoint x="385" y="320" as="sourcePoint" />
            <mxPoint x="435" y="270" as="targetPoint" />
          </mxGeometry>
        </mxCell>
        <mxCell id="rMIFiAFwOpdv_8ES60nO-4" value="Slack" style="rounded=1;whiteSpace=wrap;html=1;" parent="1" vertex="1">
          <mxGeometry x="270" y="390" width="120" height="60" as="geometry" />
        </mxCell>
        <mxCell id="rMIFiAFwOpdv_8ES60nO-5" value="WhatsApp" style="rounded=1;whiteSpace=wrap;html=1;" parent="1" vertex="1">
          <mxGeometry x="420" y="390" width="120" height="60" as="geometry" />
        </mxCell>
        <mxCell id="rMIFiAFwOpdv_8ES60nO-6" value="Messenger" style="rounded=1;whiteSpace=wrap;html=1;" parent="1" vertex="1">
          <mxGeometry x="560" y="390" width="120" height="60" as="geometry" />
        </mxCell>
        <mxCell id="rMIFiAFwOpdv_8ES60nO-7" value="" style="endArrow=classic;html=1;rounded=0;exitX=0.5;exitY=1;exitDx=0;exitDy=0;entryX=0.5;entryY=0;entryDx=0;entryDy=0;" parent="1" source="rMIFiAFwOpdv_8ES60nO-2" target="rMIFiAFwOpdv_8ES60nO-4" edge="1">
          <mxGeometry width="50" height="50" relative="1" as="geometry">
            <mxPoint x="385" y="420" as="sourcePoint" />
            <mxPoint x="435" y="370" as="targetPoint" />
          </mxGeometry>
        </mxCell>
        <mxCell id="rMIFiAFwOpdv_8ES60nO-8" value="" style="endArrow=classic;html=1;rounded=0;exitX=0.5;exitY=1;exitDx=0;exitDy=0;entryX=0.5;entryY=0;entryDx=0;entryDy=0;" parent="1" source="rMIFiAFwOpdv_8ES60nO-2" target="rMIFiAFwOpdv_8ES60nO-5" edge="1">
          <mxGeometry width="50" height="50" relative="1" as="geometry">
            <mxPoint x="415" y="320" as="sourcePoint" />
            <mxPoint x="274" y="400" as="targetPoint" />
          </mxGeometry>
        </mxCell>
        <mxCell id="rMIFiAFwOpdv_8ES60nO-9" value="" style="endArrow=classic;html=1;rounded=0;entryX=0.5;entryY=0;entryDx=0;entryDy=0;" parent="1" target="rMIFiAFwOpdv_8ES60nO-6" edge="1">
          <mxGeometry width="50" height="50" relative="1" as="geometry">
            <mxPoint x="405" y="310" as="sourcePoint" />
            <mxPoint x="424" y="400" as="targetPoint" />
          </mxGeometry>
        </mxCell>
        <mxCell id="rMIFiAFwOpdv_8ES60nO-10" value="Slack" style="rounded=1;whiteSpace=wrap;html=1;" parent="1" vertex="1">
          <mxGeometry x="130" y="390" width="120" height="60" as="geometry" />
        </mxCell>
        <mxCell id="rMIFiAFwOpdv_8ES60nO-11" value="" style="endArrow=none;dashed=1;html=1;dashPattern=1 3;strokeWidth=2;rounded=0;exitX=0.5;exitY=0;exitDx=0;exitDy=0;" parent="1" source="rMIFiAFwOpdv_8ES60nO-10" edge="1">
          <mxGeometry width="50" height="50" relative="1" as="geometry">
            <mxPoint x="385" y="340" as="sourcePoint" />
            <mxPoint x="405" y="310" as="targetPoint" />
          </mxGeometry>
        </mxCell>
        <mxCell id="rMIFiAFwOpdv_8ES60nO-13" value="&lt;font&gt;This doesn&#39;t work&lt;/font&gt;" style="text;html=1;strokeColor=none;fillColor=none;align=center;verticalAlign=middle;whiteSpace=wrap;rounded=0;fontColor=#FF4912;" parent="1" vertex="1">
          <mxGeometry x="195" y="330" width="110" height="30" as="geometry" />
        </mxCell>
      </root>
    </mxGraphModel>
  </diagram>
  <diagram id="R-C4iGHynKSuiigCCYZL" name="Solution">
    <mxGraphModel dx="1331" dy="717" grid="1" gridSize="10" guides="1" tooltips="1" connect="1" arrows="1" fold="1" page="1" pageScale="1" pageWidth="827" pageHeight="1169" math="0" shadow="0">
      <root>
        <mxCell id="0" />
        <mxCell id="1" parent="0" />
        <mxCell id="ToxCltjqSNu669XQNDuu-1" value="" style="rounded=1;whiteSpace=wrap;html=1;dashed=1;fontColor=#FF4912;strokeColor=#FF0000;fillColor=none;" vertex="1" parent="1">
          <mxGeometry x="100" y="210" width="170" height="330" as="geometry" />
        </mxCell>
        <mxCell id="8atR28CIS7WXCaAFp5G--1" value="User" style="rounded=1;whiteSpace=wrap;html=1;" parent="1" vertex="1">
          <mxGeometry x="405" y="130" width="120" height="60" as="geometry" />
        </mxCell>
        <mxCell id="8atR28CIS7WXCaAFp5G--2" value="MatrixUser &lt;br&gt;(Bot Config)" style="rounded=1;whiteSpace=wrap;html=1;" parent="1" vertex="1">
          <mxGeometry x="275" y="280" width="120" height="60" as="geometry" />
        </mxCell>
        <mxCell id="8atR28CIS7WXCaAFp5G--3" value="" style="endArrow=classic;startArrow=none;html=1;rounded=0;exitX=0.5;exitY=1;exitDx=0;exitDy=0;entryX=0.5;entryY=0;entryDx=0;entryDy=0;startFill=0;" parent="1" source="8atR28CIS7WXCaAFp5G--1" target="8atR28CIS7WXCaAFp5G--2" edge="1">
          <mxGeometry width="50" height="50" relative="1" as="geometry">
            <mxPoint x="445" y="370" as="sourcePoint" />
            <mxPoint x="495" y="320" as="targetPoint" />
          </mxGeometry>
        </mxCell>
        <mxCell id="8atR28CIS7WXCaAFp5G--4" value="Slack" style="rounded=1;whiteSpace=wrap;html=1;" parent="1" vertex="1">
          <mxGeometry x="275" y="440" width="120" height="60" as="geometry" />
        </mxCell>
        <mxCell id="8atR28CIS7WXCaAFp5G--5" value="WhatsApp" style="rounded=1;whiteSpace=wrap;html=1;" parent="1" vertex="1">
          <mxGeometry x="415" y="440" width="120" height="60" as="geometry" />
        </mxCell>
        <mxCell id="8atR28CIS7WXCaAFp5G--6" value="Messenger" style="rounded=1;whiteSpace=wrap;html=1;" parent="1" vertex="1">
          <mxGeometry x="565" y="440" width="120" height="60" as="geometry" />
        </mxCell>
        <mxCell id="8atR28CIS7WXCaAFp5G--7" value="" style="endArrow=classic;html=1;rounded=0;exitX=0.5;exitY=1;exitDx=0;exitDy=0;entryX=0.5;entryY=0;entryDx=0;entryDy=0;" parent="1" source="8atR28CIS7WXCaAFp5G--2" target="8atR28CIS7WXCaAFp5G--4" edge="1">
          <mxGeometry width="50" height="50" relative="1" as="geometry">
            <mxPoint x="445" y="470" as="sourcePoint" />
            <mxPoint x="495" y="420" as="targetPoint" />
          </mxGeometry>
        </mxCell>
        <mxCell id="8atR28CIS7WXCaAFp5G--8" value="" style="endArrow=classic;html=1;rounded=0;exitX=0.5;exitY=1;exitDx=0;exitDy=0;entryX=0.5;entryY=0;entryDx=0;entryDy=0;" parent="1" source="oqtGwE1ijhXzvPZld0UB-1" target="8atR28CIS7WXCaAFp5G--5" edge="1">
          <mxGeometry width="50" height="50" relative="1" as="geometry">
            <mxPoint x="475" y="370" as="sourcePoint" />
            <mxPoint x="334" y="450" as="targetPoint" />
          </mxGeometry>
        </mxCell>
        <mxCell id="8atR28CIS7WXCaAFp5G--9" value="" style="endArrow=classic;html=1;rounded=0;entryX=0.5;entryY=0;entryDx=0;entryDy=0;exitX=0.5;exitY=1;exitDx=0;exitDy=0;" parent="1" target="8atR28CIS7WXCaAFp5G--6" edge="1" source="oqtGwE1ijhXzvPZld0UB-2">
          <mxGeometry width="50" height="50" relative="1" as="geometry">
            <mxPoint x="465" y="360" as="sourcePoint" />
            <mxPoint x="484" y="450" as="targetPoint" />
          </mxGeometry>
        </mxCell>
        <mxCell id="oqtGwE1ijhXzvPZld0UB-1" value="MatrixUser &lt;br&gt;(Bot Config)" style="rounded=1;whiteSpace=wrap;html=1;" vertex="1" parent="1">
          <mxGeometry x="415" y="280" width="120" height="60" as="geometry" />
        </mxCell>
        <mxCell id="oqtGwE1ijhXzvPZld0UB-2" value="MatrixUser &lt;br&gt;(Bot Config)" style="rounded=1;whiteSpace=wrap;html=1;" vertex="1" parent="1">
          <mxGeometry x="565" y="280" width="120" height="60" as="geometry" />
        </mxCell>
        <mxCell id="oqtGwE1ijhXzvPZld0UB-4" value="" style="endArrow=classic;startArrow=none;html=1;rounded=0;exitX=0.5;exitY=1;exitDx=0;exitDy=0;entryX=0.5;entryY=0;entryDx=0;entryDy=0;verticalAlign=bottom;startFill=0;" edge="1" parent="1" source="8atR28CIS7WXCaAFp5G--1" target="oqtGwE1ijhXzvPZld0UB-1">
          <mxGeometry width="50" height="50" relative="1" as="geometry">
            <mxPoint x="475" y="200" as="sourcePoint" />
            <mxPoint x="345" y="290" as="targetPoint" />
          </mxGeometry>
        </mxCell>
        <mxCell id="oqtGwE1ijhXzvPZld0UB-5" value="" style="endArrow=classic;startArrow=none;html=1;rounded=0;entryX=0.5;entryY=0;entryDx=0;entryDy=0;verticalAlign=bottom;startFill=0;" edge="1" parent="1" target="oqtGwE1ijhXzvPZld0UB-2">
          <mxGeometry width="50" height="50" relative="1" as="geometry">
            <mxPoint x="465" y="190" as="sourcePoint" />
            <mxPoint x="485" y="290" as="targetPoint" />
          </mxGeometry>
        </mxCell>
        <mxCell id="djxgPtBZGLRA3goxjeID-1" value="MatrixUser &lt;br&gt;(Bot Config)" style="rounded=1;whiteSpace=wrap;html=1;" vertex="1" parent="1">
          <mxGeometry x="125" y="280" width="120" height="60" as="geometry" />
        </mxCell>
        <mxCell id="djxgPtBZGLRA3goxjeID-2" value="Slack" style="rounded=1;whiteSpace=wrap;html=1;" vertex="1" parent="1">
          <mxGeometry x="125" y="440" width="120" height="60" as="geometry" />
        </mxCell>
        <mxCell id="djxgPtBZGLRA3goxjeID-3" value="" style="endArrow=classic;html=1;rounded=0;entryX=0.5;entryY=0;entryDx=0;entryDy=0;" edge="1" parent="1" target="djxgPtBZGLRA3goxjeID-2">
          <mxGeometry width="50" height="50" relative="1" as="geometry">
            <mxPoint x="185" y="340" as="sourcePoint" />
            <mxPoint x="165" y="440" as="targetPoint" />
          </mxGeometry>
        </mxCell>
        <mxCell id="djxgPtBZGLRA3goxjeID-4" value="" style="endArrow=classic;startArrow=none;html=1;rounded=0;exitX=0.5;exitY=1;exitDx=0;exitDy=0;entryX=0.5;entryY=0;entryDx=0;entryDy=0;startFill=0;" edge="1" parent="1" source="8atR28CIS7WXCaAFp5G--1" target="djxgPtBZGLRA3goxjeID-1">
          <mxGeometry width="50" height="50" relative="1" as="geometry">
            <mxPoint x="475" y="200" as="sourcePoint" />
            <mxPoint x="345" y="290" as="targetPoint" />
          </mxGeometry>
        </mxCell>
      </root>
    </mxGraphModel>
  </diagram>
  <diagram id="KbAiTS31jM6ISG6tjwIQ" name="Issue one">
    <mxGraphModel dx="1331" dy="717" grid="1" gridSize="10" guides="1" tooltips="1" connect="1" arrows="1" fold="1" page="1" pageScale="1" pageWidth="827" pageHeight="1169" math="0" shadow="0">
      <root>
        <mxCell id="0" />
        <mxCell id="1" parent="0" />
        <mxCell id="L_qgMzaZwldo8ZvxnXEu-1" value="User" style="rounded=1;whiteSpace=wrap;html=1;" vertex="1" parent="1">
          <mxGeometry x="370" y="100" width="120" height="60" as="geometry" />
        </mxCell>
        <mxCell id="L_qgMzaZwldo8ZvxnXEu-2" value="MatrixUser &lt;br&gt;(Bot Config)" style="rounded=1;whiteSpace=wrap;html=1;" vertex="1" parent="1">
          <mxGeometry x="240" y="250" width="120" height="60" as="geometry" />
        </mxCell>
        <mxCell id="L_qgMzaZwldo8ZvxnXEu-3" value="" style="endArrow=classic;startArrow=none;html=1;rounded=0;exitX=0.5;exitY=1;exitDx=0;exitDy=0;entryX=0.5;entryY=0;entryDx=0;entryDy=0;startFill=0;" edge="1" parent="1" source="L_qgMzaZwldo8ZvxnXEu-1" target="L_qgMzaZwldo8ZvxnXEu-2">
          <mxGeometry width="50" height="50" relative="1" as="geometry">
            <mxPoint x="410" y="340" as="sourcePoint" />
            <mxPoint x="460" y="290" as="targetPoint" />
          </mxGeometry>
        </mxCell>
        <mxCell id="L_qgMzaZwldo8ZvxnXEu-4" value="Slack" style="rounded=1;whiteSpace=wrap;html=1;" vertex="1" parent="1">
          <mxGeometry x="220" y="410" width="120" height="60" as="geometry" />
        </mxCell>
        <mxCell id="L_qgMzaZwldo8ZvxnXEu-5" value="WhatsApp" style="rounded=1;whiteSpace=wrap;html=1;" vertex="1" parent="1">
          <mxGeometry x="390" y="410" width="120" height="60" as="geometry" />
        </mxCell>
        <mxCell id="L_qgMzaZwldo8ZvxnXEu-6" value="Messenger" style="rounded=1;whiteSpace=wrap;html=1;" vertex="1" parent="1">
          <mxGeometry x="550" y="420" width="120" height="60" as="geometry" />
        </mxCell>
        <mxCell id="L_qgMzaZwldo8ZvxnXEu-7" value="" style="endArrow=classic;html=1;rounded=0;exitX=0.5;exitY=1;exitDx=0;exitDy=0;entryX=0.5;entryY=0;entryDx=0;entryDy=0;" edge="1" parent="1" source="L_qgMzaZwldo8ZvxnXEu-2" target="L_qgMzaZwldo8ZvxnXEu-4">
          <mxGeometry width="50" height="50" relative="1" as="geometry">
            <mxPoint x="410" y="440" as="sourcePoint" />
            <mxPoint x="460" y="390" as="targetPoint" />
          </mxGeometry>
        </mxCell>
        <mxCell id="L_qgMzaZwldo8ZvxnXEu-8" value="" style="endArrow=classic;html=1;rounded=0;exitX=0.5;exitY=1;exitDx=0;exitDy=0;entryX=0.5;entryY=0;entryDx=0;entryDy=0;" edge="1" parent="1" source="L_qgMzaZwldo8ZvxnXEu-10" target="L_qgMzaZwldo8ZvxnXEu-5">
          <mxGeometry width="50" height="50" relative="1" as="geometry">
            <mxPoint x="440" y="340" as="sourcePoint" />
            <mxPoint x="299" y="420" as="targetPoint" />
          </mxGeometry>
        </mxCell>
        <mxCell id="L_qgMzaZwldo8ZvxnXEu-9" value="" style="endArrow=classic;html=1;rounded=0;entryX=0.5;entryY=0;entryDx=0;entryDy=0;exitX=0.5;exitY=1;exitDx=0;exitDy=0;" edge="1" parent="1" source="L_qgMzaZwldo8ZvxnXEu-11" target="L_qgMzaZwldo8ZvxnXEu-6">
          <mxGeometry width="50" height="50" relative="1" as="geometry">
            <mxPoint x="430" y="330" as="sourcePoint" />
            <mxPoint x="449" y="420" as="targetPoint" />
          </mxGeometry>
        </mxCell>
        <mxCell id="L_qgMzaZwldo8ZvxnXEu-10" value="MatrixUser &lt;br&gt;(Bot Config)" style="rounded=1;whiteSpace=wrap;html=1;" vertex="1" parent="1">
          <mxGeometry x="380" y="250" width="120" height="60" as="geometry" />
        </mxCell>
        <mxCell id="L_qgMzaZwldo8ZvxnXEu-11" value="MatrixUser &lt;br&gt;(Bot Config)" style="rounded=1;whiteSpace=wrap;html=1;" vertex="1" parent="1">
          <mxGeometry x="530" y="250" width="120" height="60" as="geometry" />
        </mxCell>
        <mxCell id="L_qgMzaZwldo8ZvxnXEu-12" value="" style="endArrow=classic;startArrow=none;html=1;rounded=0;exitX=0.5;exitY=1;exitDx=0;exitDy=0;entryX=0.5;entryY=0;entryDx=0;entryDy=0;verticalAlign=bottom;startFill=0;" edge="1" parent="1" source="L_qgMzaZwldo8ZvxnXEu-1" target="L_qgMzaZwldo8ZvxnXEu-10">
          <mxGeometry width="50" height="50" relative="1" as="geometry">
            <mxPoint x="440" y="170" as="sourcePoint" />
            <mxPoint x="310" y="260" as="targetPoint" />
          </mxGeometry>
        </mxCell>
        <mxCell id="L_qgMzaZwldo8ZvxnXEu-13" value="" style="endArrow=classic;startArrow=none;html=1;rounded=0;entryX=0.5;entryY=0;entryDx=0;entryDy=0;verticalAlign=bottom;startFill=0;" edge="1" parent="1" target="L_qgMzaZwldo8ZvxnXEu-11">
          <mxGeometry width="50" height="50" relative="1" as="geometry">
            <mxPoint x="430" y="160" as="sourcePoint" />
            <mxPoint x="450" y="260" as="targetPoint" />
          </mxGeometry>
        </mxCell>
        <mxCell id="L_qgMzaZwldo8ZvxnXEu-14" value="MatrixUser &lt;br&gt;(Bot Config)" style="rounded=1;whiteSpace=wrap;html=1;" vertex="1" parent="1">
          <mxGeometry x="90" y="250" width="120" height="60" as="geometry" />
        </mxCell>
        <mxCell id="L_qgMzaZwldo8ZvxnXEu-15" value="Slack" style="rounded=1;whiteSpace=wrap;html=1;" vertex="1" parent="1">
          <mxGeometry x="70" y="410" width="120" height="60" as="geometry" />
        </mxCell>
        <mxCell id="L_qgMzaZwldo8ZvxnXEu-16" value="" style="endArrow=classic;html=1;rounded=0;" edge="1" parent="1">
          <mxGeometry width="50" height="50" relative="1" as="geometry">
            <mxPoint x="150" y="310" as="sourcePoint" />
            <mxPoint x="130" y="410" as="targetPoint" />
          </mxGeometry>
        </mxCell>
        <mxCell id="L_qgMzaZwldo8ZvxnXEu-17" value="" style="endArrow=classic;startArrow=none;html=1;rounded=0;exitX=0.5;exitY=1;exitDx=0;exitDy=0;entryX=0.5;entryY=0;entryDx=0;entryDy=0;startFill=0;" edge="1" parent="1" source="L_qgMzaZwldo8ZvxnXEu-1" target="L_qgMzaZwldo8ZvxnXEu-14">
          <mxGeometry width="50" height="50" relative="1" as="geometry">
            <mxPoint x="440" y="170" as="sourcePoint" />
            <mxPoint x="310" y="260" as="targetPoint" />
          </mxGeometry>
        </mxCell>
        <mxCell id="L_qgMzaZwldo8ZvxnXEu-18" value="UserConfig" style="rounded=1;whiteSpace=wrap;html=1;fontColor=#FF4912;" vertex="1" parent="1">
          <mxGeometry x="580" y="100" width="120" height="60" as="geometry" />
        </mxCell>
        <mxCell id="L_qgMzaZwldo8ZvxnXEu-20" value="" style="endArrow=classic;html=1;rounded=0;fontColor=#FF4912;exitX=1;exitY=0.5;exitDx=0;exitDy=0;entryX=0;entryY=0.5;entryDx=0;entryDy=0;" edge="1" parent="1" source="L_qgMzaZwldo8ZvxnXEu-1" target="L_qgMzaZwldo8ZvxnXEu-18">
          <mxGeometry width="50" height="50" relative="1" as="geometry">
            <mxPoint x="490" y="70" as="sourcePoint" />
            <mxPoint x="540" y="20" as="targetPoint" />
          </mxGeometry>
        </mxCell>
      </root>
    </mxGraphModel>
  </diagram>
  <diagram id="i5Bdmv_3p-eNdExyYrzj" name="Issue two">
    <mxGraphModel dx="1109" dy="598" grid="1" gridSize="10" guides="1" tooltips="1" connect="1" arrows="1" fold="1" page="1" pageScale="1" pageWidth="827" pageHeight="1169" math="0" shadow="0">
      <root>
        <mxCell id="0" />
        <mxCell id="1" parent="0" />
        <mxCell id="3quo9qIRp5hkXYWa7-cD-1" value="User" style="rounded=1;whiteSpace=wrap;html=1;" vertex="1" parent="1">
          <mxGeometry x="380" y="120" width="120" height="60" as="geometry" />
        </mxCell>
        <mxCell id="3quo9qIRp5hkXYWa7-cD-2" value="MatrixUser &lt;br&gt;(Bot Config)" style="rounded=1;whiteSpace=wrap;html=1;" vertex="1" parent="1">
          <mxGeometry x="250" y="270" width="120" height="60" as="geometry" />
        </mxCell>
        <mxCell id="3quo9qIRp5hkXYWa7-cD-3" value="" style="endArrow=classic;startArrow=none;html=1;rounded=0;exitX=0.5;exitY=1;exitDx=0;exitDy=0;entryX=0.5;entryY=0;entryDx=0;entryDy=0;startFill=0;" edge="1" parent="1" source="3quo9qIRp5hkXYWa7-cD-1" target="3quo9qIRp5hkXYWa7-cD-2">
          <mxGeometry width="50" height="50" relative="1" as="geometry">
            <mxPoint x="420" y="360" as="sourcePoint" />
            <mxPoint x="470" y="310" as="targetPoint" />
          </mxGeometry>
        </mxCell>
        <mxCell id="3quo9qIRp5hkXYWa7-cD-4" value="Slack" style="rounded=1;whiteSpace=wrap;html=1;" vertex="1" parent="1">
          <mxGeometry x="230" y="430" width="120" height="60" as="geometry" />
        </mxCell>
        <mxCell id="3quo9qIRp5hkXYWa7-cD-5" value="WhatsApp" style="rounded=1;whiteSpace=wrap;html=1;" vertex="1" parent="1">
          <mxGeometry x="400" y="430" width="120" height="60" as="geometry" />
        </mxCell>
        <mxCell id="3quo9qIRp5hkXYWa7-cD-6" value="Messenger" style="rounded=1;whiteSpace=wrap;html=1;" vertex="1" parent="1">
          <mxGeometry x="560" y="440" width="120" height="60" as="geometry" />
        </mxCell>
        <mxCell id="3quo9qIRp5hkXYWa7-cD-7" value="" style="endArrow=classic;html=1;rounded=0;exitX=0.5;exitY=1;exitDx=0;exitDy=0;entryX=0.5;entryY=0;entryDx=0;entryDy=0;" edge="1" parent="1" source="3quo9qIRp5hkXYWa7-cD-2" target="3quo9qIRp5hkXYWa7-cD-4">
          <mxGeometry width="50" height="50" relative="1" as="geometry">
            <mxPoint x="420" y="460" as="sourcePoint" />
            <mxPoint x="470" y="410" as="targetPoint" />
          </mxGeometry>
        </mxCell>
        <mxCell id="3quo9qIRp5hkXYWa7-cD-8" value="" style="endArrow=classic;html=1;rounded=0;exitX=0.5;exitY=1;exitDx=0;exitDy=0;entryX=0.5;entryY=0;entryDx=0;entryDy=0;" edge="1" parent="1" source="3quo9qIRp5hkXYWa7-cD-10" target="3quo9qIRp5hkXYWa7-cD-5">
          <mxGeometry width="50" height="50" relative="1" as="geometry">
            <mxPoint x="450" y="360" as="sourcePoint" />
            <mxPoint x="309" y="440" as="targetPoint" />
          </mxGeometry>
        </mxCell>
        <mxCell id="3quo9qIRp5hkXYWa7-cD-9" value="" style="endArrow=classic;html=1;rounded=0;entryX=0.5;entryY=0;entryDx=0;entryDy=0;exitX=0.5;exitY=1;exitDx=0;exitDy=0;" edge="1" parent="1" source="3quo9qIRp5hkXYWa7-cD-11" target="3quo9qIRp5hkXYWa7-cD-6">
          <mxGeometry width="50" height="50" relative="1" as="geometry">
            <mxPoint x="440" y="350" as="sourcePoint" />
            <mxPoint x="459" y="440" as="targetPoint" />
          </mxGeometry>
        </mxCell>
        <mxCell id="3quo9qIRp5hkXYWa7-cD-10" value="MatrixUser &lt;br&gt;(Bot Config)" style="rounded=1;whiteSpace=wrap;html=1;" vertex="1" parent="1">
          <mxGeometry x="390" y="270" width="120" height="60" as="geometry" />
        </mxCell>
        <mxCell id="3quo9qIRp5hkXYWa7-cD-11" value="MatrixUser &lt;br&gt;(Bot Config)" style="rounded=1;whiteSpace=wrap;html=1;" vertex="1" parent="1">
          <mxGeometry x="540" y="270" width="120" height="60" as="geometry" />
        </mxCell>
        <mxCell id="3quo9qIRp5hkXYWa7-cD-12" value="" style="endArrow=classic;startArrow=none;html=1;rounded=0;exitX=0.5;exitY=1;exitDx=0;exitDy=0;entryX=0.5;entryY=0;entryDx=0;entryDy=0;verticalAlign=bottom;startFill=0;" edge="1" parent="1" source="3quo9qIRp5hkXYWa7-cD-1" target="3quo9qIRp5hkXYWa7-cD-10">
          <mxGeometry width="50" height="50" relative="1" as="geometry">
            <mxPoint x="450" y="190" as="sourcePoint" />
            <mxPoint x="320" y="280" as="targetPoint" />
          </mxGeometry>
        </mxCell>
        <mxCell id="3quo9qIRp5hkXYWa7-cD-13" value="" style="endArrow=classic;startArrow=none;html=1;rounded=0;entryX=0.5;entryY=0;entryDx=0;entryDy=0;verticalAlign=bottom;startFill=0;" edge="1" parent="1" target="3quo9qIRp5hkXYWa7-cD-11">
          <mxGeometry width="50" height="50" relative="1" as="geometry">
            <mxPoint x="440" y="180" as="sourcePoint" />
            <mxPoint x="460" y="280" as="targetPoint" />
          </mxGeometry>
        </mxCell>
        <mxCell id="3quo9qIRp5hkXYWa7-cD-14" value="MatrixUser &lt;br&gt;(Bot Config)" style="rounded=1;whiteSpace=wrap;html=1;dashed=1;strokeColor=#FF0000;" vertex="1" parent="1">
          <mxGeometry x="100" y="270" width="120" height="60" as="geometry" />
        </mxCell>
        <mxCell id="3quo9qIRp5hkXYWa7-cD-15" value="Slack" style="rounded=1;whiteSpace=wrap;html=1;" vertex="1" parent="1">
          <mxGeometry x="80" y="430" width="120" height="60" as="geometry" />
        </mxCell>
        <mxCell id="3quo9qIRp5hkXYWa7-cD-16" value="" style="endArrow=classic;html=1;rounded=0;" edge="1" parent="1">
          <mxGeometry width="50" height="50" relative="1" as="geometry">
            <mxPoint x="160" y="330" as="sourcePoint" />
            <mxPoint x="140" y="430" as="targetPoint" />
          </mxGeometry>
        </mxCell>
        <mxCell id="3quo9qIRp5hkXYWa7-cD-17" value="" style="endArrow=classic;startArrow=none;html=1;rounded=0;exitX=0.5;exitY=1;exitDx=0;exitDy=0;entryX=0.5;entryY=0;entryDx=0;entryDy=0;startFill=0;" edge="1" parent="1" source="3quo9qIRp5hkXYWa7-cD-1" target="3quo9qIRp5hkXYWa7-cD-14">
          <mxGeometry width="50" height="50" relative="1" as="geometry">
            <mxPoint x="450" y="190" as="sourcePoint" />
            <mxPoint x="320" y="280" as="targetPoint" />
          </mxGeometry>
        </mxCell>
        <mxCell id="6-tnY_7Tv3OZ9_A0EOjr-1" value="When do we create these matrix users" style="text;html=1;strokeColor=none;fillColor=none;align=center;verticalAlign=middle;whiteSpace=wrap;rounded=0;dashed=1;fontColor=#FF4912;" vertex="1" parent="1">
          <mxGeometry x="60" y="230" width="160" height="30" as="geometry" />
        </mxCell>
        <mxCell id="WF5Qyl10SJ5ujiKutUuk-4" value="Whenever someone is hitting the join bridge button" style="text;html=1;strokeColor=none;fillColor=none;align=center;verticalAlign=middle;whiteSpace=wrap;rounded=0;dashed=1;fontColor=#FF4912;" vertex="1" parent="1">
          <mxGeometry x="420" y="865" width="220" height="30" as="geometry" />
        </mxCell>
        <mxCell id="WF5Qyl10SJ5ujiKutUuk-6" value="Solution" style="text;html=1;strokeColor=none;fillColor=none;align=center;verticalAlign=middle;whiteSpace=wrap;rounded=0;dashed=1;fontColor=#FF4912;" vertex="1" parent="1">
          <mxGeometry x="70" y="760" width="60" height="30" as="geometry" />
        </mxCell>
        <mxCell id="WF5Qyl10SJ5ujiKutUuk-9" value="" style="shape=image;verticalLabelPosition=bottom;labelBackgroundColor=default;verticalAlign=top;aspect=fixed;imageAspect=0;image=data:image/png,iVBORw0KGgoAAAANSUhEUgAAAu4AAAZYCAIAAABGo9DmAAAAAXNSR0IArs4c6QAAIABJREFUeJzs3X90U/eB5/0vSYxSuUjdiWyWta00hqYGo9I65wHsNd16ofyoM6VME9OSk3QnhJ4D090JYc9zoD+GZKYTOPuUH3OmB85TIPs0WZxiklKycWoYKNmx1zbsEz9DhLCbYmeQ7GWwlZlKjlWE8+P544u/uVxdXeuXLX/N+3VycoQl3fvV1ZXuR9+fMyKRiAAAANDTXfkuAAAAQOaIMgAAQGNEGQAAoDGiDAAA0BhRBgAAaIwoAwAANEaUAQAAGiPKAAAAjRFlAACAxogyAABAY0QZAACgMaIMAADQGFEGAABojCgDAAA0RpQBAAAaI8oAAACNEWUAAIDGiDIAAEBjRBkAAKAxogwAANAYUQYAAGiMKAMAADRGlAEAABojygAAAI0RZQAAgMaIMgAAQGNEGQAAoDGiDAAA0BhRBgAAaIwoAwAANHZPfnd/9erVYDAohHC73V/4whfyWxgAAHIlEon8/ve//8xnPuN2uzPeyNWrV/1+fyQSUddKr9crr5jZbHZ0dPS3v/3t4ODgyMhIxhuxN3PmzMLCwpKSkgceeGCCdqHMiEQiE70PSwcOHGhsbPT7/eovXq93w4YNO3bsyHLLra2tu3fvVv/0+XzGfyYWo7m5Wd7evHnzww8/nOXeAQA4cODA7t275RV28+bNNpchS62trc3Nzc3NzTLBWPL5fLW1tVu2bPF6vWltfGRk5Ny5czLEFBQUzJw5M62np74XeePBBx/80pe+NBG7UPIQZSKRyIYNG9ra2izv9Xq9zc3N6b4xRj6fz/je19bWqrBiFAwGN2/ebCzGgQMHHnvssYz3CwCAECISiZiuYs3NzbW1tak8d9euXY2NjTYJJlFtbe327duXLVuW4uNff/31kZGRz3/+85WVlQUFBanvKF2Dg4MXLlwYGRn50pe+9OCDD07cjvLQwGTMMW63e8OGDW63u62tTf4xGAxaBp1IJPL222+PW6W2a9euVM6A119/fcuWLfmqkQIATGOJF5erV6+OG2VaW1u3bNmSVoiR2traHn74YdmsMW5FQH9//8jIyAMPPPDFL35RFvX1118XQmSw32RkE9jDDz9cXFxcV1f3+uuvv/POO9Mqyhw9elTFlC1btmzfvl1Fk4MHD27fvl0I4ff7d+3aZWxpCgaDtbW1Mufa1NkEg0FZief1emtraxsbGy0ftn379oMHD8rbtbW1yeqHAACYHMYLk4nsHyMvfJFIJBKJGPtmKI2NjW1tbdu3b7dvXhgaGhJCfPaznxUT/Kve5/M1Nze73e7i4mLZKaewsHAidiQmfwSTihder3fXrl3GKpbNmzdv3rxZ3ja9owcOHJDHOhgMHjhwINnG6+vr5Q37ZKo2vnv3bsu2JwAAUnHgwIH6+vr6+vrNmzdnlgkikUhtbW1ijqmtrd29e7ff7w8Gg21tbY2NjY2Njc3NzW1tbZFIpLm5ecOGDaYrXTAY3LJly65du2x2d/PmTSGE7B+jevNMBL/ff/ToUSGE0+mcoF0okx1lVJZUqcVoy5Yt8kYkEjFWlhgTT7IGpgMHDsj6sQ0bNmzYsMG+GF6vt62tzbIMAACk4ujRozt27JAdJBobG+0zRDK7du0y1bLILp7Nzc2bN29O9rNcph+/33/w4EHTY2QAst+p7CIz7sOyZGy0kr2AR0dHJ2JHk93ApALguKPI3n77bdWyuGXLFr/f39bW5vP5VNwxUk1Lbrd73DFQpoYtAAAyYOqf0NzcnO5IJSGEDEMyVchLmPFntuwnKsdjy7/4fD6v16umL9mwYUNtbe2BAwdUvc6OHTt8Pl9mryi3Eqt8Tp06VVdXl/OWpsmOMm63WzUVJd579epVdduYFt1ud7KOL9KuXbvkZlMZlpZZcAYAIOfcbndzc3N9fb1sNlKXMDkeu7Gx0bINyOv1yglEZDea3bt333///du3b9+xY4fsdTo1jYyMnD59euXKlblNM5PdwKSi4sGDBxPfHmNeSb039dGjR+UTvV7vVH4LAQA6ikQiBw4c2Lx58/bt2yeiUUYN41V9e7dv3/7www9bXiilYDC4Y8eO+vp61X908+bNwWBw6l8Eb968+c477+R2m5MdZVTrTyQSqa+vV3lFvnP2VS/JqAq9zJ4OAIANWdvR2Nh48ODBiRv3Krs9yBG7yUYzmchAo3oc69Jx4ve//31uNzjZDUy1tbUbNmyQmcPv98s2PzFWB2M/iNqSmkhmw4YNU6R1EAAwnZjGura2tqY4310Gtm/fntgo4fP55AVOjsQ2PaCxsfHhhx9WY3invpKSktxuMA9T5B08eNDtdqvIqd4SOWeMqitLJV0Gg0G5Ha/Xm/2KBwAAJJrM+VQPHjxYX1+vegFv2bJl8+bNpgui3++Xi//If8qWpkkrYZYKCwtzvipTfpaT3L1798MPP/z666+rd2vZsmVy2l/VDGnqvev3+99+++1ly5YZ/656+9bX1yfr7RuJRGRv4izX9AIATGPGRXV8Pl9jY2M2S+hkTA5zqa+vlzcsy+Dz+Q4ePPjYY49t3rz5sccem/r9Y5Ti4uLFixfnfLWEvK2MXVtba1lBp6KMcTkJGWLkbeNKFqrB8uDBg8laFv1+vxy0xhJLAIBkdu3apa4pfr8/4+6b2fN6vcbOxZFIpLW1Vc6MJ7thyAui7LUzlX+iJ5atrq5uInY02VGmra1N1pHcf//9iVHm6NGjxqHz6u/G8+no0aMT10gJALgzmVqRpsgifZYLM9XX1+/evVsudZTNxn0+34TOkqcmvxFj8wtPkMmOMq2trWouOzXwTIpEImoskmk+ZuO7ZaytkQPxLXfk9/vlOyQzrBDi/vvvz+UrAQBggu3YsSOxF3Bzc/OyZcsym7BeRop/+Zd/KSws3L1798R1svH5fHLmfTnP78QtwCQmP8ps2bJFDpSXg7EPHDggo0lra6vxDTP14d2xY4fsti271Ki/28yrqKaC9nq9KY5qAwBgSpH9ZkxpxjQjcFpKSkreeeed//2//3dpaWltba2cSd84P232PvOZz/h8PlmJMDIyMjQ0VFhYmPP+MUZ5mO1XzUUYDAYffvjhxMfIerPEP05G+QAAuJ3X6zWGCdVQYGrfUVeuxHafjJsF5NheY5rJcj7f4uLiwsLCd9991+l0PvDAA16vd9xVCzM2ODh44cIFIURlZeUE7ULKQ7dfOa5MzQdjlLj8BAAAk0CuhSQvTHIUtLpLrtwnb3u9XvUjfMuWLc3NzYlPkdcytUhOsmEuKTKmmZysS1BXV3fu3LlAIBAIBAoKCiaoviQWi8kbCxcuzPnoa5MZ+erZJFctf/3114PBYCQS8fl8ajx2Trav+sq43W77tkDVp7i2tjYvQ+8AAFOB7MkghPD5fKaLUTAYDAaDbrfb1NnW5ilyDUi3252T6VuDwaBcKzv7TQkhRkZGBgYGBgYGZEeWCfKZz3zmwQcfLC4unrhdSHmLMgAAANmb7DWYAAAAcogoAwAANEaUAQAAGiPKAAAAjRFlAACAxogyAABAY0QZAACgMaIMAADQGFEGAABojCgDAAA0RpQBAAAaI8oAAACNEWUAAIDGiDIAAEBjRBkAAKAxogwAANAYUQYAAGiMKAMAADRGlAEAABojygAAAI0RZQAAgMaIMgAAQGNEGQAAoDGiDAAA0BhRBgAAaIwoAwAANEaUAQAAGiPKAAAAjRFlAACAxogyAABAY0QZAACgMaIMAADQGFEGAABojCgDAAA0RpQBAAAaI8oAAACNEWUAAIDGiDIAAEBjRBkAAKAxogwAANAYUQYAAGiMKAMAADRGlAEAABojygAAAI0RZQAAgMaIMgAAQGNEGQAAoDGiDAAA0BhRBgAAaIwoAwAANEaUAQAAGiPKAAAAjRFlAACAxogyAABAY0QZAACgMaIMAADQGFEGAABojCgDAAA0RpQBAAAaI8oAAACNEWUAAIDGiDIAAEBjRBkAAKAxogwAANAYUQYAAGiMKAMAADRGlAEAABojygAAAI0RZQAAgMaIMgAAQGNEGQAAoDGiDAAA0BhRBgAAaIwoAwAANEaUAQAAGiPKAAAAjRFlAACAxogyAABAY0QZAACgsTsryhw/fvyZZ57JdykAAEDO3JPvAkyevXv37t+/X93Ob2EAAEBOzIhEIvkuw2Qw5hghxIIFC5qamlwuVx6LBAAAsndHNDCZcowQ4vLly9u2bctXeQAAQK5M/yiTmGOEEKWlpTt37sxLeQDkUSAQCAQC+S4FgFya5n1lkuWYpqam0tLSvBQJyEx/f7+67XK5ctg8Go1Go9GovJ3x50IVL92yGV/XRH8qGxoaOjs7hRAbN27M7MfMZJYWQIqmc18ZyxxDLxnoqKOjY/369eqfS5cubWpqytXGt23bdvz4cXm7qalp6dKl6W6hv7+/pqZG3q6urj527Fjqz/V6vfJGaWlpe3t7urtO3alTpzZt2qT+efjw4ZUrV6a7ERWGhBDt7e2kGWAqmLYNTM888ww5BtOGihpSZ2ensXoAqVA1TwCmmekZZZ555plXXnnF9EdyDPR1+vRp019M4QbjWrVqlapEWbBgQQZVMgCmpmkYZSxzzCOPPEKOgaaOHz+eWKNAlEmXy+Vqb29vampqampqaWnJd3EA5My06vYbjUYbGhouX75s+vsjjzzCnHjQlzG1uFwuGWv6+/s7Ojqqq6vzVy4tZdATCMAUN31qZcgxmJZCoZDqZ1paWnro0CF1V2KrEwDcgaZJrUyyHJPxkEtgilA5RgixcePGyspKVTFz/Pjx1E/vjo6OV155paOjQwjhcrkqKyuffPLJysrK1EsSjUYPHz6sehyXlpauXLly9erVOR/FEwqFXnjhhY6Ojmg0Kod2P/roo48++miyx+/du3dgYEDe3rNnjxCio6PjyJEj8guhurpa/lEI8dxzz8lD53K5bA7d8ePHT506JZ8uj9XWrVvTepmhUOj48ePGY6VeQjQafe655+TDli5davO6Ojo6Tp8+LY+D3EhlZeXKlSupigNMpkOUCYVC69evTxzQsXXr1q1bt+alSECuHDlyRN1etWqVvK7LP0aj0VTamEKh0KZNm0xB//Lly8ePH3/66adTXGD18OHD+/fvN3bZ6e/v7+zsfOGFF3I4LNxyR0KIzs7Offv27dy5c9WqVYlP6ezsVIFvz549plkYjN8Mp06dUtnCMsoEAoFNmzaZvkzSPVbPPvvsCy+8YPyLPFb79u2Tx8rYYmgZZUKh0LZt24wpVm3kyJEjK1eufPbZZxkHDijaNzCRYzCNhUIhFUEqKyvl1cs49MYYdJJtYc2aNYkVltL+/fvH3YIQ4tlnn/3Lv/xLy8HM/f39DQ0NuZqeqqOjw2ZHmzZtGre0x48fT5yFIUWBQMDyy0RK8Vg988wzphyjpHisAoHAmjVrTDnG6PTp0w0NDYzGBxS9a2XIMZjejBfFJ598Ut6orq5WbUydnZ2yFcby6fIDYkwGq1atWrp0qcvl6u/vP378eH9//759++x/3x8+fNhYDFkttGDBAjHWaNXf35+TFc2i0ajcjmkXp0+fVi/hueeeW7p0qU272L59++SN6upq+bpSHLco666Mx+rRRx+VfYSNx8p+a3v37jUOn5TtSqWlpdFoNBAIyGOlWpdSKUZpaenGjRvLyspcLlcgEDhy5Ij8upOpqKWlhVGZgNA6ypBjMO2dOnVK3TY2JBnbmI4fP75x40bLp6srnxDC5XIdPnzYOH5n69at+/bt27dvX7I6GzHWbUX985FHHnn22WfV5fPRRx/dunXr+vXrbbaQOrl+wsqVK/fu3WvchemT/txzz9k0afX398vOMem2v+zbt0/tInFtk61btz733HNHjhyxmWcvFAoZK4QSO+rJY2VT3WIqhmkLS5cu3bhxo5psor+//8iRI3zXAULfBiZyDKa9jo4OdYarOgbJ2MZkjDsmxiFOO3fuTByHvHXrVvvBycZphUtLS40hQyorKzMOqspSsl0cO3ZM/bGzs1N2Xk62hWPHjqWbY0KhkLE2xXKNNssDaKQqhIQQ1dXViX1xysrKVAdkS7LmRt5euXKlZW8eYy8Z+2gF3Dm0jDLJcszOnTvJMZg2jJ1DH3nkEeNdso1J3pZtTIlPV11c5eOTjZSx/8gYy5DskXJYjc1GUrd161bLFpOysjJj+W0qNjL7BjBu0DgpcFobN24k2fCo6upqmzxk7Ivz7LPPWj7G5XKpSjjZbmVTJOAOoWWUMS7ka0SzMaYT46UxcZiS8dJu2R3V2OhjEzVM9T3JyiD7ryR7mOXAogzYjMYyvgSb9qzMBiqnfqySfclEo1Fj9ZXs6GPJ5lgldvEedwv2zVXAHULLvjKVlZXHjh1LHDMp+wzafOECujDVqSRe2FauXKkSTEdHR2KFgfH3uv38MdXV1ZbLIBg/X+NuwebeFJWWltpcv40FyHlVROrHqrS01DJIpb4Fm1oZteVIJGJsrjIxDYm32Rdwh9AyyoixNJPYzLRt27ZQKJTi9A/AlGXsAbNgwQLL3iHGcUyJE8wYL3iZzUESCoWM+7J5ZE4qRMvKyux3UVpaKj/vOe8gkvqxqqysHLePs/3RcLvd45ZBjpay3wsARdcoI8Y6AyamGTmIgDQDfZl6oR45cmTcGU06OzsndBLYSYgyqZvQKJOvdmo68AIZ0zjKCNIMpqkMOkAkjss1XpIzu0waq0nst5CTZg5jJZD9XnI+0a2q75F7sdn+uIUcV7ItGN8vuaxEKluzr8oC7hB6RxlBmsF0ZNlzxV7iIgbGi1wgELDpiJrKxdW+e0r2F3gxXloyFiBZG03GysrKVHwMhUI2USZZaDMebZux4jZbkKtNqYNAnz8gdVqOYDKRaSbx22f//v2siQ3tGJfCdrlc7baMk+OZFso2fiJsqnmMuzOR3VPk7f7+fps0k5M1umUaS3avsYeKTSzLjHGDNq8lFAolCyKlpaUq+fX399u8EJt5gFQxAoEA7U1A6qZDlBFjaSbxC440A+0YL6VyjhMbxihz/Phx0xoF6vapU6eSXRrta4CMGzF23zGxuTynxaavq/Eu+6nqMmD86jAdxmRlSGSsR0n2yFAoZBOVjEfbpndUKBQ6cuSIWjEbwDSJMkKIsrKypqYmyzRjv+gJMKWYlsK2f3Bpaam6rkejUWP9iumup556KvHppnUJEpmWrrSsbNi7d2+uhgR3dnZaRivjLuTCRjnZnVJdXa2+OqLRqGUQMU7Fa8k4jWFnZ2fi105HR8f69etttvDoo4+qqh3johMm27Zte+6559avX79w4cKc1IcBups+UUYI4XK5LNPMkSNH6DQDLQQCAeM1O5VZdI1x5/Dhw8a7jB2BOzs7GxoaVCORXLxpzZo19r/sTbPTrl+/3jhZfiAQeOqppzJeidrStm3bjMElGo0+++yzxl1MUCcS47E6cuTItm3bjGXYu3evfQoRQlRWVhoryY4cOVJTU7Nt2za50FVDQ4Ps0mfznrpcrqefflrtdPXq1aZgFwgEGhoaVGBN8QwBpr0Z4644r51oNPrMM88k/lh55JFHaGzCFKcWCxRCPProo/ZL9kjRaHThwoXqn5cuXTJ215WLIBofL7uXmio5VD1EU1OTqfnGcp0QudqzyjR79uxRi2NXV1cfO3Yshdd6i9frVU9csGCBKq3spmPa74IFC1paWkxbMF7d29vbbTrt1tTUyA2Wlpa2t7eb7jUefMl0rGSKUvHCcl+JGzEqLS09dOjQmjVr1AYT32Ljy5HUAt2mo/HrX//afjo+4A4xrWplJLkCsGnNGiHEK6+80tDQQOsypjLjNSzF6geXy2UMH6bf8Tt37jStm22aYt9mlWnJslt9f3+/+iht3bo1VzUlW7duVbWqiVfu6urqcUubjb1795q+N0zHKpUFnvbu3bt161bLOCXLP+7wq6amJtNb1tnZaVzXU4zVQJNjAGkaRhkp8VtJjNWxk2YwNRmXwjb2dBmXqYev6d6dO3fu2bMn8eIqr6ypzNEi00ziB8rlcuV2DVd5hbbc0datW43rY0+QvXv3Wh6rlStXtrS0pDifjSzqnj17Nm7cWF1dvWrVqo0bNzY1NaW+ZLd8yyznPJSHor29Ped9nwF9TcMGJqPE2nUhxIIFC5qamlh7Eneay5cv9/f3y4+8/SqSNjo7O+UsMm63e+nSpRP0OQqFQgMDA3JHlZWVOR99PS51rHL+Mvv7+2tqauTtcdsQo9Ho5cuX1bQ9eTkUwNQ3zaOMEEL2uTP9Udar53zOUACwZxzHtHHjxp07d+a3PMA0MG0bmJStW7cmVoD39/c/++yzeSkPgOlKjnVSnYstGTszUcUC5MT0jzLCKs0sWLCA0UwAcuj48eMLFy7cv39/f39/Q0ODZZrZu3evcXzThK4ACtw5pn8Dk6JamugrAyDn5EwwxgTz6KOPLliwQA5clwtEGEeoWVYYA8jAHRRlhBD79u0LBAJ79+4lxwDIOcs5eCwxzRWQQ3dWlAGACRUKhfbt22czS54cTW2aOQZANogyAJBjsjnp8uXLakFvuXT2qlWrmA8GyDmiDAAA0NgdMYIJAABMV0QZAACgMaIMAADQGFEGAABojCgDAAA0RpQBAAAaI8oAAACNEWUAAIDGiDIAAEBjRBkAAKAxogwAANAYUQYAAGiMKAMAADRGlAEAABojygAAAI0RZQAAgMaIMgAAQGNEGQAAoDGiDAAA0BhRBgAAaIwoAwAANEaUAQAAGiPKAAAAjRFlAACAxogyAABAY0QZAACgMaIMAADQGFEGAABojCgDAAA0RpQBAAAaI8oAAACNEWUAAIDGiDIAAEBjRBkAAKAxogwAANAYUQYAAGiMKAMAADRGlAEAABojygAAAI0RZQAAgMaIMgAAQGNEGQAAoDGiDAAA0BhRBgAAaIwoAwAANEaUAQAAGiPKAAAAjRFlAACAxogyAABAY0QZAACgMaIMAADQGFEGAABojCgDAAA0RpQBAAAaI8oAAACNEWUAAIDGiDIAAEBjRBkAAKAxogwAANAYUQYAAGiMKAMAADRGlAEAABojygAAAI0RZQAAgMaIMgAAQGNEGQAAoDGiDAAA0BhRBgAAaIwoAwAANEaUAQAAGrsn3wXIjXh8NH5zVAjhmuXM7OmXeoIOR8HCCm+ui4Yp7a2LvQ5HwecemONwFOS7LFNOJBoL9AR7+67diI+6Xc6qRXPnlc/Jd6EAwEzvKBOJxrou9l7puxYdjqk/lpV4Fsz3Jgslb13s7fqHXiHEpu+sVH/81Rvn+wfCQojhaKx6cUXG5bHcOKasc63+rou9QojLJZ6GdbUZbyc0EG450yWE+Moy3+cm7GJ/pe/auVa/EGL9n9RmFtnTMhiONJ1oi8dH5T+jw7HK+dMh6E/mYfxNq7+375rb5czm7AIwLo2jjLoOmYQGwqGBcMeFnrVfW1LscZvujcdHjblHikZv/eXG2Bd3Ziw3jilLvVnx7N53tambN7Pdjo0buTu74vHRwXBECFHscSerjjrZfF4elnnlc4o87mg0Nu+B6VAlk8PDOK6bcl8zJmdv2UrlrACmJl2jzLETbbIeRQhRVuKZWz7HMbNACDEUjvT2XYsMx6LR2Eu/OLd6RVVlCm1Gdct8HRd6HI6Ch744d2LLjamkrtYXjcZuxEdXrajKd1kmlaxxEUI0rKstK/EkPiA0EJbX+6pFc+uW+Sa7fMiHcc8KYMrSMsqca/XLHFPscX9lmc/0qatb5uu62CvrkM+1+ktLPO7xqpHnlc+hE8AdyOVyPv6tunyXYiqKjNVT8rkAMPXpN4LpUndQtisVe9zJfj1ULZq7enmVECIeHz11pmuyiwgAACaLfrUyqn/M2volNg26lfO9oYFwoCcoq8rt+/dForHQQFgI8bly65Es8fjo7/quRYdjclNlJZ4MKmCv9F2TfXHKSjxuVxr9DUMD4cFwRHbocbmc88rnJKtnkrsoLnLLTkKy25Asc7HHnfEv7OhwLNgfVi8/m03JwWLytTgcBakcSfnyh8IR1yyny+UsS6GaTSS89qIid+Kzxn3fB8OR0EBYHflijzsnFe/BgXA0GnO7nHJrkWjsyrvXotGYw1GQ+gtMZDpPLEsrzxDVWeRK3zVZAaMKc6k7KIRQrbfqAfc6ChLf9NQ/F+pQL5zvlUW90nctfnO0yON+aNFckfBeqPPE4SgwnW9yp0PhiBjv45AK4wmZ4tZkn5KcfLJMe7d8y+zP0uDY+Wl575Wx0Wf25+24Z4WJ6XNRVuJJ7JUITCbNooy8pAkhKud7xx19UDnfG+gJCiF+13dNfl0mExoInzrbJYTwlq5M/Dpov9DTdbHX2DO0QwiXy1m9uCL1wdvtF3o6LvQIISorvAtTHgkyGI6o1jTlzVZ/5Xxv9eKKxO/cc63+6HCsenGFY2ZBy9ku0xNdLmfDutq0vvcj0VjiduSmqhbNtT+qJvH4qDySxj922JZKjgxK7KRZOd9bV+tLFmTlEJXEZ9UsrjANT4sOx+T77naZq/dCA+H2Cz2WL3z18qosA83l7mCgJ1hW4ilbV6tODPui2kt2oBKP7VsXe40vSr0dsjBCCHlAEh8gL/PGu9L6XKiP2ML5XmOH/bISjzyLjO/FYDjScaHHuGX1Qq70XWs522W8681Wf7qHS7HcWrIPl/TWxV5T2USmH4eWs11X+q6Z/p74lsVvjsojE7/pS9zFm61++ZV4r2NJYqI6+cZ5IUTlfK/9GTvuWaEk+0IoK/GsWlGVTaYEsqFZlAmNfYSqUvjWKCvxbPveN7Lco+pf7HAUuGc5XS5nNBqTv31PnemKx0dT+f4y5pjVKfcwNX7PumY5i4vcN+Kjw9FYZDgW6A6GBsI2uaTpRNutn4xF7hvx0aFwJB4fjUZjTSfanlhfl+LwhEg0JrcjxmpQHI6CSDTWPxCORmNvtvqFEKl/fTedaJMS6WS9AAAgAElEQVTjIxxjv+/Vpl76xbnHv1Vnei2BnmDLWOOg6YXIl2/5QozJQFbGyL3IuyLDMdnyaO9K3zV5DbAsbdOJtse/VZeTn6HyuiiL6nI5b8RH0y2quP0lu2Y5y0o98r2WZ6np2Mpi3zSMVZnpKBBCFI29nNISj+UDTPWIL/3inHo35edCFl5+LmwmNVBxVv4USXwHB8ORN1v98rAbT91TZ7pWLa+S74s8XPI1ym3OdBSklSSEEJFoTG7N8uyy/HCZzi7jq36z1X8zPppiokr8ZKmPdjQaO/zz08bxCsUet2uWMzoc6034SRaJxmSOEUKEBsKmKKO+LccdejbuWTFusUMD4Zd+ca5hXS3VM8gLzaKMShWT84FRv8srK7x1yz6pBpDXs8hwrONCz7g10upylVaOkb9+4vFRh6Ng7deWGH9Uye9T+eVuOV+FvFQYOxJFo7Fzbf4rfdei0VjXxd4Uv3DV11bVork1iyssX/7CCm8qwehSd1B+S5p+QKvJS0yvJRKNyRzjdjlX3V4Lol7+yTfOm16+HISf+Cz18gPdQdWikUwkGpN9xoUQdct8xtCsSvtmqz/7mUIGw5HBcKTY415bv0RVMcrXNRiOpFJUWVr5khPPE9n5PR4f7fqHXjUKSd4IDYTlWJXEXvPr19UKIS51B2VNQOIDhBDnWv3y3Ux2YrRf6ClN0tjUdbG3rMTzlWW+ZB/hN1v988rnrF5eJTer3rvQQPilY+fkHC3qcAW6g+fa/PH4aMeFnnSjzMk3ztucXYkfrkvdQXmoy0o8q1dUJb5l7Rd6ilJrbFKfLNPH4UrftTdb/ZHhmGm8wrzyOV0XewfDEfmFoB4fMtSOXHn3mmmsmaryGbcScdyzQggRj4+qYps+F+pdOPnG+dR/KQE5pFm3X9nXZHJyjLpIzCufs3pFlfHz6XI5v16/RAghrxM2Gwn0BGXtRVo5RgihKrETuzarr7/QQPhSTzDxufH4aN3tX0ayWUS+BMunWG5k4Xyve5azZnGFMcbJrX1lmU8YJqIYl2zpK/a4TSmq2OOuWVwhh9Mb/95ytksI4XAUWL58+TUqe8Pc9qyx9GN6lnz58rSxnIvI6F5HgeytYvq+lqVVu85+Kpp4fPReR4Exx4jb2xcSGzISzRCissJreaCqFs2VVSyB1N7xFMl5KYVs5ks4MRrW1cq/tJy17m5/r6PA/re723CuittP3Xh81JhjZBnkO5LBlE5ya6mfXar+zFQG41vWntBWmOhSd9Ayxwgh5pXPUV8sxmZHGY8SP269714TYxVp0WjMdARk+WVl6rilGtdbF3stc4wQonK+V9YgRsfODWCSaRZl1Fx2k0B9Ji3n1ZDjwKsXVxQXJf1SVk0k6eaYeHxUXn4q53stv/TVT+HL3RZXKbfLmTibjsNRIP+Y4jF0OAqqF1c89Z2Vlm15quY5+9nGqhbNbVhXa/xJrZqE5pXPsewRpV6+8eteTYVSvbgi8VkOR4F8vyorvPb5wOEoWL2iKtkLV29HJBfTrCUrqpznJh4fvfKuuS+FicvlXL2i6nub6i3PE3UJzD54KeqY11jV7cm+MkKI6FhnVZNV47WafWnRXNOl1+EokEdJNrWYHv/JO5Lml0Oy/nbqdRk7sqgpxdfWL0l8isNRsHRxhRBiKBwZN9zLj7Z77ECZFHvc8nMa6A6qd03FEVPfGnmEa8bOot8Z7lVtT7maoznQHZQlsfxczCufIxPVW0QZ5INmUWYyqd80yfoXP7Robs3iimRT8KkcU+xxp5VjhKHe2GZ+P3mXZfVAUZKfvK6x7g5p5Q/rIV1pTmsrrzeyO+e4Dx63R5TDUSCb/42XjZBhykTLZ5WVeGoWVxgbRDIQyd0EwcK2qLKQlmkgdUNDt45Puu+XDXnMbT4Xqs9vYp9WkdDnJpFlJpNHw/KNy/jdTNaDxOEokFdlY46Ur8UyS0lqwYoh2ygTH+sONTd5/xUVPozvviytsUjqs19W4pGZtbfvtnvljZyMuRsMR+SXxtzkzWfJqo6ASaBZXxmHo0AMT9K+5FdSslhgT+UYWfOf7tPVd4FNPXyRoXqg2HHbw5J9ucsJkTMQj4+GBsKyT2JkODY81t0ydQ8tmhvoCcpBTJd6gmUlnnkPzLEcIC0MFwO7l1/kFj23mhXk1UWNzs3hwjrR4djgUCQyHBsKR27ER4eGIjmc815VNlhyzXIOxSNpVUMax8znvLTKuJ8L+bpkMXK+9xxyJQ9VxR53/9hgY0lG2PjN0XGbkOwrh9QHxyZhqNN+MBxRPW9KSzyBnqBsRZKnjfqtJaw608i2J5vslRZ1KGw+kuoVDYUjdP7FJNMsyrhdzqFwJCd1+ynK7DefGnoj2whSWTwh3b2rX7c5bDtIdKk7GOgJJo69lDN/pL4d2Z/gtebzMg8FokFZX+0aW2/5ttGnctCW7c/3xFgm+1HlZDhoPD761sXewFifhglif2qp3iHjbkeW1jQuWm1kgk4P+8K7XM7ocGxCz8zs3Zv8JahXp5KBvJar/nPZszmAlnd9rnzOqbNCGKaWkFFGVpPIVZNkjYiMFPLeBTlqXVKL09lUqmX8SwnInmZRpsjjlsNwxp31Lu+qxuohUlw8YQoyzv+hBmMXedzuWU63y/niL86ltbVij/up76y80nftSt811aVAjmLtuthrufZnKm7ER12zPvlnTnrjqnHjYmykrpydr9jjlsM0stxF6sZN0sbxsWJsMLZjZoEsbSQaO5Wk+y1SYTr+bpezdLz2mgmqkJDNXv0DYTkkW/Unk8FFfjD7B8JX+q6VlXiMbU8TURhgqtEsypSVeDqEEEIEuoPjjigeDEdONp8XQlR9Mb3ZqyT5Kyez3+Wyk/+88jly7G5as7kIwxeoTWJT1+wJGvpoXCAicXBmul0sFbXclWy0utJ3TVabn3zj/KYnVsrHqN/BpqGnRqrzh8qI7lnO/lz0xn3rYq/MMfPK51QvrjBdmbLsvGJkn7pSzGQdF3osB8xLkWguxy5J8nNhXzw1m3PO955DphBslPjqZD2Ta5Yzxcl+kvlkCHfyEzXZR3te+Zz+gbBsRZLNfG6XU52f8l6Zb2TPHuO9WVI1WINDkWTfSOoVUT2DyadZt181p/tbVtXpJl3/0Csb7DP7PMveAKrjZFpkf9WyEo8azZFsbKolVWCbC6fqUzlBvwJVh5W19Usm4rednANt9YoqeayMA16KDH0Fkj1dfmW7XU71dV9U5BYZDco1CY1t2bKiKIeNJjLMWd6lhp+M21VL9gOdVz7HNC5amogGMlmkxDZHJTI2KjizfmaTxubDFRpbrVb9RfVbz3Kn6owdTP7FogpmOv1kz1/ZiiQ//sYqItURXp1X41YgpU69lTadmj+pyExnVRYgJzSLMkIIGQ7i8dFzbX6bh0WiMTXoMbMrsXyWXG3E8gEtZ7uaTrSp6dQsqSFOV/qupd7KLlu+xdgAyERqWZaJW7hYdVix/BGWbuVEdDh2yTC41Ei9BHXdVYNBkk2IEonGkn2Vi+QH7UrftaYTbbKezK6o0ZhIfhmwHJWTsWSBQA1UGff9la8lWWiwH00jMkpm434u1Ls2xVfV7k3yVqrVUW47uwxViZbPkudkKsdTvlmy9dnyAcm+uNwup3yunDBQ3D4Iyz32Ue262HtrGHamXfQSqZY1m1mp5AxbOawKAlKnX5SpnO+9NfFXd/DkG+ctGxTUtJUihXksknlobH4L0yot0qXuoJzg3GZeGalumU9Nn5XihdDhKFDzdFnO09A1Nl1VKgs4ZMbYymO6K93Oj5Fo7NDPT58622U5+kMdE5WZ1BQ48ggnPuXNsRRrnNpEfdu2X+hJ/PUs5/ANjc0WbVNa+ZvSsjZO5eNcSVZUNWfxuClcHjTLSCS7JVk+Sx2BDNrj1OfizVa/zbkx9ZcYVHNDG8Xjo7JVWgjx0Bc/+XCp+uCWs12WB63jQs/JN87/9FDzuDVhNbY/xt662CvfNcsgIhOV+vibTg95r/zGkJ3b7Etios4Ky8qnhWOzUln+eGsfa+jMbDEsIEv6RRkhxJrlt9Ytk7+zW852yTWBB8ORS93BYyfajPOCZ9w44nAU1Iw1D7147Jy6psoRxfJqmsrFRo7HVqkoxYvHQ4vmytf4Zqu/40KPetZgOHLyjfOyF0vVorkT161P/aQ29oEVYzExrXlKVMjoun0pPuMCk6YjqfJf04k248sPDYSPnWiT3/U1CfPLrRmbFrbpRJuxCVKWWZ4S484YpmodjG+WLOpLx9Lr6WxPrl7UdKLt0tgPdPmjX9UbpXJVqBxbaNp4lGRpT75xPlloc89yqjkGL/UEE2e2tS+2/FwMhiOmz8Wl7qA8RHKawRQ3mC9lJR65TIHx7DJ+dZjOLjlvoVyc4ZKhTiU0ED75xnk1p+W4wxHKSjwqqbec7VIfrltfLK23vlgsf6UYPyOJ0/iqqiORUYdfdVZ0XexNPCvUb8iui73Gj0Z0OHau1a+mQs5hVRCQOs26/UpyZO+vz3bJuR/UyF4j+YWbZaVF1aK5N+Kjck0WWc0jJ8xQu/j615akMpBKTr5+8o3zqXcBlgFIrWjTfqHHNDpXTviWzauzJzv6dFzoGQxHXvrFOYejwDGzIH7zVn/PumU++5Y1kzXLq4yvRR40dSTlUgPGxzscBV+vXyIHb1u+/MoKb+KVXp4YapkkuSqhsebAZkpD42N6+67JVZAC3UH5wtUSequWV+VqTJA8f176xblTZ7pO3X5qpVhUIcRDi+Ze7g5aHli3y7mgwmtZfyY/HXKFplNnuoTVGsg2xv1crE3tc5Ffa7+25KVfnEv97Cor8axeXtVytkuu0HQqYcC8XIUjlV3XLfPFb47KRcHkOWbcjtuw/kNiGdQpnThbnRqSLTJq3VNnhXyBIuGs+MbXlrz0i3NyOdvEYsvVxNLdKZATWtbKCCFcLuf6dbWrl1cl9mmQrTNPfKsuJ40vNYsrVi//ZPF69X1dVuJ5Ip3lkeVwGDG2PF4qT5EX5sqx9RrVsBGHo6BumS/Zl10OyTVi5GuX3Wnj8VHZH9ZmrlJL6rXIf6r50+Sb9fj6OssJ6Y1PUS9fzp6c7Ed/scf9xPo647PkjbIST8O62hRrvxvW1aqTR/UjllsYd7LatMjX6L492KVVVBl5Ew+s3IhNnqhaNNd4YsvuoqmXXH4u1Plv+lxoMQZYHjr5BWL6cCU7uyrnezc9sVKlBOOzahZX2B9w067Xfm2JOv6m7Vh+HD4pw9h7nXiQ5ZDsZPemIvGsMG3/qe+sNH4nZPbygZybEYloP8m0capsd04nezWSE91GorF7x2ZYmYi9JCMnirgRHy0uck9+F4TQQFiOvs5+7/LNUq9F1WmP+xR55OUUL6nvKN1nWW5B5OKFG7Wc6Qr0BF0upxp/riYCyayoQohoNDYYjsipzLylSVcVSCQ/O6m8Ecn2m8fPRU4MhiPRaCytD5fx7HJl19HVuPeM34WcG/esyO83EmAyHaIMoJfEKAMAyJiuDUwAAACCKAMAALRGlAEAABojygAAAI3R7ReYbPH4qJxjkMGrAJA9LafIA7TmcBRMkTG3ADAN0MAEAAA0RpQBAAAaI8oAAACNEWUAAIDGiDIAAEBjRBkAAKAxogwAANAYUQYAAGiMKAMAADRGlAEAABojygAAAI0RZQAAgMaIMgAAQGNEGQAAoDGiDAAA0BhRBtNWaCDcfqEnMhzLd0EAABNoRiQSyXcZ8iw0EG450yWEWFu/pNjjTv2Jv2n19/Zdc7ucDetqJ6x001/Gx99eJBo7/OJpIYTDUbDpiZUOR0GKT3zrYm/XP/QKITZ9Z2WuCgMAmDj35LsAU0J0OCaEiMdH03rWzfhodDgmZkxMme4kmR1/e/Gbt7YWj48OhiNlJZ5UnyjfVgCAJmhgwvRU7HFXLZrrmuWsWjQ39RwDANAOtTKYtuqW+eqW+fJdCgDAxKJWBgAAaEzjWpnQQHgwHIlGY0IIl8tZVuIZt9OofMpQOOKa5XS5nAsrvKnsKB4fvbWv4ZhrlrOsxJNlg0U8Pvq7vmvR4ZjcYLHHXVTkds9ypr6FSDQWGggLIRbO98oNXuoJykNRVOQuK/GMuzXTobB8SnAgLLcp92Jype/ajfjovY6CeeVzEu+91B0UQrhdznSPlTw4Q+GIEMLlchZ73Mm2IHdRXOQu9rjlEZDPqllc4ZrlVCW0KUNoIBwaCKt3wfKFjFvCeeVz3CnvTp6xDkdBsmMOAEiXllHmrYu9HRd6EnuJlpV4Vq2osrw8RKKxlrNd/QNh4x87LvSMO/gocV8dQlTO99bVZtJyEY+Ptl/o6brYm3hXzeKK6sUVKW4nNBA+dbZLCLFwvtfyaNhsTY4YSuzZWrVorqk5ZigcebPVL6wSSSQaO/nGeXn7e5vqTeODVPFWr6hK8RVJg+HIyebzprIle1vlLuTLbDrRpo5AZYVXRpm3Lvb2D4TLSjxlCe+y5UEo9ri/Xr/EvoTy7TMe7Tdb/fJoy91VzvcmRpnBcORcq990+omxEyn10VUAgET6RZn2Cz0dF3rkbVmfEY+PDg1FIsOx0EC46UTbE+vrTNeGSDTWdKJNXrccjoKyEs+N+OhwNCb/bhNKTPtyuZw34qP9A+FAd9AxM+3Lj6kYcoORaGwoHJERR4xdmFN3qTv4ZqtfbU0eB1nymY6ChxbNNT0+0BOUI5+FEK5ZzuIi9434qCxA18Xe/oFww7padfQWVnhllJGBwLgdWSchXXn3WuXt9VtX+q7JG2lVyUSHY+1neqLDsdveo7G3tWFdrWVIjUZjMsc4HAXuWc4bKQyDutJ3TeUw40EYDEdOnekqTV7mljNdgZ6gvG08H+TRTvaswXBEJS3TMQ90B0MD4cQzFgCQOs2izJW+azJbuF3OVcurjFdKGTui0VjXxV5TIFABom6Zr8pwde+62Nt+oaflbJflviLRmOW+otHYWxd7uy72pnv56bjQI4tRWeGtW/bJb/FoNHbyjfOD4Uj7hZ6qRXPT2uybbX7T1gLdwXNt/nh8tONCz8IKr3FrkWjs3Fgti+UrkmVQdTMOR0Fpiad/IBwaCFffvl8VVoQQoYGwKcoMhiNCiLISjyudBhRZttUrqoxbU2/ra83nH/9WXeKzAj1Bh6PA9Cwbsn5OCOFwFKz92pLEUyjZlHrtF3pkjin2uNfWL1EvTb59KvIm7u5k8/l4fNTmjG0527X2a+PUBgEAktGs26/DUSCvWA3rak2/+GsWV8jf08arrBDiUndQBoiaxRVVt9dSVC2aW1frSzadiYo4pn25XM66Zb7SEk+686DI3jzzyuesXlFlTBgul/MrY+nh0tiP/hTd6ygwba1yvle+zHh89Mq7tx0K2Q4l5/RLfEXywAZ6gsbXJR8WGgibXqzsqSM7J5kOeCQaky0pc1PreqLE46OqGIp61wbDkWQHp2FdbYo5RowdBCGEKceofcnuQYllC4z1/mlYV2uMaC6Xs2Fd7b0zCyzPB5lfHY4CyzNWvrQrfddCCW1PAIAUaRZlyko8q1dUfW9TveXPfXllNf2qlr+k3S6nZdtN5XyvZYOCuh5Xzvda7qsmzZYguanHv1Vn+fvbWEGS1jYtX5RqV4oYthaJxuShqB7rFWsiK2Nk/9nEghlTkewBLYT4+teWiLFu0epedTvdDr9ul9MykdQsrpBZ7XK3RZRJpbu3kXwh88rnWBZP7ctEdtMWQlRbPcDhKPjSF81tecbdqe47yXaX2I0GAJAizaKMlKwJRv4sNv04lhcJmw4Qlpc01Rck2c/9dFtP7KnMoeaoTVGR1VXc8viohDHvAevKEoejQL4iYz+YshKP3FpiWCkr8bhdTnlgjVdiedvtcqa7CsGCJIdaVcUNhi0W2XC50ngXVPVSssFKDkeB5SGVx0SVJJHlaDi1u0qrIWDCcMwtXxoAIBWa9ZUxig7Hgv1hOaRZ9r5MrOFXEcGmhsDyiqsuLXZPLHJnNsO9nEpfjsuN3xxVfXUzcG/KHWvUxfgtq/FTRqaaocoKb9fF3it918TyW3+RLUoyxJQldKYJjZcdk7GJPjJeyCUFskmQ6nywzCuqGIl1JPJ8sCmhDCWm80GdRVf6rpma4ZQZtz8SAJAu/aJMJBrruthr6tIhORzm/grq0mJz/bOsw5CXc/seuBkMYpJrNeelNUFVWSXroJrMvPI5cvhxaCBcVuKJx0f7x2pl5P87xqofHI4COU2LSF6bZcPmaKvEdiM+6pqV7obtNphWMdKlzsZ0jzkAIHWaRZlINPbSsXPqCiEHYztmFhR53MVFbjW+SflklFCa1R7yibld4NA4tFsNn5aTs5WVeH56qDmH+0rGkWRGOyPTmOdij1tmRLkoY2is/UhFmcR75WjqiSh/bt+RSZOsgUnJIBYDACTNoszJN87Li1nVormJPTQT6/DVFcJmuhHLq6PasqxssHxiWq1CyYZ2TxrVp2T18vSmrXM4CuY9MCfQE+ztu/bQornG1iVJ3nul75qKMilOm2tiEzfVoXan0zPGhk3tjuX5IGtx7N/xxPKrM4d58ABg4ujU7TceH5UdPirn3zaTivEBpr+4XU75sKHkfREsOzGoXhE2nRhstmmxl7ERQF9PGAM8OWQTm+xuku5zSw1DskOG1iXjvVfevWZqe0rX4FDS49k/VtmTZVdrVTCbwc+Wd8nXGB1bLyLFZ6VyFgEAsqRTlFE1K8mulJahpGxsshnLX9umgcTGZ8kMlKyXw6Vui846NoyNYon3TsK0Ip8bqykJWA1pli71BC0rHtRzL/XcmqTH+BbIe6PRmBrFnWyQlD3L/k9CiEg0Jt/ZzCp7jFS07U3SCVdOvpz4d+/Y67VcdEIkOarqLAokny7oSt+1jDt9AwCEXlFGddW0vPC/dbHXsr5BzRdnOatvsmfJVhW5r8TrkGotSp0jeeHj8VG1mMDEUQOJ2y/0WFYSvHWx99SZrsM/P23RTucokNUS8lWbBqKre+UqB+r6nS61eoPJm21+eSODrsSJ5PkQGghbvoNNJ9osn1U0tthkYn+seHz0XKs/WViRuwt0By0f8NbF3pNvnD/889OmF36pO9hytivd+RIB4M6kU5RRl8xAd9C4gKK8lsiliBKfVVbiURchuT6A/Ht0OHau1d9xoSdZHY/qi9Nypss4n71cEig6HEtr3hS1hkDL2S7THC1qXYWJVrfMJ7v0vvSLc8ZXpA6gEMLtclpWfsg/ymOeONDaeAzH7eKaTLHH3XWxt+Vsl/FQHzvRJqOV5TKNGXho0Vx5EEzLFMh92bytq5dXqSceevF0y9kuuerFoRdPd13srUky8aDaXcuZLuNLk7lNHXPj2uOD4cips12B7uCpM12TUF0HALrTrNvvmuVVTSfaIsOx9gs97Rd65MVD5gC3y7mgwmv5U3v18qqmaNtgOCKn9zCOTir2uKsXV4SsfovLCenlQoByd8bB3jWLKyLRWOp9IByOgprFFeda/XL5Q4ejwDGzIH5zVG6wZnGFZYVEbjkcBV+vX/Ja83l1AE0DteSs/JbPnffAHHndFVYNfHJIdrJ7U/SVZb43W/2B7mCgO2gqWLHHndlS5InkGgLGs8i4r6pFc4s87lNWFXjyiefa/Ff6rkWjsUD0kyqTeeVzqhdXXLJqYzLuzvKlORwFX//aEmMMMvYZkuPCcvLCAWC60qlWRozFC1VtIOfHE0LMK5/z+HqLtQYlh6Pg8W/VqSnn4/FRNeVrsiu3VOxxP7G+TlVCyGc5HAV1y3zpLmEthKhaNFf9spfdb+XwqMy2lplij1uuWGQ6FA5HQdWiuY+vr0vWr9btcsq71DBsI9WoVOxxZ9Mzd+3XlshWJGPBahZXGNfrzp48i1RzldyX3JFaSjPZE9d+bUnDutqqRXNLSzylJZ7K+d6GdbX2i0Gq3am3Xr20shLPE9+qM9UDfa58jnvsUH8u6+5BADDtzYhEtBxbEY3GBsORG/HRex0FaXXOCA2EI9HYvY6C4qI0LrrRaCwyHItEY3I+/iwvq7IMYmx2/3wN05Ujkm7ER4uL3O5ZzqkzWli9uRNdMDkdjjwfMu7ioxz6+enocKxyvtdmuHvqxzw6HHPMLJg6bwoATFm6Rhlg8tlMMiSE2PPTXwm53Lpt1Q4AILc0a2AC8iU0EH7xF+eSjVxTK1sVF6W3iCYAIEuadfsF8iIeHz11pis6HJO9sxfM96rlHeLx0bcu9qqpnHMyYhwAkDoamICUyKFnajS1WpoqMhxT3Xgb1tWmNUQfAJA9ogyQqmg01n6hx3Kyu7ISz+oVVVmuqwAAyABRBkiPHPc0GI7IXsDuWc7sRz8BADJGlAEAABpjBBMAANAYUQYAAGiMKAMAADRGlAEAABojygAAAI0RZQAAgMaIMgAAQGNEGQAAoDGiDAAA0BhRBgAAaIwoAwAANEaUAQAAGiPKAAAAjRFlAACAxogyAABAY0QZAACgMaIMAADQGFEGAABojCgDAAA0RpQBAAAaI8oAAACNEWUAAIDGiDIAAEBjRBkAAKAxogwAANAYUQYAAGiMKAMAADRGlAEAABojygAAAI0RZQAAgMaIMgAAQGNEGQAAoDGiDAAA0BhRBgAAaIwoAwAANEaUAQAAGiPKAAAAjRFlAACAxogyAABAY0QZAACgMaIMAADQGFEGAABojCgDAAA0RpQBAAAaI8oAAACNEWUAAIDGiDIAAEBjRBkAAKAxogwAANAYUQYAAGiMKAMAADRGlAEAABojygAAAI0RZQAAgMaIMgAAQGNEGQAAoDGiDAAA0BhRBgAAaIwoAwAANEaUAQAAGiPKAAAAjRFlAACAxogyAABAY0QZAACgMaIMAADQGFEGAABojCgDAAA0RpQBAAAaI8oAAACNEWUAAIDGiDIAAEBjRBkAAKAxogwAANAYUQYAAGiMKAMAADRGlAEAABojygAAAHvQcwQAACAASURBVI0RZQAAgMaIMgAAQGNEGQAAoDGiDAAA0BhRBgAAaIwoAwAANEaUAQAAGiPKAAAAjRFlAACAxu7JdwEmyuULl/+x+2r3/+r+x+6rsWgsNhzLd4kAAJhUzlnOotKiohLP/RX3L1g8f8HiBfku0YSYEYlE8l2GXIoNx974+a9//fMWsgsAAEZFJZ75i+c/8r1vFpUU5bssuTR9okxsOPbK37766xdb8l0QAACmtC+vWzadAs00iTJv/PzXr/70l9TEAACQiqISzze/981/t+7L+S5IDkyHKPPi8y9RGQMAQLrWfGf1Ezsez3cpsqV3lIkNx37yZ3u7L3TnuyAAAGjps/Pv/9GLP3TOcua7IJnTezD2Xz3xY3IMAAAZ+8fuq3v+bG++S5EVjaPMi8+/9I/dV/NdCgAA9Hb5QveLu17Kdykyp2uU+R8n/p7+MQAA5MSvf96i71VVyygzNDD06k9fzXcpAACYPl796auaDgTWMsq88tNXhwbC+S4FAADTx0g09oqe1QT6RZmhgaG/P9Ga71IAADDdaDpXvn5RRtPMCADA1PfGz3+d7yKkTb8ow+hrAAAmSIuGnX81izKXL1ymlwwAABNkJBq7rFuVgXZRRrPjCwCAXq72aDZnm2ZR5ipz4gEAMJEuX7ic7yKkR7MoQ+sSAAAT6mp3MN9FSI92UWYo30UAAGA6iw2P5LsI6dEsyug43h0AAI2MRDW71GoWZQAAAIyIMgAAQGP35LsA08HHhc4/1K++8ZUvf1TsmRGL3fPu1XubTzku/L+WD45//tPRtXNuln3qY+fdM0N/cP7Pf/703w1OcoEBAJg2iDLZ+rC4KPLcDz4q8sh/fux0jlbOH62c/2HTL51NvzQ9OLp2TvTr/1r982bZp25+q2R4RVHRf/ndPe/dnLxCAwAwXdDAlK33/+y7KscYxRr+5Ebdl41/Gfm3f2TMMcqHnpn/svH+iSofAADTGlEmK7ICJtm9f6hfbfxndO2cZI+Mf/7T8c9/OpclAwDgzkCUyYpNjhFCfPhZ70fFtypsPvDM/PC+mTYPvvEldy5LBgDAnYEok5UPi4vGeUDRrQfY5xghxIefujs3ZQIA4E5ClMnKPf/ImlAAAOQTUSYr97xLlAEAIJ+IMlkpCHR/qrkl36UAAODORZTJVuF//W+kGQAA8oUp8nKg8L/+t4JA983/46HEXsAzRjRblAsAAL0QZXJj5oW3Zl54K9+lAADgjkMDEwAAk21Fw/LlDcvzXYppgloZjKPQVVi9ZmlxabH850h0pC/wrr/db/+UQnfhrcdHRkaiIxNeyhRMzVIBuAOtaFi+df/TQoh/XTb76J7GfBdHe0QZO6OV828ufujjQmfqT5kxEiu41D3zf+WmsSn++U/fLPvUqNd5Tzju+O37jt++n5PNpshX43ts27d91T7Le88cO3N0z8uD/RbLepcvLN/9yvPy9tE9jY17Xp7AUqases3SrfuelrenTqkA3Mk2bPu2EII0kyWijLUPi4ve/7Pv2q9LkMwf6lffNRR27/zruweHsinD779d+v6K2/oRO377/r86cnUS1tAudBU+s//ppauX2jxmxfoV1aurj+5pPHn4tYkuDwBMJ2eazhaXFj/2nzcI0kwu0FfGWuS5H2SWY6SPijy//7/+etxlDWwk5hghRPzznx76Pz/3sXPClzjY/crzphwzEh25Hhq8HrqtDqbQXfjdv9y09qmvT3R5AGCaadz78tGf3IovG7Z9+7FtG/JbHq1RK2PhDw+v/qjIk+VGPi50vv9n33Xv/OtMCvAld2KOkT70zBxeUeR67Z+yK52dx7ZtKF9Yrv555tiZM01n/R2X5D8LXYXVq5c+tm1DcVmxenxHS6dlSxMAIJnGvS8LIaibyR61MhbiX1mWk+2MVs7/2JlGPxvlD1/6jM29sX97X6YlGl+hq1B+oqSf/cWhfVv/RuUYIcRIdORM09nvffU/9QX6bj3FXbhiPf3wASBt1M3kBFHGwgefvT9Xm8qsjelDj90y2h/Y3pslX80nnXzfbvcn6wczEh3Z9/TfqH+uYEghAGSENJM9GpgszIjFMqtNsXH3eH117/7Dhylu6q5Yqo/MwOyxZiMhhL/DbsR1X6Cvo6Wz0FUohMhsYLOvxveFat8DlQ/MXVguhHg/8v5IdKSjpbPj1yk1VxW6Cr+xaa3x6ddDgx0tnf52f8atXd/YtPaBys/K29dDg4xyAjAJaGnKElHGwj3vXs2mz69y9+DQPf94a+nse8I3Z8Q+tOmxm/pA64LgJC2GIGOKjR8/mUlPICHE7LLZW/f/uWmYt5y6xlft++5zm04eOvmznYdttvDYtg1rN33dWMLi0uLyyvLq1Uuvh66fbfpNBl8Ej23boBrXroeuH/3J99PdAgBkhjSTDRqYLDibfpmT7TjebDX+c9bfJa0quCd8897/L5LiZgv/5z9nVSxbfZfeVbe/2rBCzYyXQ7PLZu9+5flk09VIazet/eELP7C8q9BVuPvV5zds+3aypDW7bHYGlbTGHDMSHfnxk8/TkRnAZKKlKWPUylgoCHQ7m34Za/iTbDbiONdqikSu1/7pwyLHSM0fmR55V+zDov/yuxQ36zp5zdk+kVEm0DcSHZEpodBduPvV53+281Bny/kc7mL3K8+r0U8j0ZFf/exk3+W+kciIEGLF+hWq20316qXLG5afbTprevpj2zYYY9Db7f7OU50jkZFCd+HSVUu/MNbXZ8O2b78feT/FOW9WNCw35pjt3/y+6tQMAJOGupnMEGWsOZt+effgUKzhTzLotztjJPap5hbLqp1/deTq3UPxWO19H9x3q+uuo2f4j14IjtuTRggxMxj79N8NTWiOEUKMREeO/uTl7/7lU/Kfs8tm/+iFH/YF+s40nfW3X8r+Ar+iYbnKMddD17d/8/vGyg9/xyV/u1/O5y2E+GpClFnRsHztpk+msdn75/vPHv/kAScPvbbhmW/LbwEhxGPbNpxpOjtuPx41g7j0f//oEDkGQL6QZjJAlEnK8War483Wj53ODx5IY0DT3UNDdw2GbR7geu2fXK/9082yTwkhCt67OcOqD+9nXu7/6PZeNXeHb07CJL/SycMnC11OFQiEEOWV5d99rlwIMRIdebvdn03XWn/HpX1P7/fV+MorH/irP/3rxI2caTr72H/ecKvfTI25EcqYY372F4eMOUZq3PvybO9sWbVT6C701Sy0r1Iqryw35hhTNgKAyWdKM6lXMN+xiDLjmBGLFQS6c77ZmaE/2NxbYHvvJGjc+3LnqfM/euEHxWW39ZWR8+NVr14qhOho6Wzc83K6FRjXQ9evh66fSWg2Mj1G9dEpLi1WcWd22ezyynL1mGSf7TPHzqqnf9r1aZsdlVeW7371efXPoz9pJMcAmAqMP/NM38NIRJSBtb5A358u2eirXrhi/YovVPsSP0sy04w71Chds8tmzy6dbXmXr3qhut3R0plsC/4O/45H7IaRqx3tfvV51Xf46E8a5S8hAMgvY6v39dD1k4eokhkHUWYc9824649uH+f1B/Fx/8cWrULOGTPkIy3vNfHc94HnvjSmhwn2F8RieRhu5u+4JKf6La98wFfjM/arldZuWlteWb79kQzHLReXFZdXls8uKy4uLf60u7C8slzVuyQqr3xA3e5MHmVSMbey/KuvrFA55uShk+QYAFOBKceYOhTCElEmqeq7ZtbdNbN0hjlAvPPRB/s/vG1ml/tm3PXE3Z/63IxbvVveEx91fjja/FHccrPr/vj3q/79sNP5cbrlCb9394n/7m7tsGsxmTh9gXf7Au+ePPTa7LLZvuqFxjWYfDW+Ddu+ndZscr4a39JVS766fsW4U9cYFbpz9tpNi2Xa5CcAmDTkmMwwr4y1+rsdj999b2KOSXTfjLt23FOocowQ4j5xl3x64oM3/Yf31j0czSDHCCE893246T/88zf+ONXpZyaI7Onyp0s2qvkPhBDfeGpt6qHksW0bdr/y/Dc2WT/l7Xb/YGj8j+71FB6TOl+N77vPPZXDDQJAusgxGSPKWKi+a2b9XY4UH/z0PU6nmJHKRtb98e+XVWcywb/RnzwcqXjQur5nkjXufdnffqtLSqG7cHZqHdO+sWmtcbnKkejI3x0787Odh/7qyR//6eKN9f/mj3c88v3r/dfH3U6Ku7NxPXT95KGT6p9rN621n7UPACYOOSYbNDBZWHpXQYqPXDSj4L7kcbDu7pnGZqbsc4y07o8ju/ZMVId24/hnlVSSud4/qB79QGV5X+Bdu0cLIYRY+9Qno6nT7Wl7PfRJxCmvLDeu150u4zfF2k1r5R9/9MIPvvfV/8TXB4BJRo7JElHGQkkK7UrS5+5KuqaSEMIpZtw3Y8Z7H38shPCW3Uyrn6+N+0snaoKZ2WXFu1+5NTh5JDLSMP9b9o83thANhsavSimvLFc9bDpaOtPtaWuMStWrlyYbjF3oKixfODZmO3jd8hvhTNNZ+feje16uXl0tS1XoLnxm/9MZd2EGgAyQY7JHA5MFywajzB75RxNwhJ3Oj3K+Tel6aFDNjVvoLrRvcJldNts4mimVziuF7k+iT7IJaWaXzU62X3+7XxXPV+NLtj5U9eqlu195Xv5XfXv33kQj0ZHtj3zfuFk6zQCYNOSYnCDKWJD1KEnvFZkkifB7OasAuxqamatNJfqVofvI1v1/niwuzC6b/cMj31e1Mn2BvlQ+fsaamy8kySvGFiiTkeiIsXg/euEHiR2HZ5fNNq7BZjP9jHI9dP3oTz6pH1q7ae3SVeMEIADIHjkmV4gyFjo/tmvBufjRBxlsMxa7q+edVLsS22ttT2MAc7pOHnpNVVHMLpv9Xy8c2brvz301vlsLTLoKfTW+x7Zt+Nu/+xvViCOE+FVqMzgZa318NT5Tail0FX73uU3GpQnsi1e+sPxv/+5vjJ17fDU+41qVZ46dSfF74eThk8YuwM/sf3oilgQHAIUck0P0lbFw7sObS2cU3GfVY+Y3H918++NMoowQ4mf/z30//uG1zEZiK0Pv3XP6N7Oy2YK9kejIz/7ikHFZohXrV6xYv8LmKUd/0pi4fnUyvzp0UtWafPcvN63d9PW+wLsj0fflogQyMPnb/YmrL6ni7X16/49e+IH85+yy2btfeX4kOiJX8zZW0lwPXT+azlQ3R/e87KvxyQlmCt2FP3rhB/9x5Z+n/nQASJ2v2keOySFqZSzExMf7P4j9LiGy/Oajm698eCPjzYbfu+eHP54zlEVLU/dv7524sUvKmaazf/XkX6cyuYvMPWn13m3c87Ix98wum129eumKhhW+6lsVPz/7i0PXbT/SnS2df/XkXxvXuy50FRaXFptyzI+ffD6tr4aR6MiPn3zeWOVDpxkAE6R84a25y8kxOUGtjLX3xEf7Pog9OOPuz824574ZM0IffdQvPvxdCisS2Au/d8+27/+bqi/+Yf6DN5yfSqPPTewPd731D85cNVGNq7Ol893Au6ZZfY3kfDAnD72WwSdw79P7/yl4/avrV5i2/Ha7v3FPo7/jkrFOKFnx/uNX/3zDtm9Xr15q6i4zEh351c9Onjz8mjHrpOh66LqxRmrtprW9l95lgUkAOXfm2FlZD/2zvzhEjsnejEgkz7PHpuXbFY/luwi3eeLuT9lPQrPvg5HsA1B+zS6bXVxaNLvskyUe+wJ9qUwhMy5f9UK12Yy36ateWOgulCtg56pgAHCHe7nnaL6LkAZqZTCO66Hr10PXs5mPLhm1VmWWG8lJYQAAmqKvDAAA0Bi1MpPEW3rzsfW/N/0xHL77rYvOrn/4VF6KBADANECUmSSFzo/mP5gw+ulBsaxm5NTZWUeb/lU+CgUAgPZoYMq/VcuHH2v4l3yXAgAALRFlpoRVy4crHoyP/zgAAHA7osxUMXHrXQMAMI0RZaYKbxlRBgCAtBFlshIT4yyo9M9jy2iPu15BDpfOBgDgzkGUycrbtqtkv/fxR+99fCvrhN+752r/TJsHd79zby5LBgDAnYEok5V3Pv4gcdVJpfnD23rynjqTdEXr7t/eO2nrKwEAMJ0QZbL14gc33vvYYmHI5g/jnR+PGv/S1lF44r+7Eh859N49h37+RxNVPgAApjX6Z2TrPfHRjz54/9/fNXPpXQWlM+6Offxx/8cfNn8Ut1xF8sTrnxl6r+DL1e97y0adzo/C793z9+2Fp38zKxYjUwIAkAmiTG785qObv/kopSFIbR2FbR2FE10eAADuEFQGAAAAjRFlAACAxogyAABAY0QZAACgMc2ijHOWM99FAABgOit0aXap1SzKaHd8AQDQi6ekKN9FSI9mUeb+ivvzXQQAAKazohJPvouQHs2izPzF8/NdBAAApjPtag00izKfnf/ZfBcBAIDpbMHiBfkuQno0izILFs+n5y8AABOkqKRogW4NIJpFGSHEmu+szncRAACYnrTLMULLKPPEmnwXAQCA6emb3/tmvouQNv2iTKHLueYJKmYAAMixf7fuy9oNXxI6RhkhxDe/9016zAAAkENFJUU6VskITaNMocv5iJ6HGwCAqemb3/sTHatkhKZRRgix5juraWYCACAn1nxn9b9b9+V8lyJDukYZIcQT339cx47WAABMKZ+df/8TOx7Pdykyp3GUEUI889NntJuUEACAqWPB4vk/evGH+S5FVmZEIpF8lyFbLz7/0q9fbMl3KQAA0Mya76zWuj5Gmg5RRgjxP078/as//eXQwFC+CwIAgAacs5yP/MdvTo9ep9MkygghhgbCr/701f9x4u/zXRD8/+zde3TU1f3v/z0zTGYmyczkIgnmVvwCEWjS0mPCpbFWBaGiVsMPq6zVCupqqxS/Pzl8z2pre+qyv9a26/w4+Gv5qq3LC7bri1aOlG+9FAT0qyBIQotNBORSbTKJJDBJZkIyMxky+f3xgQ+fzC1zzWRPno/lciVhLnuGkM8r7/3eewMAJrSbV39tZRZta5I9UUahBJqjh45RoQEAQCvXmrt89c03r/5a1oQYRbZFGdXRQ8eOHjr6z2P/PNtx7mzH2cH+wUyPCACAcZVrzc2z5X5u9ufmzJ8zfc70bF32m7VRBgAATAZyL8YGAACTHFEGAABIjCgDAAAkRpQBAAASI8oAAACJEWUAAIDEiDIAAEBiRBkAACAxogwAAJAYUQYAAEiMKAMAACRGlAEAABIjygAAAIkRZQAAgMSIMgAAQGJEGQAAIDGiDAAAkBhRBgAASIwoAwAAJEaUAQAAEiPKAAAAiRFlAACAxIgyAABAYkQZAAAgMaIMAACQGFEGAABIjCgDAAAkRpQBAAASI8oAAACJTcn0ANKlqWP4uDPQ1Dn88bnh/iHR7xvJ9IgAABhXVpOuPF93pU0/u1hfX2aoLzdkekRpoXO5XJkeQyr1+0Z+/3f/H1r8ZBcAALTKrPr6MsOD9TnlVl2mx5JK2RNl+n0jTzYN/aHFn+mBAAAwod1+tTGbAk2WRJnf/93/VPMQlRgAAGJRZtU/WJ9zx9XZ0GeSDVHmV/t8FGMAAIjXN79g/H6DKdOjSJbcUabfN/Kvf/E2dw5neiAAAEhpdrH+udstVpPEk01yL8a+b4eHHAMAQMKOOwP/91+8mR5FUiSOMr/a5zvuDGR6FAAAyK2pc/hX+32ZHkXiZI0yfzrupz8GAICU+MPf/b//u6xXVSmjTEd/4KnmoUyPAgCA7CHvQmApo8xTTUOd/VK+3QAATEz9vpEn5SwTyBdlOvoDOz6+kOlRAACQbf7wdyn3ypcvyjzVJGVmBABg4vuDhB0z8kWZJlZfAwCQHr+XcEmNZFGmqWOYLhkAANKk3zciXclAtigj2/sLAIBcjp+TbM82yaLMx7K9vwAAyEW6bfQlizId/UQZAADSiKpMenWep1EGAIA06h+S7FIrWZSRcb07AAASke5SK1mUAQAA0CLKAAAAiRFlAACAxIgyAABAYlMyPYCsYjPp5pbmzC0xzi0xfr5kis2sr7Ab1D91uIYdrmG3N/BRt/9g+9DRriG3bK1VAABMNESZFLCZdCtr85bNMs8tNdpMukg3q7AblGSztNqsfOVg29ArrYMH23wOl2T7EQEAMEEQZZKysMq0dKbpzi/kRUkwUe+es7AqRwjxSsvgE/v7CTQAAMSLKJOgCrvh0cX2pbPMKXm0O2tz76zNJdAAABAv2n4TcX9d/pv3lqQqx6jurM3d/0Dp+mutqX1YAACyGFEmPhV2w8urrvjJYltiM0qxeLjBuv+BUm2/MAAAiIQoE4e5pcaXV12hdLeklRKY5pYw/QcAwBiIMrFaWZv78qorxq1YUmE3vHlvycpay/g8HQAAkuL3/pisrM3duLxg/J934/JCIcS2Fs/4PzUAAFKgKjO2uaXGRxfbM/Xsj95oZ6YJAIBIiDJjqLAbnmksSl+T75hsZv0zK4rpAgaAbLKyNndlbW6mR5El+HV/DI8utmc8RlTYDRuXF9y11TleT3f5u8LtHY73dAWbSWczX37HEngEAMhuatNCpd2waV9/pocjPaJMNCtrc1O+eUxiFlaZ7qvLe655IN1PVGE37H+gRP3U7Q00PN0VVxZ5dLFd+6vGpn39T+znHyoAaIxc/KH6cINVCEGaSRITTBFV2A3rGybQbnXrG6zjP89lM+sXVpliv32F3UDJFACi29bq2bTPrXz8cIOVnVGTRJSJ6M7a3IxPLWnZzPr76vLH/3nvr8uL/cZx5R4AmLSe2H+eNJMqRJnwbGb9ypoJV124vy7BcyuTsbDKFPuugBOqjgUAExlpJlWIMuEtnWWeUCUZhc2sz8j0zdKZMTUMLawyTcA3DQAmLNJMShBlwrtz4pVkFMsy0YZ8Z21uLNWgO2vYmxgA4kOaSR4rmMKosBuSP2hpW8vAgfYhZbveuLh9gV0nvEurLWHTw8Iqk82kG+flzUo1KPr6qcQafhdWmZbONC2qMtnMeiGEwzXc7rqwrdVzsM0X430/X5qjlILc3oDDNbzzlPdgm8/hGo5yR5tJt7I2b1FlztxSo/IVh2v4o66h5w4PRL+j+rwra3I/XzJFHXP0+84tNd53zcUmp22tg8pLW1hluv+aPGUAbm/go25/7K9afXb1JW9rGVT/KOiJIr38uSXGRVU5yrO7fSM7T3p3nfREegnaR35iv9vhGq6wG+67Jm9Z9cXwetfWc7G8dQDCemL/eSHE+mttgjVNCSHKhDG3JNkcs+ukd8MbLiFEhc2gfHfG6JWWwW2tgxuXF0apgiydZdnWOpjkCGOx66RXSU5CiGWzzNGjjLa16JWWwTvHijUVdsPG5YVBkbHCblgocu6szXW4hqNcHcPeV9gNc0uNS6vNDtfwpv39ytU91PprrffV5Qe9vUp4vb8+/9nm8z/d44405oVVpo3LC4Im0dT7vtIy+MT+/tAx20z6Oy+dpXWwzWcz6Z5ZUTxq8HbD3FLjnbW5r7QM/nSPK1JODfOqL73khZU5//ZGX4XNoH2isA+ydJZ54y2jv7vsBiHEwqqcRxfbntjfH/YHqPaRt7UMVNgNz6wozuC+kUD2Ic0kgwmmMJIsyRztGtrweq/ysbZyGN2BNt9d/3Huif39G5cXRu84GbdzDFzewLNN55WPx2z+VbOLw3XhYNtQ9EdWjv6O8oAVdsOba6aGfaWx3Hfj8oL7wi282nhLwcNR17TfX5cf6bCtlbW5L6+Ktu3ynbEdOBqcY0Y/wjMrisL+UfRXfWdt7k8Wj52Y119rfWZFtK2rH26wvrnmiugZRUlU5Bgg5ZhpShhVmTA+X2JM+L5Hu4bu2urU/mKtzdqR7vLYHvfB9iGbSRfLtXA8W2ufOzyg/nNaWZMbKaOs1Cxc37SvX4gxroXal+n2BZ5tOn+0+4LbG5hbary/Lk/Zbthm1r+86oqbXzgbVOdY32BV7+twXXi2eeBg25DbG6iwG+7UbAS+vsG6rWVQ+xexsjZXWzratM99sG1ImStZWJVzf/3FiLOyNvdA+1BQUUepx6ifHmjz7TrpdbiG3d7AnbW5C6tylDGPuS/z/XUXJ5WURxBCfL7EqN5dXIqMoe9z0DeGcne3N2Az65fOMi+qMt1flx99fmplbe7DmvVlB9p821oGHa5hm1m/bJZZfd/mluY8fK01Smlq/bUX3/+Puv1Hu/zKq3Z7A1GeGkCMqM0khigTRsJZweG68O3tvaETBJHSjNsX2LTP/VzzoBBCyTFq90YUny9Ndv4rdm5v4GCbT9ktZtks808jtOlou6QPtg8trIy2u4w2i2xrGXhsj1t9zIPtQ881DzzckK+8Vzaz/uEG67+90afeV9uR43BduGurUw06DvfwwfahdtcF9b731eVrNxq+X7Mrz13/ce5g+5D2jttaPW/eW6KkmTtrLEFRRptjNu1zK3+h6pgr7IZnVhTNLTEKpa2kNjfS9NbcUqPyTaKEAPVFvbyqWE0z6xusd7WNCkMrR29xtOH13m2tlw9LV9+xKJv6BO33GPQIu056N+3vV8dwf13+rpPeSLG1wj7F4bqw4fU+9Q0EkEKkmQQwwRRGYlEm6MoaJGimSQkxDU91KTlGCLHxlsJYcowQYpxr+5supYFIe/Rpu6RfaRmM3v4ZlEU2vBGmNeSJ/efVAkPQ4int+VA7T3hDn+uJ/ee3tQw+23R+w+u9StlDpU5XOVzDoZdhh2v4iX3uV1oGH9vjCvrBMbrmNCrHqPf99qs96guJvpLrsT0ubY5R7r5BE9fmhhQFtSnksT192hSieGL/+WejdjLdX5evvoSwj+BwDX97e2/YZwx111YnOQZIn6CZprDT5dAiyqRG9ByjUK83zzadb3iq64n959WL38ZbCmI/7ElZODNuDrYNXb5Ih2vm1V72IlUjVEtnXb7Mb3i9L9LNNmmqKdq7aH0+QvLb8EbfT/e6t7V6jnaPSgzqq7CZdGHj4LPNA//2i2BbhAAAIABJREFURt9zzQNB12m15uT2BkJDgMLhGn7l0muPsr/OR11Du06GmQZSprouDs+s1959bolRO6GmZt8gT+zvj7KuTf3uivIIR7v8aoIMjVOqnSciLnQCkCoO9+VJ2wob+3WNgSiTArHkGMVP97ganu766V639qrz6GL7BNxZWEtt/g27TF2d1/ioa2jMX9bVfXHc3kCUGx/tvqB+rG3+1aaThVUmtW8jFke7Lj6dzax/ZkVR7HdUX/KBqMu8tTMykVqzta8rSJS13OrHByL3U7u9AfUFBj+CJgztPOENe5uLf3opZtnM+kgvgXoMkG7qudlC+fXjcNoPEpYdvTJhuH0jsU/iuH2BoBxjM+mUpblhL07BTazXSlA81Db/BnVyaCdfYjm4WxsgHo7tlAPtXdzewLaWQXWK6uEG68MN1oNtQwfafAfbh452DUWpTDzbPKCmroVVpv0PlB7t8l+8Y7c/YpLQ1CfsZn2UMVdqxllhnyJEmOpLAvUM7S9ku06GrwkpPuq+ELZdRlvGq7QborwEbaGrwm4IG7zc3nHd0wiYbIJyTIy/J09yRJkw3N6AzRTTr+yhOeb+uvyHr7XaTLqVNblj7hu2/lprjJdzrfH/ttY2/wbt0adOvjhcF4J6U8JSc4nNrI9xqWHQhNpje91zS43ahLGwKkctnBzt8j97eCDsLnm7Tno37XNrm6/nlhrnlhrvr1fGP3ygzRe6MYz22RdWmWI8L9NmSlm9c3SSixYjIm7DowlDS6stS6tjet4Y/wkASCFyTGKYYAojqMciig2vX16Kovyi/5PFNqWiU2E3PNMYbfuNxHKMEKLdFXGSIn20zStq8692vulAW7SKSAq5vYGbnz+7aZ/bEe59mFtq3Li84OVVVyydFSZzPLH//IbXez8K9/errOXe/0ApezkAyAhyTMKoyoTRHtt3z4bXe5UWzoVVpvUN1tAmkrmlOS+vKg7aZkaRcI4RQgStfxkfB9uGjnb7lVrI/XV5yiJnbcOvdtlzFOrkndsbeGyPK7a7hNmz5In955/Yf35hZc7cUuPCKtOiqhxtIUTZjvauredCVxRva/Vsa/VU2A0LK3MWVZnmlBqDthF6uMFqNenCbqyi7MUSy5iPnk1Z3NR+81TYp4jIrSqxzIq+0hLxQIMg9MQA44kckwyiTBixZAVlRWv4HfQ15pbmPLrYrl1qK0I2K4vXwfaYLkUpt/OEV4kyNrN+YVXO0e4LSy8dwRO9H1ZLO3kXaTVQ7A62Dylb0Qgh5pYY55ZMWX+tNcoGLSqHa3iby6MMwGbSLZ1l1t7x/rr8J/ZdXBCkrf04XMPJjzle2jc2+kbPkZZ0aauMGXkJAKIjxySJCaYwdp0ao+dj0z73thbPo4vt+x8oHfOUA+33aOinCYiyCiatnjs8oFYI1jdYl84yq2WAGGsVQogDbZfXyKR22+Kj3f5trR7tTrvqAVLRuX0j21o9N79wTnvJV1eAO1zD6qteFFujTGod7b5cHYlyslWF3RCpj8fhvvwzcVHS56QCSC1yTPKIMmEoXa6R/vTZ5vM6nW7/g9NiX3m0sjZX6cCYW2p8dLE9mbHFXv9IObc3oN06RX0hDteF2H/R1874RFmCXmE33FeXH5pFKuxT5pYYo5S1HK7hUavJLjXt2kw69Y5h843bG4i0UFl91dGPTF9YlRN2zEnS7utjM+sjfdcF7SWopf1+jrLnjRBiZW3u0lnmGFubASSPHJMSTDCFt/OkL+wPdLc3cGdtXgLXKuUKujKh+2rFXv9Ih10nPfdfupSqLyTKZidhHuGUV22XWX+t9WC7L+wG+esbrOqKa+0u+xuX29W/l7D3rbAbtJdq9YfCytq8Ry8duGgzh2+F0RZdtPNK2le9cXlh2IVpylSj+tS1T3yWwiboZ5vOq83ISoIMWvc+ZuvVKy2D6vv2TGNh2P6tCrvh0cV2tZOp9v87k6rxAwiLHJMqVGXC29Y6GPZSZDPrE84i99XlJ5ljYlzwnD4H24ZC61UxNvwq3N7AE5oDHF5edcV9dXmjjyYwPLOiSHu4gbbk84omyW1cXhi0RfLcUuMzjUVhb7yt9fLH99flBy1Tspl0jy62qxUXh+uCtun1YNuQ+rYrZ2GuHD3Rs7DKpD3u8ZWW8N88CXvu8IA2Wj262P7mmqk/udH2cIP1Jzfa3ry3RMkxByKXEre1ei7v5Fua8+a9JUFJXXkJ6l/EKxlNzMBkQI5JIaoy4bm9Ae2vwhNEyq+RCQiqVyUw4fVs84Ay16N8+uhi+6OL7Ue7/G7fSFBNRQgRtMppW6vn/vp8pftYCT3KjJJyMrZ2Y1yH64I2Y7m9gWebB9TiysMN1vvq8pX+bptJV1EwRRunQg9v2/BG35trrtAef62MWQgxt9SovW/Q86aE2xu4a6tTe+SksiOO9jab9rmF0EXp5tnwRp/6CMoBlm7fyNEuf+jLT8dLAKC1sMpEjkkhqjIRabtcJ4K4WlLSJ6heldiE14Y3+rSHawoh5pYaF1bljNoOzhdQl7trffvVHm2JQulfWVptDsox397eG/Sj4ad7XNozF20mnbK3XlAWCXvaohImtH3B6t2DQkCafiQ5XMN3bXVGerefbTofeshl2EfQvnXKSwh6+Ue7hsJOPwFIIXWTT3JMSlCViUiZCvlJcl26KbRpX/BGtBmhNP8q5Y1k0tUT+8/vOun7yWJbaCHB7Qu88vfB5w4PRDr5oeHp7pU1Fu3yae19n206/1xz+Bj60z2uo11DK2tzwz7pzhPe0N1+tc978/NnV9ZY7qvP/3zIaYvRnzcllAO0N+3vXzrLrByr5HANO1wXdp3yxbjVUPS37qOuoeeaByZCXAay3rbWwc+XTLGa9T/d45oIP9hlp3O5YtqmbIKofWqMXz1T7uVVxRNhQceuk95vv9qT6VGkhbK2SK3HHO2+EPtuy8od1aLCwbYh7cLjuJ7U4boQewqpsBsqbBfnwpRpmhifN60ebrCqU6IbXu/TtgeF0r51E+clAJggWh7Mz/QQ4kBVZgzaDoNMcbguxLgxrozcvpGD7UOiPZH7Hu32x557UvWkQl3ynejd06Ry1NKtMTYfSvitA4CJhl6ZMThcw9/e3pvB1gG3LxDa9oHJZmGV6ZkVRc80Fka6gc2k05YPKbEAmDyIMmM72uV/bE/f2LdLj8d2uzJy6BImjkcX219eVbx0lnlpteWZxsLQPe5sJt2jS+zq1zO4jyIAjD8mmGKyrcUjhNi4POLvxOng9gUe2+2iDROvtA6qm/wurbbMLc050OY72D7k9gZsZv3cqVPu/MKovXl+mr3TkQAQirbfOMwtNT7TWDg+fTPKcmLqMVCsrLXEmKQf29P3XDMb3AFIilxtv0wwxeFol197WmH6HGjz3bXVSY6BaluLp+Hprij7+Qrl2+Y/zpFjAEw2TDDFJ90tCG5fYNM+N1cjhHK4hu/e6qywG5QTH9UZJYdr+Gi3/2DbECuSAExORJkJZNdJ72Nsl4SoHK7h55oHgo6TBIDJjCiTecrmtrtOerVHGAIAgFgQZTLG7Qt81OXfddK7bQIcEgkAgKSIMqnhcF3YtK9/10nv3BLjwiqTckRfpd2gXe7kcF1w+UaOdvmPdvuV/5NgAABIElEmWUHnCB5sH2KeCACAcUOUScqmfe60HoYMAACiI8okiNVGAABMBESZuB1o8z2xr59ZJAAAJgKiTNzuHpcNfwEAQCw4uAAAAEiMKAMAACQmWZSxXjp3BgAApIN0l1rZokxOpkcAAEBWK7cSZdJpdrEh00MAACCblVklywaSDbeunCgDAEAaXV0sWTaQbLizr5BswAAAyKVetqqBZMmgvswgXTsSAACyKLfq68uIMmn2zVpjpocAAEB2qpMtxwgZo8y3vkCUAQAgLdbWy7dUWL4oYzXpKMwAAJByt19tLJNtJbaQMcoIIdbW59AxAwBACpVb9TKWZISkUcZq0q2tk/LtBgBgYnqwPkfGkoyQNMoIIb75BSPTTAAApMQ3v2C8/eopmR5FgmSNMkKI719rkrHRGgCACWV2sf77DaZMjyJxEkcZIcSvv2aeLdumhAAATBz1ZYbnbrdkehRJkTsHWE26V76Ry0wTAAAJ+OYXjM/dbpF9JY3O5XJlegwpsOO4/6nmoY7+kUwPBAAACVhNurX1OdlRC8iSKCOE6OwPPNk0tOPjC5keCAAAE9o3v2BcW5c925pkT5RRKIGmuXOYCg0AAFpWk+5bXzB+s9aYNSFGkW1RRtXUOdzUMfyxM9DpDnScH+n3kWwAAJOL1aSz5ojZVxjqygyzr5DvnMgYZW2UAQAAk4HcK5gAAMAkR5QBAAASI8oAAACJEWUAAIDEiDIAAEBiRBkAACAxogwAAJAYUQYAAEiMKAMAACRGlAEAABIjygAAAIkRZQAAgMSIMgAAQGJEGQAAIDGiDAAAkBhRBgAASIwoAwAAJEaUAQAAEiPKAAAAiRFlAACAxIgyAABAYkQZAAAgMaIMAACQGFEGAABIjCgDAAAkRpQBAAASI8oAAACJEWUAAIDEiDIAAEBiUzI9gHQ57D19YqjjsO8fH/s7zw97+ke8mR4RAADjyqozX2ksKjMUVueUXWOecY1pRqZHlBY6l8uV6TGkUn/As9X93tb+98guAABolRkKrzHP+I79piunFGV6LKmUPVGmP+D5Xd+uref3ZXogAABMaLfl1WVToMmSKLPV/d7vXLuoxAAAEIsyQ+F37Dfdml+f6YGkQDZEmY09OyjGAAAQr1XWr2wo/HqmR5EsuaNMf8Dzb2dfOOz7R6YHAgCAlKpzyn5b8oBVb8n0QBIn92Ls73Y9TY4BACBhJ4Y6/+3clkyPIikSR5mNPTtO+DszPQoAAOR22Ht6Y+9/ZnoUiZM1yvz5fBP9MQAApMTW/ve2ut/L9CgSJGWU6bzQ8zvXW5keBQAA2eN37rf6A55MjyIRUkaZ37ne+my4N9OjAAAge/QHPJKWCeSLMp0Xel4baM70KAAAyDZb+9+TsTAjX5SRNDMCADDxbe2Xrw9Vvihz2Hs600MAACA7be2Xr/lXsihz2HuaLhkAANKkP+A57JOsZCBblJHt/QUAQC4nhiTbs02yKCPd+wsAgFwOeyXbRl+yKNN5oSfTQwAAIJud8HdkegjxkSzKfHahL9NDAAAgm/UHvJkeQnwkizL9I/KtdwcAQCLSbS0zJdMDyHJWfa7NcPHkdPewpz8wmNnxAACQZYgyKTY/r3qOuWK2qWJ+XrXNYLHqc4NucMzr6PCfaxo8eczTfmjwZEYGCQBA1iDKpMb8vOrF+V9cUbgwNLsEmWOumGOuWGKdJ4ToDwzudn+4ve8AmQYAgMQQZZLVWLCosWDh/NzqBO5r1ec2FixqLFjU4XduPvv69r4DKR8eAADZTedyuTI9hjjUtf2PTA/hsvl51eum3pJYiAmLQAMAmAiaq/5XpocQB6oyibDqcx8queWeohuj3KbD7zzubXcM9aitvlZ9bkVOUbnxitnmirB3KTcW/6Lsnvm5szaffb3D70z9uAEAyDpEmbjNMVdsrnyg3Fgc+kf9w4Ov9h3c03/kmLcjymIlqz53jqWi0b5wfm51eU7w4zQWLJqfV/29tqeP+xwpHjoAAFmHCab4NNoXPXLlytDe3kMDJ7b07D00cDLe5daN9oXrpt4aGmiEEI+feeXFnr2JjxUAgIQwwZS11k29dd3UW4K+2DHkfPzMK3vOf5jYY253HdzuOhg20Dwy7U6b3rL53OsJDhcAgEmAKBOrsDlmi3Pv5rOvJ7/xnRJoQp9iXcmtQgjSDAAAkUh2cEGmLLbOCwoZ/cODP+x48Rddr6RwA9/NZ19b1/50//CoB1xXcmujfVGqngIAgCxDlBlbubH4l+Xf0n6lY8h5zz83bXelftX07v4P7/jH4x1Do5Yv/XDaytmm8IueAACY5IgyY3tx+nptn6+SY45507W8qMPvvOefm7RpxmbI/feqB8bcRxgAgEmIKDOGdVNvDVp3vc7xdLo3fenwO9c5Rs00lRuL101dntYnBQBARkSZaMqNxUEtMo9/9kr66jFax7yOx89s035ldfHi+bmzxuGpAQDptqJw0YpC+iBTgxVM0QTlmO19B17sDbPRi1Wfu8T2BSGEe9izpz/BVdmhtrsOzLFUaPcUXjf11nv+uSlVjx/Easi16y3qp46olSftjV0BT1CrcpAKTVlLvXFcj5BNwr4bACaVFYWLflm+RghRbrziN91/zvRwpEeUiajcWNxYcDkydww5N58Nsyi63Fj84vT16iTU5u7XUrh2evPZ1xvtC62Gi10y8/Oq5+fOStMx2joh9l79uPrpNcfWR7nK/ujKb6y49OZ0DDlvOPFIlEf+/b9sUN+fb36y8dDACSHEXHPF76/aoHzxN91//k33a0mOXwpzLJU7ZvxY/XTMtw5AVhoZufjBQyW3CiFIM0ligimi0JJMaIuMVZ+rzTFCiHuKb0xhf657eHBLz9ujR3Vrqh489Lk+GDihfhp9MmtB3uVDNMtzitWwFao8p1j7/hzSPEXG3WSbp9R4x63Mu7p4sfbT8pzi+XkpO44UgCy29x349aX48lDJrQ+V3JbZ8ciOKBNemJJMuFrL6uIbg5qCbYbcxoKFKRzJiz17tdWR+XnV6VvKdGjgY/XjBflXR7rZHEtl0Ku+yfrFSDfWhp4PNI8/EawuXvzL8jXKf+PzjAtCgssS27zxeWoAE8rm7tdIM6lClAkv6HflQ4PhawlhU8uSyNf1BIQWZlIblbRGV2UiVgvmhJzsHaW0MD/vciTa7T6SxOiktyCvOvQU0hUF9P0BkxRpJlWIMuEFxYWwXTLzw12ZxKWOlhQOJuhQydRGJa1DAyfUCtBcS2WkaaPQQsKCvIglnNFVmQk0uzT+Ggu/rH7suLRvkM2QyxwTMGmRZlKCKBOetiZxzNsediOZcmNRpLs3pvRXbffwoLYslNY5pg8Gx26XWRBSsAlqiAn7dceQ8/i4rGOfmGyGXLUA4xhy/qDjBfWPKMwAkxlpJnmsYAoj6LfkBNZXL0514WSP+0NtuppjLk/TOqZD5z9eYr1YdFmQf3Xoa5+jqdZ8MHBCLbossX1xizN4pbq2JHMohkaZBXnVKwoWzc+/WgjhHvZ0DJ3b3X/k1d6xD4hYkFe92DZvQd7VNoNFe98PBk4EnQIhhFhRuEhJY9qjyH9Vvlr9+GdnXgldvaU8xVxzpXKv6E8Raont8rfEoYGPlQKY8k4usc2zhntGzX3nqd1Iv+5+TQnWKwoXLbHOm2OpFEJ0DDkd/nO/6X4t0kjmmCvWXOo4fqv/Q2Wmb0Fe9erixcojuIc9x7xtu90fTvJJQCAjNne/JoT415LbBGuaEkKUCWPO6AOPIi266fD3RHqEFO4uozjmG1XPmG2uTFOUeav/w0euvEv5+CbrvMc/+2PQDRZoSjW/6f7z3KoHlevxHHNl6KNpG2XeGusa+cuKNdr6RLlRzDFXLLHNe6jktm9+sjHSRXpBXvVDJbcFpU/1vh1+52+6/xwUhubnVTcWfHn0w4ya/fl192ujtlrOKf5V+Zq4niLUCs0zvtp3QPm/sqDJZsi9yfpF5YthzTFXqMP7P30HhE48WbVW27FUbiyeL6pXFHz51b73f/5ZmFRkM+Sqj+DwO3e7j4R9t1cUfLnD74zybgNIE9JMMphgCkP7y7oQ4pi3I+zNjnsdYX+T7hhyBm3Um7ygqZnQxttU6RhyqrNpYVdZL7F9SfnAMeQ8NHDi6KWBhV2JM6oqEzV7/ejKuyLNs5Qbi/9w1YawjTsrChb9/qoNUXpNyo3Fvyxfs7r4xkg3GFN5TvEfkn4K7aJr5X0To7OdNkiNKSjHaK0o+PLvI7xXWg+V3Bb93Q76JwBgHDDTlDCqMmHM1lwn3MOD/YHwlX/38OAxnyNopY9y2GSkuyTMPTzY4XeqfSdhG1NSZbf7iLr9SWi1QL0kKxNGe9x/U/KKzZA721yhjVzaRpkPBj6OMoEyP+9q5UE+GPj40MAJ9/BgufGKJbZ5FTmXX++a4huDttErzyn+Udk31E8dQ84tzt3KsRI2Q+4S6zx1t5iHSm57te+gOoBXew8oDcj/WnKbOsLva5pX3AGP+vGPpn1D2+6zxbn70MAJ97CnPKd4RcGXIz1FEG2k291/5NIbeEL9O12QV2015May8+9DJbcpOeaDgY93u4+4Ax6b3rK6eIn6Xs01VzxUcmtoOU2lfbfVR1iQd7UaRpU08/VTP2MnYmCcUZtJDFFmDP2aq1qozWdff/Fzo6OM35mmwya1I7EaLFFumaS3NFFmtqVSaKKM9pKsFBW0E1IL8qq1UWZ0o0y0tUsL8qqVTljtzTaffe3fqx5UH2R18eKgKPNQyW1q+/P/6TvweOcftQlS6flQoobNkKtNQocGTogBIYT4vwq+rMaU7eFmiMpzitULvGPI+a1PNqp/uR1+56GBEw7/OeWHTtBTBFlTvET9+NXe97Ufq794rShYGNpsFGpBXrV7eHBt21Pa92qLc++6klv/9dJDrSlevNt9JNJ7rrylv+7+82bNaLc49y6xzftV+WqlohM2OwIYB6SZBDDBFIa25hG9aeDQwImgLWdSvhJb5db8imwbawYhGdqJs5uso6aNtPMsSmrRTkipc0+Xbny5UWbMZdi/6f5z0KXXPTz4vban1JHYDLlBtahXe9//+Wcv73Yf+WDg46Aco9ji3KN+PDuhKTnteUnb+94PDambu1/b7T7ywrk93+94IVK7THlOsfrsRz3t2rSnfVuC3r0ofh3yXikj0b7e6KXpV3vf3xwSU3a7j/xa88WgjYkBjJugmaZkpsgnCaJMsn7Y8WJQHf4X5avTt1h6HLiHB9UOmKB2GXX/mA8GPlav6+qal6AGDrWg4h4ejF6VcQw5t4drenUPD77Vf7mhJKiB49DAiS3OvWvbnvrWJ/877IzeMW/75fsar4gygFjMDtfXLIRY2/bU42f+uL03zLkWijWaTLC9733tHx0aOKGmmQV51bFsMOMYcr4YoXijLaLMMVdE6ZiJVG7Z4tyjzY5seANkSqfmt+jynGR/fGU9okwY2qmcMfsfO/zBx0yWG4v/vfK7aRnZeNnj/pv6sboMWHtt00YTtX1Ve4OgRpnoT3fM2xbpj7RVsYo4O4S0M1z2hOpYxzQVlJts8x4quS2BflhtQ/Rud/DStlGHRcQQHXb3R1wIpj1Fy2bIjbTvkTaGhtK2RqWvuxxAFCsKFv2y4uJpKo4h55Zze6LfHkSZMNxxdjtu6dm7PaQ39oelK1M6qDimvZL3gWa10WzLxWpEpH17tRNS6m1GNbqGXL+D9A9Ha0iK0RxzxYrCRWuuuPFX5aufrHrw7asfV0/eTph7eFC7z8pDJbe+Xf34H67a8FDJrUqj7piPoD2sIGyG0EaHWOZ0PjgfLRce1xSi5kYoIx2LulHhqFIWvwsC4y4ox2hb9BAJbb9hdAw5xaWLVLmx2KrPHXNF0i+6ts3Prdb+yr66eHH/sCfsIZSXbnDjBwMnYt8AVxtl4g1b8TrmaVc3cFN3l5kfYcJImZBSssv8vKuFeE2MbpRJ62nYyr4ycywVaZrU+0HHlj+ZKys0f7PzNTNBhwZOvNr3fpRd8rSrrI9depeCqOuYlLJW9Lcreh96x9C5KH968RGifvNoX4hNn8bucgChyDGJIcqEEfStU24sOu4bIzq4hwfv+eemFz+3Xptm1pXcOj+v+oedL4Z+L66beuu6qbcIIQ4NnNh89rUx97sL2oAuyu58qfJW/xFlVzelXaZ/eFDbKBN0Y3VJtrqoWL1mH/WEP/YheVZD7lNVD0bq51DyVvLnTruHB2888ci6kltXFHy5ImR2SYk1HX7nzz77455wewBqs8ua4sVrxqq7LLHNS2vyAzBhkWMSxgRTGEHfPTE2P3b4nescTwf9yjs/r/rF6euDjmRaXXSjkmMu3eC/75n1s+jHNgUtwDk0OPYhAEnSXlBvsn5RuwwndMJIOyE1x1yhbZSJdKh48n505Te0fzXHvO3KSqK1bU/d8PEjdcfWr217KlXPtbn7tRtPPPLNTzYqa6aCqmLlxuKwoeom27x4dwBaUbAo+ryVNWqlJJY5r1huA2CckWOSQVUmjEMDo2oksTc/HvM6lNqM9mpRbiz+Rdk966besvns69v7DswxV6wruSXojupt7vl0U9hv36AF3h1Daa/K7HZ/KMovfjzbUqmd1wgtG2gnpJbY5mk7NtJ0po9yWpPyceg+K2lyaOCEsmxKCDHHXDHbXPlQyW1qqeahktu+9clG7e0bC+M+J9JmyJ1jrojyWkIrQ1pzLJerd44IPwejHIMqRn+385MUGB/kmCQRZcJQtrlTf59ebP1iLO0yimNexx3/eDxopklcCiuPTFsphIjU1VFuLJ6fN2t7X7goo/mNv2PIedyX9iOmleUwyvzITdZ56k42kSaM1BOF5udWa7e9SVPC0F5xf/7ZH8M+S1p33znmdRzzOo5723fM/J/KV4J27C3PKV6i2ZXn66f+nyjdzSsKF6k7wYRGIq0lti9F2UlPOxEZ+dSqq6PsLKzd3uaopz3sbQCkEDkmeUwwhac9D9JmyJ1jLo9y4yAdfuc9/9wUtp/Xqs+N3p0a9vKzxPZF7TxF+qZsgqjrhMtzim+6dLBzpGdXw8RcS6V64zGXYSdMW/eK9M9eexh1XA+oqjAWL8irXlG4SNlzM9Qxr0P77No+2dELvj4+7nUoETnsf9p0En1LmAV51ZEWhK8oXKR+n0RpUbIZcm+K8M5oz4oSYx2bBSB55JiUIMqEt3v00dbrpoa/kkXS4Xfe8Y+fB+03E4uwR1feUzRqq8ewu8mlg3bFtZrAIk0YxXXj5GmLCmFnAK2G3LgOYwv7IL+oWPP7qzb8snxN6OHbCm1XkHJOlvo7k2/XAAAgAElEQVRHo47CHuvc7KAtYVYULIxy43+vWhuadcpzirWvV7vzb6hHpn0jNA9ZDbl/0Cxff7X3fc5gAtKKHJMqRJnwDo1eJp3YcQSbz762+OSPYy+ibO87EDqNVW4s1p5Y2THkHLfflQ8NnAi6mEXZt1d7MVaNeV5Bwo5q/nZCd65bkFf9h6s2jNlyq91D5VcVaxbkVVcYi7UPpd0q8FcVa4LKPHPMFU9WrVU/1ea2oPJGUDIOS/tc0Q8xmGuu+M+ZP1azl9WQG/R6I+2erLIZcv9w1Qbtywl9xziACUgrckwK0SsT0fa+Az+cdqf66bqpt97zz03xPkiH33nPp5vm51WvLrphsTXawuA9/UceP7Mt9Ou/KL9H++nms+N6gTk6eiuU6BNGhwY+1t7YMeSMfdeceClb/quHcr9d/fgxr6Nj6Fz/8OBsS5VymXcMOe0GS5TJGu3BmeXGYmVLPffwYN2x9coXX3DubSxsUB6t3Fj8ZNXaDr+zY8jpHh6cY6nUXvgdQ07ttV/dIlkI8Zb7b7GUN17tO/hQyW3KaKMclP2brj+vuWJxubF4x8z/2R8YdA97bAZL0KzlDzSnfIfa4tyz2DqvIqf4yaq1kR7h191/5qcqkD4L8qrJMSlEVSai7a6D2mvJ/LzqoIme2B0aOPG99t8uPvnjX5z5Y+jVvWPI+cOOLd9r/21oSaaxYFFQSWa762BiY0iMtlQgxtq3N6gGcyhtjTKKHzhecGhai+aYK5bY5jUWflnNMd/6ZKM76oZyhwZO/DrkyNmgcyvX/vNJ7bOUG4vn51UvGb3K2jHk/F7bk9qfRKuvuHwU9pibHSu0R18JIdZEOECuw+/82Zk/Kh9b9bnKFo7aB/m+44Xordbu4cHvtT2pfG+HPoIIOTQbQMqpVVVyTEpQlYnIPTy4pedtdQMYIcQS6xdf7Im4eGRMHX7nlp63t/S8XW4snmOusBosQojjXkekjeTLjcXaZxfjXpIRQrzV/+EjV96lfhr9GqlMSKlVkLfS1iij6PA7v/XJxodKblsRsub5g4GPf+DYEstPh83dr3UMObVrqoUQs80V6n07/M4bTzzSWLAo6DYK9/DgC849W87t1cZQbcHGPTwYe2/T9r731bLWioIvR5ri2d57oH/Y88i0bwSNJ/ZXfczr+Pqpn/2yYvUCzabMyiP8pvs19ugD0u3VvoOzzVU2g+Xnn/2RHJM8ncvlyvQY4lDX9j/G8+mW2L64ueIB9dPHz7ySTJSJ1/Z/+dGoTT6GnItP/Xjcnl0iVn3uHEuF2uOy2/VhjCvntdR1Q8c8jkh3n2OuKM+5Qsmg/cOeY2nbyDjIQyW3qi29P3C8oB7bND+v2mbItRos/cOeD86fiPKqF+RVqydS/ab7z2pIUl/ReL4cABNfc9X/yvQQ4kBVJprF+aPaPMfzt9VflN0TtKYmgU6dSaI/MHho4IQYSOpBoh+yqN4mlpuNm+S/ISfaKwKABNArE834b0yneGTanUHnGGzufo3fmAEACEVVJqI55srx35jOqs99ZNrKoByzp/9IlBO2AQCYzIgyEQVtJLO7P71NrEKIcmPx5soHguaVOoacP+j4fbqfGgAASRFlIlpsC2qUOaX9VGk1XZz/xQ6/MyW9wKuLblxXckvQstiOIec9/9yUQBMrAACTBFEmIu2GLocGLi4PmZ9XPT+3en7erDnmCjV2rC6+UTn1OsEnyqv+Rdk9oVvTHvM41jmepkUGAIAoiDLhBR24YzXkbq787oK86rCHQSqnXq+besuLPXt3uz+MMXyUG4sbCxatLr4h7GNu7zvw+Jlt1GMghNjtPuK49E2V2KqlY17H9y9tAXyc864BZBf2lQnvkWl3Jry37zGv47i3/dDgyY6hcx3+HiXZWPW5NoPFarDMMVfMNlXOz6sOe36hEKJ/ePA33a+/2Dt+G9gAAKDFvjLZIOwxyDGaY66YY64IWoUUo0MDJ37Y+SKTSgAAxIgoE0a5sXi2KXzJRHVo4ITSQHNP0eLykP3sE3Bo4MTms6+N26nXAABkB6JMGJFKMse9jg8GTuzpP3LM26F2sWzpeTuWg6+jIMQAAJAwokwY2h1lOvzO3e4Pj/vad7v/HqkJV6nQlBuL5+fOWmL74vzcavVIxUj6hwcPDZ44NHDi1b4P6O0FACBhRJkw5pgrt/cdOO5t393/99jbVjr8zu0u53bXQXHpbMI5pnKrIVdp+FVu0D882OHvOeZ10A0DAEBKEGXCuOMfP0/yEZQj+sbz+EkAACYnjpMEAAASI8oAAACJEWUAAIDEiDIAAEBikkUZq86S6SEAAJDNrHrJLrWSRZl8gznTQwAAIJtdOaUw00OIj2RR5mpjWaaHAABANiszFGV6CPGRLMpcY5qR6SEAAJDNqnOuzPQQ4iNZlKnOoSoDAEAaXWOWrGogWZS5xjyDzl8AANKkbEqRdBMgkkUZIcQq67WZHgIAANnpGtO/ZHoIcZMwyti+kukhAACQnb5jX5rpIcRNvihj1VsozAAAkHK35dVJtxJbyBhlhBDfsS+lYwYAgBQqm1IkY0lGSBplrHrLdwpuyvQoAADIHt+x3yRjSUZIGmWEEKusX2GaCQCAlFhl/cqteXWZHkWCZI0yQogNhbfL2GgNAMCEUp1TvqHw65keReIkjjJCiP936ppqjjIAACBR15hn/LbkgUyPIik6l8uV6TEka2Pvjq39+zI9CgAAJLPK+hWp6zGKbIgyQog/DzT/zvXWZxd6Mj0QAAAkYNVbvmNfmh1dp1kSZYQQnRd6f+fa9dpAc6YHAgDAhLbK+pXv2Jda9eZMDyQ1sifKKJRAc9j3Dyo0AABoWfWWVdavrLJ+JWtCjCLboozqsPf0Yd/pE0OdncO9n13o7Q94Mj0iAADGlVVvydebrzaWXWOeUZ1TJt05kTHK2igDAAAmA7kXYwMAgEmOKAMAACRGlAEAABIjygAAAIkRZQAAgMSIMgAAQGJEGQAAIDGiDAAAkBhRBgAASIwoAwAAJEaUAQAAEiPKAAAAiRFlAACAxIgyAABAYkQZAAAgMaIMAACQGFEGAABIjCgDAAAkRpQBAAASI8oAAACJEWUAAIDEiDIAAEBiRBkAACAxogwAAJAYUQYAAEiMKAMAACRGlAEAABIjygAAAIkRZQAAgMSmZHoA6fJp59AZp//TTn/XOb93aMTrG8n0iAAAGFdmk64g32C3GaYVT5leljO9LCfTI0oLncvlyvQYUsnrGznYMvBByyDZBQAArQKr4XNlxuvr8gushkyPJZWyJ8p4fSPvNJ//oGUw0wMBAGBC++LV5mwKNFkSZQ62DPxX8wCVGAAAYlFgNXy1Lm/e1ZZMDyQFsiHK/GV/P8UYAADiteALuV/7sjXTo0iW3FHG6xt5aWfvPzv9mR4IAABSmlZsXP31QrNJl+mBJE7uxdhb/pMcAwBA4s44/S/v7Mv0KJIicZT5y/7+M05yDAAASfm0c+gv7/dnehSJkzXKHPnYQ38MAAAp8cHfBw9Ke1WVMsr09Q//V/NApkcBAED2kHchsJRR5p3m8339w5keBQAA2cPrC7xz+HymR5EI+aJMX//whx97Mz0KAACyzQd/l3KvfPmizDvNUmZGAAAmvg9a5OvfkC/KsPoaAIA0OdjiyfQQ4iZZlPm0c4guGQAA0sTrC3zaOZTpUcRHviiT6SEAAJDNzjgvZHoI8ZEsypw5J9n7CwCAXP4pW9VAsijjYnYJAIB0kq5qIFmU6TtPlAEAII28Q5Ktx5Ysysi43h0AAIl4fYFMDyE+kkUZAAAALaIMAACQGFEGAABIjCgDAAAkRpQBAAASI8oAAACJTcn0AGRVaJ8ysyq30DalyG60mPQ79p7tccW3p1B5iWlpQ5HHF+hx+Tu7fZ3dvngfAQAAEGXiM6PKUjMzr7baWmibIoTw+AJNLa6mFncCKcTp8je1umtm5l9XV2gx6YUQvS7/qXZPU6v7dJt8B5MCAJARRJmYWEz66+oKr6srMJv0QgiPL/Buc2/ryYHT7cGZo9A+xWIyWMz6Irsx6I96XH4hhMcb6HX5Pb6A1xdoPTnQenJAvNlVV2Orr7HOrMqttxvra2xKptm130mdBgCA6IgyYyiyG5c2FNXX2JRPPb7Au0297x7uUzZDLCsxlZeayqbmFNmN5aVmpVQTo85uX4/L39Ht6+z2/aN9sLnVXWgzLmsomlGVW2Q3KpmmqdVNoAEAIAqiTEQWk35ZQ/FX6gqUT9UQYzHr59faambll5eYlCJNYspKTGUlpppZ+cqnSiXmdNvgu4f7ambm1dfai+xT6mtsBBoAAKLQuVyuTI8hDo893TU+T3RdXeGyhiI1qbzb3Ptuc9/8Wnt9rS2u0ktiWk+e7+j2FdmM9bUXq0G9Lv/O/c6m1v50PzUAAI8+UJrpIcSBqkwYyxqKlzYUKR/3uPzvHe6rmZX/4weuGrcB1MzKr5mVr8SX+hp7kX1Kod149/JpFpPh3cN94zYMAAAmPvaVCVZkN6qdMa0nB7zewO03Tp1RaRn/kRTajcsainViRJ1aWtpQbEliSgsAgOzDdTHYjEpLoX2KEMLjDcysspSVmjI7nkK7scg+Rekytpj1au+OLCwm/YwqCwkMALTqa2z1NdZMjyJLMMEUbFlDsfKBxTyBrr5q18511xS+19zn8QXS91xKkovE6w3E/uw1M/NW3TLNbNL3uvzPbf+ss9uXigFmFe273UtnNzA51NfY7l5eKoQosufs3O/M9HCkR5QZpb7GFv1CnnEWs75mVl76+n+L7MYffXd69Nt4fYGObl9Ti6v15ED0WLPs2mIlhBXajXfcOPXJlxypHGtWWLV8mjp9+bPffkKaASaDkUsfKH2ZpJkkTejL9vhTVwxNZPU19swuZTKb9DMqLTMqLb0uf1Nrf5R/hGaT4fLHE6nKBQAZ1NzqLrJNWXZtsSDNpAJXl8uK7MaMtPfGa0aVZYKMs9BuXNpQtGF1VVGEUta7zb3qxzv38Q8VAC7a9X6P+lNxaUOR2tuABFCVuUxdgD3x1czKCz0zIeU83sDz2zu1X7GY9YV244xKS+2lnf2EEGWlpnvvKHvyJUfoZNN7h/taTw6Ul+acavN409nfAwDS2fV+jxCC2kzyiDKXzazMzfQQYlVfY9+x91y6n8XjGw4bmN5r7lPOWFDn48pKTbffOPWlN8NsYNjr9ve6/ekdKADIiTSTEkwwXVQzK2+CN/xqWcz6zM4x9br9L73ZpZ0zqq+1TZBpLwCQCDNNyZPm4p1uNZoZEynU11rHYY4pul3v91jMhusubXWzrKE4aI1Szcy8muqLb2xTizvsgC0mfX2trazENLPqYlWsx+Xv6PK2nho43Tb2C5xRZamZmTezKtdiNij37XH5W0+ebz05MOZ9laeeUWkpLzULITzeYY8v0NTiOt3uiXTilcWkv33xVOXj022DTa39yqnpM6osylnoyhkXQfeqmZVXX2NTn6Wj28ehWgBU1GaSRJS5SLooUzPTKkR3pkchdu131tfalB3wZlRZCu1TtMuJy0pN6tbJp9oGRXvw3YPOulIU2qbMqLRcV1fYevL8jr1nI13yi+zGu5eXBpWClPvW19h6Xf4nX3JEiQvLGoqvqyvQPrVyupbygLv294T9UWIxG9RXJMTI6XbvvXdcqd1HMei1lJeY7m0s0xb8Cm1TykpM9TW2SE8BYBIizSSDCSYhhJBxO9qMzzEpPL5AU4tb/bRmZhyJcFlD8e03XhHldPGaWflr764I+1dTXmLasKYqyjtQaDf+99WfKysJv1nz2lUVS0MilJayMmvM74qlDUVR9oMuLzGtXVURaeJyaUPRdddItnczgPRhpilhVGWEEELze7ZMxmcd05hOtw+qc0zlpTkx3qvIbtQuGWtqcbeeOt/R5bOYDWUlpmUNxcoC70K78St1Bbv29wTd997GMjWIKLNCnd1DQohC+xTlAE4hhMWsX3t3xc9/+0nQ0qo7Rh+qdaptsLm13+MbLrQby6eaYullvvhip5qVHOPxBVpO9AshLGaDWgcKGqQQouXk+Y9ODmgHubShmIVdAFTUZhJDlBFCqrVLWjWz8sdhHdOYlAyhKCsxx3gvbY7Zuc+p/AMWQvS6L3R2+063edauqlASSehZDUsbitRSR4/L/+RWR6/78kTSe819a1dVKPUYi1m/tKFI+y7VzMrTnmO19fUzzR+N2m+w9dT5u5dPU+ox9bW2ptbwLT5CCCXHvNvcu3N/T2giCRrk86PPbdi1v2fpl4uWXVs8oc7HAJBxpJkE8GNUFNmNCa9dUppME37qJO+ezMhTSPsSYp+nU5pkFe8dDu6T7XX7X3rjzKEW15/2nn3pzTMjo++oVtFCc4wQwuMLPLn18iY39TV27Z9eV1eofvynPWeDcowQovXkgHZlVvQa7859zh17z4XmGO0ghRDPhzt/atf7PbH0NQOYbIJmmpiJHlPmL4QZl1jHyc59zncP96nXsLoamzonMiaPL/BuU696d7NJXzMrP/a7a82otDS7MnmIQRCL5qSC2JWVmEIrH6fbPWHLIV/R/KtuanEH5RiFxxd4t7lX/Zu1mPRKstFu6Nzj8odGKMV7h/uWXVscqZc56JZhv679pmo9eT7SOZo79zvXVlWE/SMAk5n2J9tE+JV1guMNEjOq4osyHl/g+Vc7g66yza3uj06eV+c1oggtJHh9geZWt3ZKJXYzqyzNGT2PKWEdXT71er9qeenWN7tiLFGUa9psm1rdkW4W1F6jKCu53MoT/emaWtxqA1DNzPywkeVU22Ck0zS13wYtJ89HepbT7R6PLyBdyzmAtFLPzRZC9Lj8ofs7IAg/Q0X5WOEjyM59zrDVAmVeY8zNQp7f/lnYQkKv26+dFonRjAnW5ePxDcd4S+0/zkK7ce3dFT/+7vS7l5fW11ijx0H1Tz3eQNh3Mpb7CiFaTkVMGEIIbR0lgWqZNm9pe4lC9SYxwwgg+wTlmNA5dISa7FUZi0k/Zh1FK8qshFDmNQ733nHj1Eg3aGpxR5prEEL0uv3vNvfGtQCvyG5UZ08yRZsFY2/96XX7X3qjS/0XK4QotBvrL7WYeH2BlpPnm1rdobUTtYbRE/95CNoGHa832pumffAkO3Ojh5WObl9c34EAshg5JjGTvSoTZVOQsKLMaCiaW6LdIHolQIw16xHWv8Q5QZZy2itxpJ6SsJpa3T97+tOw8y9mk76+xrb27oq7l5dq51+YiwGQrcgxCZvsVZl4fyHuiFxTUXh8gR7XhUhTEmNe6aPUbCIpshnHvlE6aZuNTrUPxnXfXrf/he2fFdqM5aU5MyotM6pyg+b76mtsRTajeh6Ctv6UZKwxj9cqaLM5WtlMWygCMGmRY5Ix2aPMzPHdMHfMVpIEpopi35UuHYJWHSe2ulg5PVs9NUk5eUDdqm5GlWVGpUXtT1KTYgKTax3dvnp15FEjYNmoWbO4f6D0uPxqU3NZiSlKhKXOBIAck6TJ/mNUOYMwdrGUQKJ0iY5ZBIq3B1nEsytdOtyuaQyKtDQ6XqfbPS+92TXqPIRZeerHnd1e9eMo72eRfcqMKovynxoXOrsuF71qo566pc24CeQzbfUuSlwushtplAEmOXJM8iZ7lIn3QhL9+ifGWto9ZhEogQtbBieY7rhxqjZkxLUlZaF9Ss2svOvqCiLt66NdJqZtvD2l+XqUFum7l09be3eF8p/6xc5un1rFmVFliRQ6i+xG9XhRjzeQwOkQ2sxUX2OPVHrRbnkMYBIix6TEpI4yFpM+3vK+MtkR5QZRli8JIdTjgSKNJ4HzwyzmuF9F8mZUWTasrtKeALBznzP2f4EzKi0//u5V9zaW3X7j1EgvOdIUT3OLWxtHwt79urpC9a9Ju/uLsnWeerN77ygL+9TadVWtkXeFieJ0u0ctzFjM+tvDfVeUl5gkPfwLQEqQY1JlUvfKJNZxuWp56ZMvhd8/ZllDcfSyisWsv/eOsidfCr9/zB2LSxLb1bHQbvTE3y88JovJEFo2KLIba2flB50p/W5zr3qIUixOt3vUlpcZVZbbb5z63uFe9S21mPT1tfbr6kbt6qt+7PEFdu5z3rH4YjhQDrhW724x6a+rKxx1UOXoRWfvNfepgbKs1LRhddXWN7vUbmslG2l3BE749JNd+533Nl6MSvW1NotZv2PvWe0gtS8QwGRDjkmhSR1lElvDouzn9qe9Z9U2VXGpoPKVGC5OZaWmDWuqgsJQkd149/LSxI5QEEIU2qcksPRpTBZzTFUi7WGQsduxt1u90l9XV3BdXcHpdo/HO2wxG8pLTNqoFFrvee9wX3mJub7Wqr27cptC26hv6aYWd9BuyB5f4KU3zqxddXHWSfnr8PoCSrgMuvuf9pxN+IdL68mBppZ+dZA1s/JrZuUrT6Q+S8vJ815fgNoMMNnMqLSQY1JoUkeZhLtMCu3GexvLel3+jm6fxxcoshuDrr5j3v1H372qs9unzEFoDwZKTKZWwZxqG9y1vyeBVhJx6dRG5fRXRdg3IVK956U3z3h8w9rCRlAKEUI0tbj/tPds6H1Pt3ue3Oq4e/k0dbLPbNIH/fWFPZ4iXqGD1D5Rj8u/Y89Z7TsAYJJQtzQjx6TEpI4ySZ7RVWg3FiaxKUhZiSlVq1cSO8QxMT0uf0e3r7PLF+m4x9jter+nqbV/WUORuu5aa8yctGPv2Y5uX32NdWZV8OkNp9oGm1qD6zFaSppZ1lA0oyo3qHsp6LDPJCmDDD0r9FTb4EtvdPHzC5icmlvc5VNNZrN+RxKlX6h0Lpcr02OIw2NPd6Xw0ZY2FCXQZjsB7dzvDHt6oizMJn15iUltXVLSUuxJotBmLLJPUe7u8Q13dPni+tEwo9JiMeuVONjR7UvHVJ0QoqzEVGSfYjEZPL7hU22elOQkAEiTRx8oHftGE8akrsrEUsw41TYY+kv/eOpx+XVCRC//yL7NmtcXSKbGo+ywl/Ddk6wtxagzbSEJACY5uS+BSYrlmMDyEvNLb3QlsN9rSrzb3Nt6cmDMaawkzzsEAEBeXALHYDHrlzUUvbC9c+e+BBflJuZU2+CTWx1e3whLdgEAiGJSR5md+3piOcGn0G68t/HKzm7fz57+9N3mvnRXaJQQ88L2z2pn5ceyG6zHF9i5T+JGGQAAkjGpe2V63f4de85qt3aNpNBuvHdF2bvNfe8d7t2x92zNrLyamfk11fkpbFI51TZ4us3T1OrudV+YUWXZsOZzMS6w+tPubhrgAQCT1qSOMkKIplZ3oW1KjHt7XFdXUDsrb+d+Z1Nrf+vJAfFm14xKi3KUQXmpOd5Y4/EFelz+022Dnd1DylZpQtlt9tri2PdM27nP2fxRxCXHAABkvckeZYQQu97v6XVfuH3x1FiySKHdePfyacsaik+1e95t7tOuu1FWFFvMemW3mNAd25SdXntdF0IXDFtM+uvqCmpm5ce+V57HF/jT7m5yDABgkiPKCCFEU6v7VJtn7aqKKGc9ahXajfV2Y0+fX7u8VllRLITQHmgQo0K7cWlDcex1nY4u3/PbO5lXAgBgUrf9avW6/T//7Sc79zlj7OpN7OChSDq7fS+9cSaWWyqHKf7vLW3kGAAABFWZIMpW+jWz8q6rK4xSoYn3IOhYhJ5JFCS1G+oDAJAdiDLBet3+9w73vXe4b0alpWZW3oyq3PLRJyU1tbh37D2Xjqfe9X6PxWwI2kimo9t3um2w9eTA+GxKCwCAXIgyEWlbestKTBaTXjnlp6nVnb4n3bH37On2QeWknh7XhR6XnxoMAABREGViorT3jk9dJIGuYQAAJi3afgEAgMSIMgAAQGJEGQAAIDGiDAAAkBhRBgAASEyyKGM26TI9BAAAspk5ztORM06y4ZpzJBswAAByKbBKdqmVbLilxWyEAwBAGhVYDZkeQnwkizLTy42ZHgIAANlMuqqBZFFmWjFRBgCANJpelpPpIcRHsigzvSyHzl8AANKkwGogyqTdgtrcTA8BAIDsJF2OETJGmYVEGQAA0uOrdXmZHkLc5IsyZpOeNAMAQMrNu9oi3fIlIWOUEUJ8tS6PjhkAAFKowGqQsSQjJI0yZpP+q9fkZ3oUAABkj6/W5clYkhGSRhkhxMIv5DLNBABASiyszZ13tSXTo0iQrFFGCLGswfo5CRutAQCYUKYVG5c1WDM9isRJHGWEEHcvs0+TbVNCAAAmjullOau/XpjpUSRF53K5Mj2GZO3c33+wZTDTowAAQDILa3OlrscosiHKCCGOfOz5r+aBvv7hTA8EAAAJmE266+vys2PX2SyJMkKIvv7h/2oeOPKxJ9MDAQBgQltYm/vVuvys2dYke6KMQgk0n3YOUaEBAEDLbNItrM1bUJubNSFGkW1RRvVp59CnnUNnnBdc7uG+88Ne30imRwQAwLgym3TmHH3pFVOmlxmnFRtlPF8pFlkbZQAAwGQg92JsAAAwyRFlAACAxIgyAABAYkQZAAAgMaIMAACQGFEGAABIjCgDAAAkRpQBAAASI8oAAACJEWUAAIDEiDIAAEBiRBkAACAxogwAAJAYUQYAAEiMKAMAACRGlAEAABIjygAAAIkRZQAAgMSIMgAAQGJEGQAAIDGiDAAAkBhRBgAASIwoAwAAJEaUAQAAEiPKAAAAiRFlAACAxIgyAABAYkQZAAAgMaIMAACQ2JRMDyBdDO3t+u5uQ3u74exZ4fPpfL5MjwgAgHE1YjKN2O0BqzVQUjJcWTlcWZnpEaWFzuVyZXoMqaTz+YyHDxv/+leyCwAAWgGbbbiycmjRohG7PdNjSaXsiTI6ny/n/feNf/1rpgcCAMCE5v/857Mp0GRJlDEePpxz4ACVGAAAYhGw2YYWLbpQU5PpgaRANkQZ09tvU4wBACBe/v/233w33JDpUSRL7iij8/nMf/qTweHI9EAAAJBSoKTE841vjMR2ci4AACAASURBVJhMmR5I4uRejG354x/JMQAAJEzf3W3esSPTo0iKxFHG9Pbb+u7uTI8CAAC5GdrbTW+/nelRJE7WKGNsbaU/BgCAlDD+9a/Gw4czPYoESRll9C5XzoEDmR4FAADZQ96FwFJGmZwDB3Rud6ZHAQBA9lC2Z8v0KBIhX5TRu1xTPvoo06MAACDbSLpXvnxRhqklAADSRMY+VPmijKG9PdNDAAAgO8nY/CtZlDG0t9MlAwBAmuh8PulKBvJFmUwPAQCAbCbdnm2SRRn92bOZHgIAANlMum30ZYsyMp8YBQDAxEdVJr1olAEAIK2kW48tW5SR7f0FAEAu0l1qJYsyAAAAWkQZAAAgMaIMAACQGFEGAABIjCgDAAAkRpQBAAASm5LpAcjAbNZNmyZmz9ZdeaUoKBAFBWl8rr4+0dc38tln4tNPRz79VHi9aXwuAADkR5SJymzWLVqkW7hQmM3j9IwFBaKgQDd9uli0SOf1jhw7NvLOO6Kvb5yeHQAA2RBlItJNn65rbExvDSY6s1n3pS/prrpq5O23R44cydgwAACYwIgy4enmzdM1NmZ6FEIIIQoKdI2NorBw5O23Mz0UAAAmHNp+w7hYj5lIdNdfL+bNy/QoAACYcIgyIczmiZZjFPqbbx6/lh0AACRBlAmmW7Qok/0xUZjNuuuvz/QgAACYWIgywXQTeB5H96UvUZgBAECLKDOKbvr0CVqSUZjNutmzMz0IyZnNuunTSYQAMks3b95E/s1ZLqxgGm3iB4Xp00WaF2br4gxzI/Jse6ObPVvX2CjMZp3XG3j+eXHmzOU/M5t1l/LNiNfL5oQA0ufyIllWp6YCUWYU3ZVXZnoIY9BdddVIWp+goEC3fn1c9xh5/nnx6adpGk5q6W644WI9xmzW33FH4OmnL//RwoW6G264+Mn27WzkAyB9RoTQCSGU1alCkGaSxATTaBN/3mHij3Ai07x76U2EABDFkSOBS/FFd/31l3+PQkKIMqNN5EYZhdlMmklY4OBB9eORd97J4EgATHbvvEOaSRUmmEaLISWMnDkz8re/6a68MoUdWyN/+9vImTO6RYti6lMxm8epk8PrDWzdOvbNtB0nE9yBA4Fjx8S0aYKjOgFk3DvvBITQ33CDYKYpOUSZ+Iz09Y1s3Sr6+kaEGDlwQLdqVbxNssEP6PWObN8ujh8XQowcOaJbv34CFV28XlmaYOLQ18fxnAAmCtJMKjDBFKfe3ssXwjNnRp5/Ppn1OyN9fSNPPaXkGCGE8HpHjh1LeogAAHkw05Q0qjLx0V155Yh2fkfJIo2NCWz3MvLJJyMvvRQ0zaG76qqUjDODdDfcoLPbhVJw+stfhBBi2jTdvHm6OXOEEMLrHfnss5F33hlVGiko0H3pS7rZsy9WpPr6Rv72t7HXEJnNunnzdNOmiSuvvHzHzz4Tx4+PRCgm6aZPV6cFR44ciXQzABhX1GaSQ5SJk9msu/deZY7p4le83pGtW0euv14fT5QOHDgglMu89pEbGyXoOx6Lbvp0MX26EELX1zfyl7/oFi3Sfe1ro24wbZruS18aeecd5d+qbtEi3fXXj5pWKyjQTZ+uu+GGwPPPR5oMCnOvS3cUixbp+vrC37egQHzpSxc/JscAmDhIM0lggiluumnT9PfeG5w53nknsH17jJ2kgTffDM4xBQX6Bx/Mvp18dfPmBeWYy390/fVi+vSLNwjbHlRQoFu1Kvx9Gxsj3uvSffUPPpgFuRDAJMJMU6KoyiSkoED/4IMjb789olncK44cCXz6qe7ee6M0Al/sGh695Ec3fbpu1aoJ1O2bKmaz8k9x5JNPRo4fF0IELfvS3XyzssHuyCefiE8/Henr002bJubMUd9A3bRpYt68oJkm3Q03aB9k5JNPRo4cuViAKSjQ3XDDxbubzbrGxpHnn0/ziwSA1KE2kxCiTKLMZt3NNwuLZdT3WV/fyPPPi1WrdNOmhd5j5MyZUTNTQghloiRC3UJ6ZrMwmwP/P3vvH2RXdd17rn2l1g8Udbf0BhkjGhqbEEjLEeBIxE0qMhHPQRM/E+tVPdlTjiWcQmX7FajiKOV6k0KpkZ2p8YtMlaDG8UA5IEJNnlI1smHmFSSFSuhNkI1kB/TSMphAaLuRTVAGdTeWJdTqu+ePvdePvc/p279u697T+n5sWveee84+a/9a63v23uecQ4eIn+ASbvuq3X130G2hlOxcmyei556ju+/WArzhhuRFDUuWWB1T//a3s9c4+MFB94UvxPR7e313N+5XAgBUCaiZ6QMpMyvcRz9KV1zh7dTS8LD/i7/wH/2ou/lmGV3w5875736Xvve9fJHvpk3uN37jIts8DZYsqd19d+Nd/He/6+UOrOKvL75I2ZPowlN5PvKRuMPwcD7Xdu6c//a33Re+EL6597/fp7/Wv/3tsBzHv/VWyeuohof9d78rA7OutxevIAAAVIxMzZw9m8wAgAKQMrPF3XCD+8IX8kWmzz3nn3vOX3EFLVlS/iCT7u7apz9NZYM3bcSSJWEBbyNefLHBj+UyYnCQWMrQG2+U7PDWWzQ8HFe6FGfrBgcnufMovTeq0Z4AANCWOPix6YBlv82gu7t2990lUf+tt2hwsETHhIXDba5jmkLp5I4dmpqL2Z/q39AOALiU0fdmhxWWGJKZDIzKNInu7trdd8sNxg0ov4u4PZnCI/tm84TAJrBkibviCurupu5u191NK1ZQGAkDAIBqkuuYiZ9JAQRImWbiPvpRd9NN/tCh0omV8KyUyads2odz5/x3vtNqI8pYssR95CPyABsAAJgfQMfMDEiZZtPd7T75SbdpE731lv/Zz+jcOVqyxK1YQb29GC1oDldcUfv0pyeaPPbDwzQ87CBxAABVAzpmxkDKzA1LllBvLwJq8wnLpY2OkWfSxMXC5865m27CaA0AoFpAx8wGSBlQJdxv/IbomNLn9AAAQOWAjpkluIMJVAn3/vfLZ+gYAMA8ADpm9kDKgEohU0ulT+sJ4GZsAEBFgI5pCpAyoFLIM2m6u8uXUV9xhX2zAQAAtC3QMc0Ca2XAxKQvPJoI/9Zb2Qsy5w7/8svyeib36U/7b3/b9nx3001u06aLYwkAAMwG6JgmAikDJmbJEulpjTh0yF80KfPSS+4jH5G3Rbo//EMaHKTTp2npUrnd3Q8O4t4xAEA743p7oWOaCCaYQKUYHq4//XSypbeXbr6Zbrgh6phXXiG8RRYA0Obw6DJ0TFPAqEzKuXMVeJBd+nrtS46XXqoPDrrf+z2XLu+Nrx9/7jkMyQAA2hz/0kv0/vfT4sX+mWegY2aPGxkZabUN0+CXvv71OU2/9od/2P7vIK3/6Z+22oT2oLtb37gUHpF3iYs8AABoEj//oz9qtQnTAKMyCf6tt1x7Sxn/s5+12oS2ocH92AAAAC4ZsFYm5fTpVlswGRdrgS0AAABQCSBlEvwrr7TahEnwg4OtNgEAAABoIyBlUgYH2329BaQMAAAAYICUyfHf/W6rTZgQ/+KLWB0CAAAAWCBlcvz3vufbUi744WH/3HOttgIAAABoLyBlCpw757/97VYbUYI/dAhDMgAAAEAGpEwZg4P1NlMz9UOH6KWXWm0FAAAA0HbguTIT8NJL9XPn3KZNLX/MjD93zj/9NHQMAAAAUAqkzMS88op/6y1/003u5ptbImjik/i/9712v6kKAAAAaB2QMg0ZHqbnnvPPPedvuMH19tIVV9CKFXMqa/zwMJ09S4ODfnCwAneGAwAAAK0GUmZqvPKKPD3Pt9YSAAAAABiw7BcAAAAAFQZSBgAAAAAVBlIGAAAAABUGUgYAAAAAFQZSBgAAAAAVBlIGAAAAABWmYlLGL17cahMAAACA+UzlQm3FpAxVrXwBAACAauG7ulptwvSomJQZX7Wq1SYAAAAA85l6Z2erTZgeVZMyV13VahMAAACA+Uz98stbbcL0qJiUqWNUBgAAAJhLxnt6Wm3C9KiYlBnv6ancciQAAACgKtS7uiBl5pyxW25ptQkAAADA/KSKCzkqKGU+/OFWmwAAAADMT87397fahGlTPSnjFy/GwAwAAADQdMb6+nzVbl+iKkoZIjrf348VMwAAAEATqXd1VXFIhioqZfzixRUtbgAAAKA9Of+Rj1RxSIYqKmWIaOyWWzDNBAAAADSFsVtuudDX12orZkhVpQwRvXf77VVcaA0AAAC0FfVVq967/fZWWzFzKixliOjc7/0eHpoHAAAAzJjxnp6z/+E/tNqKWeFGRkZabcNsWXzoUMc//EOrrQAAAAAqxtgtt1R6PCYwH6QMEXWcOLHou9918yIvAAAAwFwTbqCZH6tO54mUIaLa6OiiI0cWnjjRakMAAACAtmbsllvm02NN5o+UCQRBs+DNNzFCAwAAAFj84sVjH/7w2C23zBsRE5hvUkZYMDS0YGiodupUbXTUjYy4995rtUUAAADARcUvXkyLF4+vWjV+1VX1Vasq957IKTJvpQwAAAAALgWqfTM2AAAAAC5xIGUAAAAAUGEgZQAAAABQYSBlAAAAAFBhIGUAAAAAUGEgZQAAAABQYSBlAAAAAFBhIGUAAAAAUGEgZQAAAABQYSBlAAAAAFBhIGUAAAAAUGEgZQAAAABQYSBlAAAAAFBhIGUAAAAAUGEgZQAAAABQYSBlAAAAAFBhIGUAAAAAUGEgZQAAAABQYSBlAAAAAFBhIGUAAAAAUGEgZQAAAABQYSBlAAAAAFBhIGUAAAAAUGEgZQAAAABQYSBlAAAAAFBhIGUAAAAAUGEgZQAAAABQYSBlAAAAAFBhIGUAAAAAUGEWttqAueKFF154+eWXjx49+vLLL4+Ojr777ruttggAAAC4qCxfvvyqq65avXr1jTfeuH79+ltvvbXVFs0JbmRkpNU2NJPR0dHHHnts37590C4AAACAZfXq1evXr7/33nuvuuqqVtvSTOaPlBkdHX3wwQcff/zxVhsCAAAAtDWf/OQn55OgmSdS5rHHHnvooYcwEgMAAABMhdWrV997772bN29utSFNYD5Ima9+9asYjAEAAACmy9atW//kT/6k1VbMlmpLmdHR0S9+8YtHjx5ttSEAAABAJbnxxhufeOKJ5cuXt9qQmVNtKXPXXXe9/PLLrbYCAAAAqDDr169/4oknWm3FzKnwc2W++tWvQscAAAAAs+To0aN/9md/1morZk5VpcyBAwewPgYAAABoCvv27du3b1+rrZghlZxgevPNN3//93//5MmTrTYEAAAAmCd0dnYeOnSoiotmKjkq89BDD0HHAAAAAE0kPJ6t1VbMhOqNyrz55pu//du/3WorAAAAgHnID37wg8oNzFRvVOahhx5qtQkAAADA/OSxxx5rtQnTpnpSBk+RAQAAAOaIKi7+rZiUeeGFF7BKBgAAAJgjRkdHX3jhhVZbMT0qJmUwJAMAAADMKa+88kqrTZgeFZMyP/zhD1ttAgAAADCfqdyoQcWkDGaXAAAAgDmlcqMGkDIAAAAAUN59991WmzA9KiZlKle+AAAAQLUYHR1ttQnTo2JSBgAAAADAAikDAAAAgAoDKQMAAACACgMpAwAAAIAKs7DVBlSJzs7OT33qU319ff39/V1dXZ2dnXNxloGBgaGhoWeeeebIkSNDQ0NzcQoAAABg3lCxN2Nff/31LTlvZ2fnzp07P/WpT82RfJmI/fv379mzB4IGAADAxeTVV19ttQnTABNMk7N9+/bvf//727dvv8g6hoi2bNly4MCBe+655yKfFwAAAKgKmGCahJ07d+7cubOFBvT09HzlK1/p6uras2dPC80AAAAA2hOMyjSi5TpGaB9LAAAAgLYCUmZCtm/f3lbqYefOnZhpAgAAADIgZcrp6elpKx0T2LlzZ09PT6utAAAAANoISJlydu7cefEX+U5KV1dXGwosAAAAoIVAypTQ09OzZcuWVltRzp133tmGGgsAAABoFZAyJfT397fahAnp6upqW5kFAAAAXHwgZUq48847W21CI9asWdNqEwAAAMyKLVu24Lq0WeC5MiVcffXVrTahERd50Kizs3PTpk2y3Hh0dHRgYODIkSONj8qWJ0/3gcWdnZ1dXV3ydWRkZHR0tPEh/f39a9askdm3gYGBEydO4EHJAIA2ZMuWLXv37iWinp4ePDNs9kDKlNDX19dqExpx0W5i6u/v37lz50TKqfFLFY4dO2a/Xn/99ZNqEcumTZtCP5dz7dixo3TPzs7O7du3T/Qs5oGBgUceeWT//v1TPzUAAFw0wp0cUDOzBBNMoITOzs7HHnvswIEDDUaAtmzZ8uyzz07xUTfbt2+flgFTvFFry5Yt3//+9xvcbrZmzZq9e/ceOHAAN7EDANqHcCkYPuMJqLMHozIzZM+ePU2/1u/q6rrzzjvboU0fOHAgW5EzOjoa3jxqNUFXV9dXvvIVInrkkUcaJ3jPPfc8/PDDUxyY6e/vn4ryuPPOO+3ITSCMEmWH9/f3P/roo5s3b57WyBAAAMwdQcoEh4+xmVkCKTMTrKBuIkNDQwMDAy2/FXznzp1Wx+zfv3///v2yOCYsnbEP69u5c+czzzzTeFVKV1fXbbfd9vTTT0/FgKmM9PT09Dz44IPydWhoaM+ePU8//bSIlTVr1txzzz1SkmvWrNm+fTs8BQCgfYCaaRaYYJoJYXxijmjtStXsKXz333//jh077CLf0dHR/fv333HHHSdOnJBDpqK9pjgV1dPTs2nTpkl3s5NKQ0NDGzdu3L9/vx10GRgY2LFjh11hc8899+CRPACAtmLPnj2YaZo9kDIzwd7R01xaPiRjF8ccOXJkopmjkZGR++67T75Oxeb+/v6p3Hs1xVU1dtxo27ZtE80c2fGkMDI0lcQBAOCiATUzezDBNBN6enqOHTs26Q3J06Wzs/Pqq69u7ciBlWiNM3jixImnn3463DI9xTUod95556SFNsWH+ti7zGR8qBSrxrz3U0kcAAAuJphpmiWQMjOnnR8K3BQmFVV33333pIkE7RLKasuWLXv27Gmge7Zs2SJaas+ePQ2uTkZHR8W8zs7OBmk+/fTTU1yjAwAArQJqZjZgggkkDAwMyGcrLGaDjItMuqrG/tp4/MauKPrjP/7j2RkIAACtBzNNMwZSBiScOHFCRji6uroOHDgwlUW4jTly5Iik2SC1np4eGejav39/4+XPdqDlnnvusXdUAQBARYGamRmQMiBhZGTkz//8z+VrT0/Po48++uyzz27fvn3GD0EeGRl5+OGHw+cGi39tp5X9J+KRRx6xWmfnzp0HDx7cu3cv3hwOAKg0UDMzAFIG5DzyyCPZHO2aNWt279598ODBV1999dFHH53BxJN9nOBEC3tF4pw4caLxSl4iGhkZ2bx5s1UznZ2dW7Zseeyxx1599dVnn3129+7d834xEwBgXpKpmSk+yeJSBlIGlLBnz56NGzcWp3jC8/H27t177NixRx99dOrjNENDQ7L2ZcuWLcWBEyuPJh2SkTTvuOOO0tvFwwPxDhw4cOzYMTxOBgBQOaz7xez5pEDKgHJOnDixbt26zZs3T7RsZdOmTQcPHgwvLpgKcpHR1dVVfHiMbBkaGpr6GyFGRkbuv//+devW7dixo3Qgp6en5ytf+crBgwfb/BWhAAAgyHuziWhoaGjSN8MASBnQiCNHjuzYsWPdunV33HHHrl27incV3XPPPQcOHJhiUhMt/u3r6xOpMYOn9QT1s3HjxnXr1t19991F7dXT03Pw4EHMNwEA2p9Mx2Qz6aAUPFdmhoyOjtr7lqdIT09PRYcKBwYGBgYGHn744XCfkb1jKHydyiMQHn744bCEra+vr7+/X1SLHaSZzaMUhoaGhoaGws1N/f39W7ZssXd37927d+PGjXijJACgbYGOmRluTl8n1HSuv/76i3CWt956q/EO4aU/MwuKjz322BQfaNuAK664YpYpzB67tH5kZGTdunW2QKQMjxw5snnz5vC5q6vrRz/6UbY9PDq5uLPdvn//fvs2panT09Nz4MABUV33338/hmoBAO1JW+mYV199tVWnngGYYJoJ2ZsLp3tsc41pFXv27LGvN5rKaNPIyIgc0t/fH1bj2nmfphdOeGO2fMUcEwCgPWkrHVM5IGVmwmzWkLb5BFO/YdKdbU+z73dsgBUWYV5JhnamvuA3THIFJr07yS6+CW+MAgCAtgI6ZpZgrcxM2LRp0+7du5955pnpHtjf3z/FNz+3hDAdEz6PjIz8yq/8SuP9rYyYYscLi3/Dgffcc8+RI0dE2019we/OnTtlEcykc0a4ExsA0M5Ax8weSJkZsn379nYWJTNjaGhIdEZXV5ddmVukp6fntttus8dO8Syy+Lerq+uxxx6T7VNf8Gvvu960aVNjKWOrCQ4CANBWQMc0BUwwldDmN7nM6Upt+3i6vXv3TjQdFl5oIAMeJ06cmHr3e+SRR6SEJYWnn3566inYeahw/9REe27fvt3exDSDgTQAAJgjoGOaBaRMCW3emN588825S9zqjHAP0d69e2VJSmdnZ5AOBw8etItjpvh83sDIyMjzzz+fbfybv/mbaaVgR2J27tx57NixLVu2yBqmnp6eLVu2HDhwYPfu3bKb3KcNAAAtBzqmiWCCqYSBgYF2fjjsDJ5nM3XC83OlgxFR9nSWInv27JnunUePPPKIfUreDETGnj17+vv7rXaxNhcJnmJapwAAgDmiv78fOqaJYFSmhDa/X3quZ0n2799/9913T6VfjY6O3n///TN4qN2RI0fsKpwZpBBeJznFmgqPq4GnAAC0CTKqDR3TFCBlSjhx4kTbLpe5OLMkTz/99ObNm3fs2DFRBxsdHX344Yc3btw44yfOWUE2g5cVENHIyMiOHTs2b97cQNuFFy/AUwAA2or9+/fv37//mWeegXdqCnjabzn2UbZthX35+8Whh5EtJ06cmNNJrpnR39/f1dUl64hHR0eff/75tpWkAADQzlTrab+QMuV0dXU9++yz7fY4u6GhoXXr1rXaCgAAAPOcakkZTDCVMzIycvfdd7faipw2NAkAAABoLZAyEzIwMDCzVxjOETt27GjDaR0AAACgtUDKNCK8kLnl6y1GR0d37NjR5vdVAQAAAC0BUmYS9u/fv3HjxhauMA83EkPHAAAAAKVAykxOWGy7Y8cO++qfi4DcSIx5JQAAAGAicAfT9Ojp6dm0aVNfX1/x5qY1a9ZM9yXMo6OjmUwZHR0dGRk5ceLEtN5JBAAAADSRat3BBCnTNLq6unbv3t34Gf+Whx9+eM+ePS1fiAMAAABkQMrMIe0sZQIHDhzo7++fdLeBgYE77rjjItgDAAAATJdqSRmslWkyU7njaWhoCE+IAQAAAJoCpEyTGRoa2rZtW+N97r//fqyDAQAAAJoCpEzzOXLkSIOXLO7Zs2euX20NAAAAXDpgrcxcUbpoBktkAAAAtD9YKwOIiHbs2JHNImGJDAAAANB0IGXmiqGhofCU3tHR0dHR0fDQXiyRAQAAAJoLJpgAAAAAkIAJJgAAAACAiwSkDAAAAAAqTMWkzPLly1ttAgAAADCfme77BFtOxaRM5coXAAAAqBarV69utQnTo2JS5oYbbmi1CQAAAMB85qqrrmq1CdOjYlLm1ltvbbUJAAAAwHymcqMGFZMyN954Y6tNAAAAAOYzlRs1qJiUufXWW7HyFwAAAJgjVq9evX79+lZbMT0qJmWIaNL3TgMAAABgZlRuSIYq97RfIhodHf31X//1VlsBAAAAzEMOHTqEO5jmnM7Ozq1bt7baCgAAAGC+sXnz5srpGKriqAwRjY6O3n777e+++26rDQEAAADmCatXr37iiSeqKGWqNypDRJ2dnffee2+rrQAAAADmD/fee28VdQxVVMoQ0bZt2zDNBAAAADSFbdu2bd68udVWzJBKTjAJn/nMZ44ePdpqKwAAAIAKc+ONNz755JOttmLmVHVUJvCNb3yjcg8lBAAAANqHW2+99Yknnmi1FbOi2lKms7PzqaeewkwTAAAAMAO2bdv2V3/1V1V/9my1J5iEAwcOPPTQQydPnmy1IQAAAEAFWL58+X333Tc/xgLmiZQhopMnTz700EMHDhxotSEAAABAW7Nt27Z777236oMxwvyRMoEgaF544QWM0AAAAACW5cuXb9u2bdu2bfNGxATmm5QRjh49+sILL7z88ssnT55888038Tw9AAAAlxrLly/v6uq64YYb1q9f/6u/+quVe0/kFJm3UgYAAAAAlwLVvoMJAAAAAJc4kDIAAAAAqDCQMgAAAACoMJAyAAAAAKgwkDIAAAAAqDCQMgAAAACoMJAyAAAAAKgwkDIAAAAAqDCQMgAAAACoMJAyAAAAAKgwkDIAAAAAqDCQMgAAAACoMJAyAAAAAKgwkDIAAAAAqDCQMgAAAACoMJAyAAAAAKgwkDIAAAAAqDCQMgAAAACoMJAyAAAAAKgwkDIAAAAAqDCQMgAAAACoMJAyAAAAAKgwkDIAAAAAqDCQMgAAAACoMJAyAAAAAKgwkDIAAAAAqDCQMgAAAACoMJAyAAAAAKgwkDIAAAAAqDALW23AXPH377h/HKXnT7t/HKWRMTd6odUGAQAAABeXzoV09WX+6qX0oeX+tpX0myt9qy2aE9zIyEirbWgmIxfcXwy6bw5CuwAAAAAJPUvpN1f6L1/nr146rzTN/JEyIxfc//ZP7v/4sWu1IQAAAEBb8+nV80rQzBMp8xeDta+9hpEYAAAAYEr0LKUvX1f/n1bPBzUzH6TMf3q5hsEYAAAAYLp8vtf/rzfUW23FbKm2lBm54D7zD+75d6BjAAAAgJmwptP/3+vrXVW+C6jaN2P/u6M16BgAAABgxgyMus/8Q7XFQIWt/08v1wZGW20EAAAAUHGef8f9z69UWA9U1fT/8yRuVgIAAACawzcH3V9UNqpWUsr85Kz72muVtBwAAABoT/7z2kLQwwAAIABJREFUa7WRat4IXElB8LXX3NDZVhsBAAAAzCNGxqiiwwTVM/onZ91fn6zqIBgAAADQtnxz0FVxYKZ6UuZrr0HHAAAAAHPCNwerF2SrJ2X+HndfAwAAAHPDN39cPWFQMYv//h2skgEAAADmipGx6g0ZVEzKPP9Oqy0AAAAA5jUD77bagmlSMSnzj6MVk4oAAABAtcCozNzyE8wuAQAAAHNJ5Z6kXzEpM3S2YlIRAAAAqBYjFyoWaismZap4vzsAAABQIUbGWm3BNKmYlAEAAAAAsEDKAAAAAKDCQMoAAAAAoMJAygAAAACgwkDKAAAAAKDCQMoAAAAAoMIsbLUBlyjdHe6z1y7YcPmCm1YsuOYyR0TDY/74cP346freV8d+/AvfagMBAACAauBGRkZabcM0WPnMglabMFu6O9x913fcd/3C7o4Jn0G0742x3SfKBU13h9vVt2jvq+chdwAAAMwR79w53moTpgEmmMrpXVbbcHnzZdPa7toPPrZ0V19HAx1DRFuv7Xj945fd98vJmNmGVQseuGnRax9furbbQccAAAAAAUwwlbOrr+MTVy748N+dbaJoWNtdO3j7ksYixvLAzYu7F9WOD9c3XF6766qFYR6KiD539L1mmQQAAABUHUiZcj6xekF3hzt4+5KNh841Rc30LqsduG0aOiawq68j27J7AFNLAAAAgIIJphI2rFoQNEfvstrB25fIcMhsOPjRJdcsm206j79xYfcP47sxpquKAAAAgHkJpEwJa7tVJQQ1s7Z7VgW1tXdhU3TM5469193htl678ODtS7KVNAAAAMClCaRMCb2XJcXSu6x28KOzkg67+hbN0qTBM3Xv/A8+tvRfP3nZt9YtHvx5XYZnAAAAgEsZXNmX0L0oH0HpXuTCItzdJ85PN7W13bXZD8n0Lqv1LosCa/BM/Y9euhR1THeHW7uidvx0fXgMq4UAANVma+9CT/T44IVWGzIfgJQpYfBMvXT7rr6Oz/YumO5C4A2rmjn0NXimvvHQuTmK5d0drmsW40c/PjOHCuOzvQsfuHlRd4cbPFP/98+/d3y4vI4AAKD92dq78FvrFxNR77KZXCGDDEiZEhoold5ltdc/flmDR9gVuam7ac+nOX66vvn55txRVcpdVy341rrFMzt28Ez9uv96trn2WP60b5GsxX7gpkUbnzs3d+cCAICLQ7hNFWpmlkDKlPDS6Umu+Lde23HX6oUP/tOFfW9MLmhmP7sUePBHY7t/OHbJzq00Hi7qXVaT0a/BM/7w2xM+p/Ku1Qu7Oal9b2BoFwDQAvYNXrjmMrdrzSKCmmkGkDIlHB+u//gXvvE92N2L3K6+jl19HfveGHv8x+MNYmezuJR1DBHtHhh74OZFRDQ85h98NZcg1yxzMp60742xBtXxwM2LpGYhZQAArSLcugE10xQgZcrZ98bYFG872nptx9ZrOwbP1J86Of7kT0s0zY/PeLq8CSZ1ddDwHC/2Pfx2feOhkkmitStqD9y0mPcZL+1vc23bg/809tRPxzdcXnvy5PilLOkAAPMGqJlmASlTzoOvXtja2zH1uaHeZbX7rq/dd30HER0+NX78dH3wF/Xjw374fNOC7sjc37Q0eKY+eKbsB+fsPodPtWbJ7eCZ+kQrsgEAoIpAzTQFSJlyhsf8546+d/D2JTM4dsPlC+biVZQYigAAgPkH1MzsgZSZkMOnxncPnA/Nq+U0cXRn7rjv+g55UPKDr14ovV/6W+u1PP/oxZLVP73Lavf3xWb54zN+94k4GHXXlQs/cVVc2Lt7IK627u5wX7+5g9JHAW1YtUDOcvjtenhsw66+RdcsIyLqMm+1ssb8wdFy37Fh1YINly/YsCo+12f4vH/p9PhTP60/eXLCdTYP3LQoLFIeGaMvvXg+JLKrryOk8OSbF770EvwUAECBmpklkDIl7OrruOYyt/vEmG1eraUir5D0W3tjWf34jC9KmQ2rFmztVSkhOiPZ5/Ka7PPgqzqptnaFk+2Pv3EhSplFZBMM2McJkh97fDCculYcKrPHFqVMd4d74OZFn+1N+sg1l7m13bWt19LgmY4/OHr+8KmS9cXyGvPBM/UvvUh/uX6xTaQrtxcAAKBmZgVeXFBC77La1ms7Xv/4Za/97tIN71vQDk9jq8SozFMnNa6XTrHZl1sR0YbLS5rfJ1brgQ1GPuaa3mW1H3xsaaZjsh0O3r7ks9dMcjGwqy8XQwAAUMruH47tHojyZVdfx+zfeHPpACdbwkvD45+lhRSv71ttDRERtYOcmpTBM/74cD28ejO8XTybP7prddLeNqwqkTuycSrri4fP0x8cfY+I1nbHNddEdPjtcRnskWXCuwfGepddIKKv37xIXioeji3Fvsl8eMw//saFw6fGh8/7tStqd125UIz8y1sXHx+pT1Q73R1ua+/CkMLx03HN8vGRClQlAKAlYGxmZkDKlHD47bYLNqUTGW3I4bfH5S3ia7trmdnZUE3vsto1lzk7d7a2uyY6YyqP6hke8/sGLxDRhlULRMoMnqnvK8xbHT41fvgUEdGuNYu6eYqnuFtgV98i0THHT9c3Pqdvijh8qv7gqxd2/WqHTDs2ePRw9yLXvYgef+PCl146j1XbAICpADUzAzDBVMLx4Qmvs1vFpA8gbhOeNHNMd61OhEvpGExhH22QT/20ZeptK08JDZ6pb36+5I1Xu384JgM/YV3wREkdfnv8c8feg44BAEydbKbpvl/GoMMkQMqUYxectpzBM/WKLPulw6f0+XWfSGXKXVfGr4ffHpfizfSNnYFq1djYXasXypBMgzdt7TUtJBNkFlxOAQBmwKDxPHofA5gAFFA5+wbL7yVuCRfhrQhNRBb/9i7T2SIyqmXf4AVZL5KNZ8jXw2+37JG+djFyg5I/PlwXCxs8SrFVjxMEAFSXz/Yu/Mv18QHrg2fqe9vp0ro9wbDVhIRH5Nlg3CqKdyy3M4dPjcs9O59YvSAY37usJmtoDr89PjJG31pHRNS9yG24fEFYUmNHaFp479LaFSpltl47pQ4iWQMAgFmS6ZiNh85VZVS+hUDKTMjx4fofvXj+W9ykWkULXxQwM558czzIFCLacHktPNZFgr1Mlh1+ezxolw2r4upgmYGili5ztmO5uBkSAHAxgY6ZGbiabMS+wQv//vn3fnymlS2pWrNLRDQ85sVmWfsiq0nkJxErMqlkb8M+PozeCwC4tICOmTEYlZmEJ09eOD5c39XX0aoHncmT+yvE4VNxxKV7kQu3W4tekfuSDr9dpz4ifgINmZGb9lFvDR48Y6nEAwwBAO0MdMxsgJSZnMEz9c8dfW/3ibFdfR1ru2sXc2HEvjcmvIOmnXny5Piuvvj5rtULDp+qy8JYuS8p3OskIsa+RKm1a4NeOj1+zWWxXzx5smWrjwEAlw7QMbMEUmYS7rpy4X2/snDwTL27w/UuqzW4V2UuqOKQDPHdPUGm3LV64chYlCbZfUlPnYwLhO9avUCkzPB539q1QceH63etjp+LT/kDAIDmAh0ze7BWZhIOnxpf213b2ttx1+qF9lm0F4GKDskEHn8jype13TWZm8vuS9LlMuYpcy2XDvZ5NuFRmxOxq69jw6oF4c2RAAAwA6BjmgKkzCQMj/lWPS6vokMyAXnsb/ciJ+t5M5ny5Jvx69puHe6yzwueOna1ytQfJ1U6V3j41Lgs1tmwasFEL4zc1bdoV9+igx9d8vrHL3vgJtzoBACYNtAxzQJSZnJ2nxi7+I/L2z1wvtJt2j5BLlC8L8ne6yTMbM2vvctsw6oFu/oWBXlUHDJ56bSm/5frFm9YteCaZS7TNFZE/uWti3f1LbLpdHe4B25abAds8AArAMB0gY5pIpAyU+Ii35I9eKYe3ihWXcK7oO2WUo2SjdMcH57hKxoyVbSrr+MHH1v6+u9eVnylwIOv6iTX2hW1gx9d8vrvXvZ/3ZY8PejwqXF5AUpI7fWPX/aDjy09ePuS1z9+2b9+8rL7rtehmqqLTgDAxWfD5QugY5oIpMyUGDxT3/jcuYumZjYeKn/TcrV48qfJypjS10NmL1qazW3Yf3DsfLGCilNIh0+NF++Qyt6xQOnr3CSpDZfnK2O+9OJ7VRedAICLz9oV0ZNAxzQFSJmpEtTMRbhP+Esvvjc/mvVT6aqX0tdD2tdP0uzeV1BaQTetKHnR4+eOvvcHR/NhtrXd+VTU7h+OXfdfz5bWeBgE+vDfnX3wn6r0TgkAQJvw+Bvjjw9eePLkBeiYpuBGRkZabcM0WPnMhK8gvmhsuLy2q29R9krnZrF74Dyu8mdPeCXk8Bj9+Ixv8GCYtd217o7Jd+vucGu7nawmfmm43nh/AACoOu/cWaXnUEDKzJDeZbW13S7cp92sh808/saFzx2b0uNlAQAAgLmjWlIGE0wzZPBM/fDb9e6Opj007/jp+pdeOj/5fgAAAAAw4Gm/M+SuKxc+cPMijMcAAAAArQVSZtpsWLVgV1+HPJ129jz4o7EvHcd4DAAAADATIGWmyoZVC+66csFnr13YxHcXDI/53QPncRcMAAAAMGMgZRI2XL6AWKj0LnNdHdR7WW3titpcvH3p8Nvjnzs6T+67BgAAAFoFpEzC4VPju361Y9eauX2lDgZjAAAAgGaBO5hyGjwYbfYEEXPd/4NHqwEAAADNAc+VmZDeZbXwNLym3KZ0+O3xJ3964fE3xvFoNQAAAG1OtZ4rgwmmCRk8Ux88U983eGHD5bWt13as7a4VX+gzKYffHj/89vjhU+OHT13sd2sDAAAAlwKQMpNz+FT98Kn3yDzhN6wC7l2WPB9veMyPnI8C6PhI/fjp+vFhPN4eAAAAmFsgZabB4Jn64Bl68mSVht0AAACA+Q2W/QIAAACgwkDKAAAAAKDCQMoAAAAAoMJAygAAAACgwkDKAAAAAKDCQMoAAAAAoMJUTMp04eZxAAAAYC7p6mi1BdOkalKmA0+cAwAAAOaQq5dWLNRWTMqsWd5qCwAAAIB5Tc/SVlswTSomZX5zZcWkIgAAAFAtPrS8YqG2YlJmTWerLQAAAADmNZUbNaiYlPnNlR4rfwEAAIA54uql/raVrTZimlRMyhDR53vrrTYBAAAAmJ/cVrUhGaqklLmmeqUMAAAAVIIvX1e9IFs9KdPVQZ+/BgMzAAAAQJP59Or61VW7fYmqKGWI6MvXYcUMAAAA0EyuXuqrOCRDFZUyXR305eswMAMAAAA0jS9f56s4JEMVlTJE9Plej2kmAAAAoCl8vrf+6dWVHJIhIjcyMtJqG2bOvztae/4d12orAAAAgArzoU5/uL/CowNVHZUJPHFzfU3VHkoIAAAAtA+/udI/tb7COoaqLmW6Oui/3VbHTBMAAAAwAz7fW39qfb3qd9JUe4JJ+OuT7muvuZ+cxWQTAAAAMDldC/2Xf9nPj0e1zRMpQ0Q/OUtfe8399clqjzMBAAAAc83ne+vz6bEm80fKBIKgef4djNAAAAAACV0L/ed7/ed754+ICcw3KSM8/w79/TtuYNT95Cz95CyNXICyAQAAcGnRtdB3ddCHltNtK/2HOqv3nsgpMm+lDAAAAAAuBbCyBAAAAAAVBlIGAAAAABUGUgYAAAAAFQZSBgAAAAAVBlIGAAAAABUGUgYAAAAAFQZSBgAAAAAVBlIGAAAAABUGUgYAAAAAFQZSBgAAAAAVBlIGAAAAABUGUgYAAAAAFQZSBgAAAAAVBlIGAAAAABUGUgYAAAAAFQZSBgAAAAAVBlIGAAAAABUGUgYAAAAAFQZSBgAAAAAVBlIGAAAAABUGUgYAAAAAFQZSBgAAAAAVBlIGAAAAABUGUgYAAAAAFQZSBgAAAAAVBlIGAAAAABUGUgYAAAAAFQZSBgAAAAAVBlIGAAAAABVmYasNmCsWnBusnX+rdm5wwfm3qH7OjZ/T33zhb8lGR96Hz57I8U/ek+Ofwu9OPzjvvQsJ1MlRPNB73Yd4TyLy3lP2kxgjX50j71Mj2TAi8vGzIxcMCufKM0LeGE/k1WD+KVoecxdso5Co8+Sdd55P6rzznCDF0uBC4hKLe5LjrNntznni1BzZHUgy65JKqZtfnUsKKubLO00q+Sn/MEGle9IUYuF4LWYn5vuQzVBrsV00akj61Wtm7T5lRobsxEzFjbH8Xb5nbGbcrmyOkixkOyRNt+E+3A6zFmXrjb86yaDz3pNz3utG2/xDc+U6d9qc+XDdaH+11oWUiZulq4Xq0ErRA53mj+3RFsrJShmWHWhL3cnZjWHc56QP2Z2tVSF9kh7pyO7gTAkYA9KaT6wKG2WHzFov7dOFTm1PKmZLf3dp+rFSbbF7T85ZqxLD7AdKS9uLj4qnk/LxfGA0VZ1EVhTi25zsaUo7JCRNjssk9gNtV1ndOa/1xUc5awkXTshIaMxyuE9rRJu6895zQTnP3ceX1ZGYp+2KyyqWtlaNOTCtUxfbfzkdy2q/dMWiZe/r6P7Akvf92rJVv3bZRHtWGjcyMtJqG5qJq5/rePd7C9/9nqufI0r9bxpoxd0XPLX5icxGcqoVTOOL2sXr/j7pZOxtvfYkX0/ds3RgX/7XmUT4QEeht3Dni2lq8PAidCTiRqUlnpFdb+qKHMd1b7Ic+mL8KcZa8s6rJpM8aqdKiz1ayxtFfnGM96acuRxtOURVZ1SO7Gb1jQ0bIcvmV1YJNr/hzDFlZwyJCiYJCyb2279S8UZRBXvLdy5+TdIpHOWI6sGHepc2TtsgOS/kyhpwKqbZNhdPZyVRiT3hIB/EkTPBO8a2ksAWC8NIB4kEdS+FnYYWsilnIkldf/gb2z9ZEcC9wYWKlxPLITFQmbbHfcXoD2mrGiFsWUpwlcS9fnWpcJFIRo7jMWfcigayEctcjNj4J5kVS6TotHxUHERTvSdX4/JMytCpAfnZU8PigS7WO7e4tGzVqvDVk4g22ZjWIPsHR9KoqaQhcdHZQrbtJDm700swyvacQBMkWTMXiZqsLSViO/Ozlwo7Obu0jVAsddNCpLhyw2xGptz+J4IjBRHRsvd1vO/Xlq35zOXL3tfR6JiqMX+kjKufWzT83MKffy/Zmvpr3Wg/hNagfd1lLbo8DhW2ewkJ2sDNAAalkT7u41QHlJ7O9BDyEqf9BJYXNtoUWId5I6rMQE461MSqhYO8Ix5K0QGDqABMRvKzZ7Y5Uz7e7CljG6JU+FJOf8rKJNU0rFFETBSNz2OzCfaeA3nUlKnfJd7oHPk6EakYMtEmem2p/Ulaixd3VTKYJBqx5CiJJGFPbmlasy5R1aQhIh2JocTUTNF6a/MEGTFWpNfTZtyC8oCnH3xhhyQ12SE2Ezu0k/p6V7DHy2hjWbwx1+XOubo5u0QIkv5RjL6pVvOhSThyLFnSUGrisbmmL4Ql/mzyaFOwpRpKw8StOKSRBDbJqRFSeohLTkQkV/+yUYqOu4VPDlRjuJTS7hJrwaVC1qt4SqL7BCpWCmpC0ZAUMhe+FIIpYa8VIU4il0rW7HyQzA5uZUVnLbfJisSPNhTzmGSnRJZ5c7p0IIr39OTJ8ai9GjN1PvBvu9d85n9Y9r5FMzi2DZknUqbj3e91DD/n/Ln8hwniSpgASnYr3XOiw2XEpc7d2XhZDhUuBv9ivJFDeM9kJCM5XTqdROZkuiePalBhNsq6PE9EPMSS+q0kkeAIdI6Ds2W2+LxwnHVUSaQ0gaugWtiyKPhM8E72LEmEg32mw1TKxKzGWij5GrdwCTsTDEwG49W657MX8i526q9JxsnunNWsmko8euTrPIaUVx8LlFJRroloyUsbkzE/x6XuKIzhOd1oq6ws5ZKN5IioHsVTQYjICQueuhiBkkArWodi4Ek9uIkfnndmceBidrk0+CyJYRztTH819iRm2xTsaEeuWpymbyaq8uhekj5lB8Y9ZEwtDZbGpDg4yoUQom8yUWKKiMtQfkoVQ8hCMpFhxGLZzFSiq9J8ya/FCjVlFcowPV1Ult65WnkNGmOKs4R8Ui/5NQ0pN5tMZmMx2qSiRDPFGH9KNFOScR7u84XSKNR4o/Zf3iZjhEnrLvZxbv9JgU9CNkKz5jOXf+Dfdk/14DZmPiz7XXz6mUWnnynRMUVCS/BxEDqizYj1L5lfSSOO7O84gMULLT5CBiNIAwQ56VxZnyFyTuJLZmRqXHruws4+zYP85LgDcrblYCcSJeyj8S50YScdM/4UtujBLsmCl+zyOfR6RgNmElY0NTJdNZZcXgteNzpH/D+v1aUTB/rHOSc6h8SpR1tJdqEwq+3TC1PWcI4llmPlZE0zZUJZFWfVlG1MSoA8F68pZN5NWqzsmiZpvzqnhaQncKkxcY7I8ZUeiVv22YEFs7PtMaZISMrN4ZkWl+ZVJXky95cd77SJcX/KOqKTgCNpBnnKMZBVKGfLqgWyW8zmGLelHNJmmhRISMGZw7mhak6T0jAxLfUufM0QL+U5vnGynkgvnqQHcMYcR1LtC7aECvlUwzg6xxSMz/EyAZgMmqW17Chtrcmv3B2jrVxWZkWH9s9og7gdnRfkMK0Jaln6ZENsTnpe05D4CGkAhUwl+WD3Yss4Xp2IYOHCtv4qdcGpnEvw4iH5uoXLM7VZv3DmxY8TSVMJPXrKQoaSnc/8y9gLX//pP3zzrakf3rZUe1TG1c8tPvVfFrw3GL8avalIoPfll7xyOePtsoOic9Z0iNLYFZy5aZMccszMhexJsn2C+Qi78JbI6aJX8mp26jc0aemkcvkwYUbYNO8df/U8BcbmaaeLi5SdDthIgskaVSkiLdVgCZ+AbVMXk4zZ+LjER9c7Gy+aiKW8HrWWyawWKvyk4x+cjs9qky9mpWoyGeESs4vVkdVmcRCrvN7tV++1zaRZMIGyeLgteRmo0DYT239srnqsZ6U2QbMv/WsLhqtJW0TSFYhMUVPxwjTZWLJD1uEomzdxRGaxhUlBl62oDdYwT3bSRH9KF/ewzV5SzpYtc1FPNHsSylvOyL0vrhHhwvRk142WF6ZO5xLZouP+VDoWIofLWmyXNK44U0Y+aVmUTmlR/CwR3MzoNihh7kdJmrJR/VZWcVmrMKXhWaZo3SUn1YtJb/LIO+ukj11yJqUnNhSbBKcjDdhl7d80lbwM03y5so1WvWTXfGlb4vQnaf/TZsUHl2z8z9d0LFsw4xRaTrVHZZb8y2OiY4hycSrXKRNe8ib/iidJt8aU48bQaG1S3JZiCqKfnUkwuAMvTsgGBZc3QL2uDP6Sg74aplcfMQaFrSb8aBSz2bO541PoYtfYH2VA0zn1PKFbZeXn4sWJuXkkGm/zLiOvXpMSMZDUF7sKmR3hbGrYlyjK5ZMdzrVs5aWkG0eIomW8G+fd1hS7vMSv6kIeOzTmzF/+YBta6qYkpk8CV0qScvEon/yjItuzf45buP17nYhhU9ncckeYnTI1ybQsV5ZRoyN16Mbuwu3TOn8ronzxljxrMpE0/6QbybIta70Zo5GhHDJxw/7giMhc9shPlHT76AdMmbPVPBzCXkNN564VI6iZM5Z/5Y/jTJlLLGmJqrZIKtD0UaPi5Tgf2pAx1WB2YptNcGSbTI1yjfMARXnVx+LIijHamnaa1BhONxmKtZSPCNl/vQ6tcVKeZPDYFl9JQuSMpKFkuXYcCUuNNY0w6Vsxt3x9lcYgcZBaJ2l79GHxevhsCj/knssnxpVJdEwe/lJOv37u//1f3mycQptTYSmz+PQztbFGI2OxAcnqsWJVZtFiYlkrPZpHBGPLTVp+wZ17e2ycjZL+z3017FPazsSJ52JHg7q0b+dKHLxLd7IZtfOsNmFXc+xHdGDIirB0f1EPnpLuHTq/T8VKGnIl11ILLrcnBmWNV5k7C2n5pKQ5eMusjScegEncrR4iFSFRhL22E9kqMYTkzhjjgNLEJxru9cmHvO2lxzg+GSXVl85oyXB6PF6UdAilcdqhuK4gOUkqy9T7l+xvqyI12xcqLj2ExBf70FZzZZC6+KTd2sUOnAKf2RRpMlsRs6EdIilz0/CT8o8X7kQyvpsVv9fi4kzlk2shmajC0oIwkVFEpqTluNbSWBeLS0Z3JELLLnoes1DHqY73ZnJKnEaaNafx3jgWqSTtVnZckicHzfnFpExaeFuGafsxk+/p2eOVkRGlXqRNbKe6HFd1WxSRLh6lw0l6Nmtqcl72AlLCtn1yRvg2TJcdHnpcQSU6lj5xH190uqQtNisd7c6Z2VIoxqNOqmUm41/++5lKzzRVVcos/PlLC9/lm5U0oOYU21akQbWX/hS7EP9No0s4vY0KidaQrhVETBjdZ1/n4/996ltzl8Z9VIyx0yNmv6RPT5jP6CLNcmMvzlSdh8wI80oOUn1AjrxjreB94gc925/EXnbdoWcnI7pkDvC8gxzCUc8kZU4XStTWR1os+cy3lopeuXotupBn8ZdxGEMEghGgThJK25hdApA0SVe2VYquEKDEmKwJ+zSISzRxkm0Xg5cc7LJzShmkkcUq1ywOs43OBHOSZEraHbcxE6xjbcnVcYiyjvPgTIpWZsqBppLZ9vTAtDml/5qfJdPc2vV618UQyr+m1Wz6pEmroKg4n+ZExB1M+7EIBM/+w0mz1fVnklkn7Ur0lizikpRsrDMDH3YMoUDab73tZrZYKBaGnCxzT7wnZ5FEsyZdz3Nqsot3Lims8GN0jVZGqZoKC6KyaydjLWkVWMGYZLSs67LHVttE7pkBXZUd0rSl96VXPmlP9ZwhFaaagzj6UlzCZR2sZoPrw/OBhbwUmWw9jSeiH33nnR99552Gu7UvlZQytQvDi0ae0+8TXRFKPw+UVqVxtdmR6Yd8HY10hxDqpGup++GEbRMK3VDckxjpcuvMlIjG9dBXNAjxX0e6bjd6aO7E2nUlLz6IEkek4xZiTFjPn11ky4PIgiHs8ozjMssGg83eFcs0ySVLuLyQ1KFT9B3mCLWHdIkLz5rY0WOLfgGPAAAgAElEQVSnOoyT0/AYrRTvECs1UZaUZFliueypk1S5hjbVPYnzCEbITexyrRf1YiGkcJnkGzXMlzRjzWCWSNArNnfWu5vJWd6W3BvL9vMH1cSFk7E24FvOfLbuO0S78i7s5CxmjJ9Djl5fiChJT6x5stbGK1hVqWKNRgg9e9qBEsOi8S7bmS/BXfkBap12S23EbCIPlKg1IlNdFpbshb6x3DkzMOOsbUVDzG2JnOPCZH2WbTlN0v7NikFJiC1MjuTOFQc5dJmJl+ykBxRMST5aC+ynUuUVzA7WOc6EHum9GZzLbovnNXxxk7RE9gm60i61K7T/WM8q5qxjLg612+mqWEppJvTKyjlb8KU0nmCSkw48cWrszHjDPduUSkqZjpHn3PhwtrFUdZZsnLhC08kQjSsTG2ICuIvz0MEpeBLVEZutMxLEjm2Q6o6ihaqcrHvw2cbEiTsqy7J0CGI3oZ0sCZuxb/OsjZcSECcVJZKEQbOawbg1fiyNLb3CbEmiFFhX6FHJGEAqJeVMcrXqdYrNnleEo11fkHptSsojkVHEWZaB7jhaxWmTaWJGaokhWVWkbS8JF1wADdtbPI0NW9klt5VcIaeslOKByUV3tmrZXMPKMKGaaMIi2QKI57XSx5MpVb40N6OZPplCMgamvjxWX7QzC6Nsm04wmhEFHadS+eW1xCQVp91co7M0H+/J3KubWOjlud5Gw6WyprDKJ6mnxFoNM5kE8nxqs8jWzPJw+cqO+jwisoWZFHNejDpmyR3QlJLkll2N9ivtEtqIJAXuzbZF5dj2n8T+xFFIXlRqxGacTPQkikPbGftLL8lyh0nyF+s/Nra4qMzZ/mh6EhdXUpjOqWF5prQO2Ky8n5JxFvbqzXYT9ik2PniKKthTOqJWZLJRmcj5n4//41+dmsqe7Ub1pEztwvDCMy9N9GujRScubztC7HFFZ5mPn9gT8d/Q8LNRGReHNzw/GYvSziwjCYlF3EPMYprk1C7rudIhvPxourTGnNjTKOkLyZSNbueZMu7vngeJHS/0Ic6UigM5ly3IPM4lQ6+UWKtDrtkKHnFhfItTOmCt+7h0mkkyHm/WiQUUFRhHazJjIU6slAhkgpszBZlmq2T+XZqBLewMGYsubGdl6aKv9+JPeTI+Ccn8QYWaul2uOWODKBuXipI0Rd5mD+evVpyqVxc9bVqAjpPZEGwSMynFXpP9aqtCJ2GlgCViUdqcsqxwrM1nJNKoYxZdUVjvEsdEClYRxQ5uhV1amTZ6JyM/Zrt0H7nyNw8oznyGc6QTPS7tBJ7iVE7e7eR3GdHymoi0JTNIPJHvzPoWm2p6hjcV4HiHqNcc76/WhqZUMmZuM0LZRVphZ2twvO8y9nHvTQNhC0Wa8O0+aQfk54/bQwrNP6ak548rmdJRSXsZ7LXktHnqlaCWSkkh68co3ZJKDxvZKzhnympW/Og771RxYKZ6UqbDTi0VaKw9y381IccXLqTDcfn+aZpOeyynlCp0dolON3rjmo33ChMfMRrFkKQhy6exTD84cU3WYzrz1TpxcRD8N/p7T3IjkucBaicXbeaqNri37HRBt6nWiY6OLTN+j6MficASIyV2W48czp5GJ3NqqTwTLY2fiKtpYnZMmZETvykXRI4bieMbGEwV8RiyuVjmmrEnTfTZRBQvSMvkTtQ15nLfNKHCzqZcksBuzDUz607rk0OIHJB8kMJJ+oHKiOhVZTbE8RmTMJ9fiZrSMQNHfOXp053iOFx59y2boLUyK+0DhSR8livPlsjQY/IIk6S9h3OULNeR9q+iQeuZK8cO/MUeZq4O5GzO2O94DEbGk6SmufmrFs8bjS48tYlnlstnk7FC2XIBeJO+FI7UGesbr2cPKXsp5SyrGdwoXbYfly1pwZo1/mm8T8yWtVmOS7t4fh8btfbjgnnmskH9v5Wb5JP9uc740oIob/+sh8IOZvxY5xPFk9qzh1JyvNOkY7pT5Effrt6KmepJGXv3dWOKV70cGfJ+Y6OJs5tMvJlABJG5kDJXNpkTjf49Bmqnrj/qaSfzC7IORKxVpcPCIpzJGT/C92rFU6kHkg5TFv3SyGc8LMl4qY383AXlMs4lIda54P3tvQdeLfN8LKka8wW7HJlKyPQKJfUhntTUTDZq5SUyxIAai5nTiqJNDohaJ14BEUcNa5xPzpLESMo2WmlQaIgTVUi+Wy6+S4qrkLCTFpUWMA8WqjoV6yVAOtmzYIyklebeNJKJ72OKedFdTV9JF35y2/BcSD5KXp3TIa4C1fk6uZM9OS2e2aiorD35LAxzfwyB3CyJStMk0r5oRIMumY4yyJNEWc2exBwViXqeNBL75AO3VelOyYGcEjcZZ1R3SFm6uUnf9iEvAz5eegSLU91J8+00GRkzsNO7WT+xvZdNzpZrsWE60Kbq0Bwo6duhNa0quQKQqtEKItPI2a/bDxIgkgVEVtBIis7kgovP5IIKX8onQ8UqV7bixU71OpemybkI64LVolnz6ndONyWdi0nFpMyCc4PuQr5KRigswEzDUNxq/pbWu0s/a2ByhV/Thm4bonER3uxA2v753XLcNc3jssx5zemSa0+eQFBvraFGplNsAhykdWzDk4xVsE8Mftx7NUDPxzdEyHJCnpzRKZHYo2Kf0khq/SVP6JgdNA5Z18h+3ZsidOKqPUeI/FZd/huP4guWxD3IALSOt5un/jgiM/RtLQslJsalLsfunagrojhrpmKxcFihKeYRuhAW0vxkRxFpDomr3XhcrWsyG21KuZUuvJRwgvNqK2M/nSSQNnOOMj4LU6kXF8UhNtrerfMHOuKh1+WJSRwGKEsijiA6L+IjzUkhb3lWiZspz6SE21s0MiWdxw7DOW0MzlhOsb37JP9qly9rP4URI1kMYgqNZZUXY5IzkEylcZcualptfuYOg3AWab2Sgpoeq8nO92StzJW5VhWm5mLJ5pKPtyOxSTGYWdbCYXJyXvzLNqX7i0M1l5qalLgl9geOolov6Pk0We6NtqA0YR4Sjmc2pe/sg8HSA6PybnAhobtNifd+fuHt//6LKe7cJlRMytSmPCQTsCMHii+267D3BF8L8SnbU8dKpIXrEAcR+xsVGs4smzU/ZCfRbuqsB5Fr6hjIfRoRiJLOpMb4LFo4dXYcnmOcjoMr/Jvm0NvI6swyFIqTF7JI0rPIMOMyeZHyDskrcZz+VTEkGoPYYKslnLWBdOaahVqhC8uwhR2/sqUjbooLRAves2tm/ytlTmTiVemohveFH6RNlIz+UF5oxtaSRLLfY72pgNJWn7l4WylZ13DWwsJ5C+c3CydiV0hilP4ax/aSZuokRKRWauVLo5J9TXT3cmmQNA5rTLr2Qqs4fLP5Fp3iuIlqu08DubacTC6bvqajYI7MeAPpUV6nw2RYhLNmZIIU8gRX394nLcmKCeIuZmtEEvHmT/FmfA3oLpR5DJxJS2FdKbkotJdU5Ji0va+nyiN9Vo/20di7Ja+SRElG2Cwpq7RheWNtUvNGsPCSmnCuXEho5TrZwgpdPG4hWe+9d8RTXfp7MXHbj70m4mxm9YHJPo6HT9xLC020Maf/eQovAmonKiZlFpyf3jN8ZL6DyAQGqzvsT0VMJyg2g+gkzLt7fBRPIdTFIJx0s1QVpRE5tSR4Hset1/jMxHrNgvh4l/eE7Foh7UNG7cT8eF185/k1bdEaM8PtfXRnzpP3fPd1LF3NmJ3VKVqQxR3OmuMzlPhsn+4WvSonFsd48os5nfT38jdY5DUlZ11DEn2yA5Ns2GakjlxaRFJjST44/jmJEtG5lshcMrHMmdo1Pxa/Okee6rEaZKmK01gobUo1XXrtaT8nH5LgZu4n58l+4tuJrYzU0YKkuolkDSkvJyhkxuTZJ6UtUqDskpOjo9z+Wpa07SjOfuDwzxWfPpk3KyFbZXaH2Irkpt+8GSSByRwU1YzupsZowEpGTGJnk7/mJ1sgRkbl542KSryFS0rA+IGsItJ53kItGbdnylArTlp2UEgUZK6ZGEqLXLaYMR4dDFRVIU2cA4CMS/K4oGMXYy20ZutapnjS9LqFeGmzugVZN8MNUsabVfho4ZiqtwkaI0xOYv+SRKSsrCWOiv1nhpzCqMycUivcg22ZRHXaZkDcg0orfgKvVObGPDvKpC/LBm+ma7KzOfNGkmQaW3saxzZ7ZjsY66x39tFxWiuddFybL+lX6gzYuihQyLPbY0Wl3U4ODhby5Akn5W2S8SqF56LYBvVfokFskTjNjjFQzLRu3rFN+oGPSspajZYBFZmaMBN9MRLEK0wvroR9uyo+50UgRe1IRE4bg81XXv5a+Fn8FSlm1ZF44hh5fTrRwFFANFPSQEgNkLEvLU0emzLJqbKZiksMsxXJ1I82P09S+UmunfmsRnoJUy7/mcjzDVdaYtowfVq8tr9Iy/JRpHN6ptFKGNVwwoeISJDhSc5aXjjOqVi0+/G5krUxki9nLNQciMAsiUvSZ4j0TVQm6sYGneymxzruOqkfMi08OqNgh0/3UD9lfZdtrk5Kr8zdJdmRpLgnBLOdLg3RIkyKzct0WNIxyXQVrm7Jtg5NGs8sYqW8kI3zMcMukkK4XrJ3Zqgs4uxYk7Q2jLfTwtB2yhcD3CKdOFVpXdLgpf2r2TQzXFo1RPTO62dnmFaLqJiUobFGUibQeEbQJzVvt8eDfXErN3fjW21CJI3fpd0uDVNinnSpZNRRbYhDH3HS2tgQDparGe49mVnxdmZNm2zS0d0YBy8ONK6eITOQFa9E4oJlHx89xxM33qdPbTEjyOzxzCNgiPhKnR2gJMzn8nInh3bcqE7MktS8Bp1G8kz9aNTLaiacybx81E4kSYTmapW6sbdcJu7N1G4up9NmZkN5jiv8ZdeWBFN2pXnKhWNJ4oBpq6rbTAOR5RkSRWLt2lM19JKxvjlgpFnKO4JUM6mnNosezD/FIGMaDCuSbCfT5JyJx0ZSpQ+njr3KXlp7sVMqntLmrUmRCBbPQS2mGaW+1pS9qYpjUrKOS8Y37DNpbJ+yfVmSkEDK28K5eEM2lOjNgXabajjulRI6jX3aVXPn5tlVlT5ggqQv55nlji97SZthHcjFGNpmVtuO4s3VmvEsg6wotGwzsWIqV0pSl3Jx/049SygkbT/E3USX37AdSY3HTOWVJaUhEojsnKMpzPRGpUL75/Yy9WUxkpvs89iZ+rRSaDkVkzLOT28CL6nRiaKIlSnZunXxeFZq8E9OD5dhvkLaaXgg6c7sJo2y0VZoLj29nipG68zyVLhwIrln0JjidSdiYWT9S7RBHWfQHc6cRYdsoxUumh3/kE7HsEtwJoYbEZN1OZf6NWub1oTKgTxoJoUYy9rGK7LfTLmkV11cblFGli8e19VFLk8m9UDWDZFEvcSGxPAMGa4z7s/5tBWkB6QJm3JyLtmiZrq0AJy2DuJSzFq+/cwD9cW2b3fX5k8+rqmycZqIdMxE7UnFsVS+WJeO6yTn0jLmKTx7I7qe1SrwQnSXphSLziZg2gr/WsgsOX6HfGHSR/qQS81JZUyCacjOGiCN3MT+8jsuY4CkgmKQskh2doWcUuF3IlUPSQFZH5pI6bxH6olIGqCeQtyQDri6fCcv2Ui7nA7wxCNsBFCHwSMz4kztDRlRXKQrkMKx0U+7JFO+WC3SvzkAyKhX6dIW4ymT+TzSVTi6L+felmCQ1+X1P3XO/7xij5apmJSZCkWBmVFQrD5r4/kAYBYYfNanjQvW/qAHeo4clGoXHpfgHXkRg5cwT6Lz01BirvNSM5JLQNO8ZVe52VjMTgKvF3fknPjmTBqJrzURIAqXQs8072yKJec1PqnDNQ7IyXCwuDaX+tPSiGlHd5LonRnJ7icRPOqyxBauaBEGznF9pEuk9TI1NzFe1Yn3SQKCFGAqC0ozZ8YrEvPywjAePPvkeNzKpYeHIgv14exzgrhYrECwBtmxJev2Y+IstbTibcIuKXwrVsSBm8td0xK0G0rLThSSPWUy0clF6MsKRv4Ey0Qd6QXFZFHB67+5v/Hkk+6mg5ci59LXHkn/5Ytv40KUaLEt5nSEgGSMxFon971zELWC3o7ySR/JG1romDZJySZxxUnb0Ou7JG1NLalSc6GUJq7EBVhlolkLquAUubdq5uxvXoRIIfvWVNve7YF5zbCycXq05/LhVGXW3roq0910ONT2PJ2ZMqJZDvfEz/RydjSxIY1HbqY7rtNyFrbagCbjnCuVL2YP429sxCzslmw0X50jt3ApdX3IdX6QOq9zC5bQwqVNMJ2ILpz1Z0/Tz0/W3x7wb/9jnAQhnxrj8nECWYniM1fKgcBRvBSI07nqggoTJZkbMqnELsJPlYgpe5IZbpOS03u8nde/Vi9ES3S8IbhafmuU07tkw/UYh2JRJiZv2u9syPfxu87vUywi9a0+q+jMo+k2jizRQm/2SeYVTKQ2uTR10qhteh3UN4ZZ7VVuaElCMegk0qGwj8mCDUsxG8VeQoWfsp+jG+c3TpjFRnw3CLES4iZmJ2uIVNt62WKDCJG0qCw7ibLk6hbJFKo8q6moPMxwmcmProGI405ODRABEduqWfQWCsc5fb5iPGlumCoPnyzzluw4skHNxaE4FkRcFFxKRt7lFS7LiVhuOK4PnUnTm7WtIXnFx9q1fdA5quedThqerMryEtjtI3XziuAiTZt/VJlpxtUA/eziOrO8cVKeC28/cuqs57MPWn5ZDdpeYH2l2MCSwlgoopNHMo2JxArIOMjEzXt2kOpwXFoEYopLkp2Qia7zY7ed9bjORWaeSJlip5uQ0v1s7/GFn0yzdUtWuvf9lvs365omXywLl7rlS2n5lQvev44unPVvD9Rf/1t39rQOY4TmHO/lTp136AESMkLns/Gq7mU/0x8pulIn/doUh9MlJaZve5EmvIc6aEfOyzYtTbOU2Nkg6fTcITUuZuvpa7XiApSobDyP1vq650AS5UAwhn2G8+bJfiQenTPl+HZb2S5eQpyOc+S9BC0Kp7bDZz7NnCRiNtql2ZJSEnsSUZhkOXNtlH3xdTOYZTOQYjeKiHHOGG+biexn3bJPjOE2p64/y3guVngRRL6d0qNDM8tiX2m4MvbaovbWktQ1G81BKmj4wIL2i60sFQrJKJDIn9iaJHem3kPHMEWbp8lRxKn9Li5gS8eTeLGa2cgtlOrcgrR9+liSRE7aaj33dibQSo0ZYzQ+ei8KxqkIKs2CFH48u5eKEgelurBYpTZS67iGj3VkZRz5RKcmDT/KUEUSIFW3rHa1vmIK2lfCK3K9KZbQK7gWnda+/InuKG//1sKihLRXR4X2r1LJeK9cS1EhzSITXfNXTsEI80TKSPFPpSYSRxAah10cVxTyIV4tXErv+63alb/TLJsnYeFSd+W6BVeuq//z39Frf5v4LWNZcvFiQm6emr2m04un6FaKPT3+7IlYqVjtIsqD0i4hn5MijOqGv6iRlLoMryqMryNZrxBvzMVC9COyFkHnockMSTmbS9EK6tJCUuKP2JVIxGV/Yx16HmC8naFOXIv9ZkYdEoGjuycvBCxWmdaSVoFNO4khlB0iWXXpOldKGo24dD51ugrcpKjFwrZzjp2ThwXZK1yRht6WXuKsWdqacQjPAV3jbnpt7zXIaQOxhnptDmq1LWedrEn6fVnpmDEG+4oKR5Q2ai696GCSHwoRN9iUdlvH3UxGg/ik6u1Yl8sAYvoMJ58ZEq0wBtq+UOxhZQMoseHzqFEUQOZxB2lHs6G2rGpIupq4Ys0dmYNTE5IBMlNchYG3kiR4bs/+oNcbXGxpdhI5qKdMrXVcsJ7ILAvQOsuuNWz04V95zEY8ZVl7sx7WmUr04hFLSy0pkspKlomYP2tlpjq3ly090eZiBZFEwHiIW7yydsN/vHg6xlD7wMdqv/Elt3RlGqcM2eSKbaNm0td8DTsXFnGEAYPQKThku1gQ/OQPLmcZz5Yg5axi0EIWJWFPKieWn+IxyQZFasdGAkoLRLyB/VG/xjUKfCnmXOIFZVWCzEY5KQcnKWWJ8xWliB1i6SKNp2gpG6Nl6Up2yPe3QwDhDiBZXKCnUM3gzBWmxA6Zo0ubCIdRMi1oInOMJ3ZpUZspRTbYkXOJunV5cgVnKvWS6rJkvEeOLSQnvj98Sc4YbDADZOIEJN5wS09yrWfjT8VYa+y3OsabtO1SXuey4nXO5sb8pBZaIa6dKevOoR6STKlHk7oJDcC51F/KneTpk6mdKUaTmIzeyr9ccCbjhbLUsyeLobhVcw+zYkTmlTgNnifmA7WE7WobW4Y8feeT0rIfgoKI41c+3YPtcBQvMuwpvBxI5Ow1HhG3/2SMpUjyg9eVVbKesngAnzhLIpMvUkqXDvNHytixgYb78QcJIfaD42Zkm8XilbVf+SItvbLJFk8Z17l6wbovuqUr0qbtCx9Im38WLUqCh7gLx73Ps5fh7uIoPorXUejKobuGCBxcl3WyZpkih171UMaH27smdCib9HqwdJ4jGiWezw6kccqJ50tUgiMRY+kCUv41O1pGrLzOCpiV1KkYjvLByqmiF8/MsZba2ilrvFmTdpSfQlY9O+PjbSzxNtBr5ej4ftSxXEIigNSytL/41Frvfc0sqQ4XmGyYJKKygZKJPK1HjgxxPIFloiTgOZonS770gtrIBG/aQawcsywr6/ecdhqN1DDbcXIF46VFu4mcjzP/pGEyjthkG23WOCylKUgJm+TlSPts4rze7GygrjK2Q4Sx4sJ2bfFmaFX31cImid8uqTJOXjqOMwK+5BYNnoGkmJGY2TyCE+/L2Y4dNK0Cz6fj9FOfaYUUX8OYU+uethHb05su4yXjrOPUjzjJPNn9xSwpJTs2Sqxhs8LUSUzjsfQWdGvuvBt5acQ8mWCyTLrsd7LjzTigI7doZe36L9KilfleF87S6Gv10wM0+hqNn6ML53iOIdgQGzM3VxOt7KoDH/u2r3u3cAkt+Tf0S1fWLl/jLv9QbtXSlQvW/cfxI1/3Y7+IhsngrRVnGhvtYmGzsNBsZP8mK+Y477EQ4s1UfIUfekvcyGd0PCUfuhcvXpF5hzAw6z3JrAZp2QYPpGFSLpgd6YoF0Qdmv9CTSy5awkEyxmoe8ut43YYdXw5F48zCGll84xLnHYooFICLCYtd3p4+zR0R6bCzpGVL3ThoZyWeZl2zkOXXtNJUd6jH5DLO981tIhuW1DBnrFWTJhBbevHp0ppM7NV9QtF4KVI+dcx3qF9fOEs81s5ASXzQ2MVTStwKOb8uyWhSmDILwLUTnqiUVguPKthS0K4tK1RkC4WptGgVr5D1eoORLRBeOKajHJ53KH0ruDZCfeyhE2fjs924sDk4SpnYXNQ5NTbAeg6d5nPSbc3hyWsP1QD1M+E/XbVqRuxiM5DQnzVOzUGZjDS7kJdssifwrAjUU5YtPjaLWmxnSXZzzu4mjSPUWV1W48WylVlyZ5LiLNhBYTvZamZRbcNgN5K2f6nUtDX62Mql/V8SzEMpMyWcWfnWkFIdU3/rsP/p39HYWU/l7aXoLL3ZzdmvLHn8hXP085Pu5yfHf3aMlqysXfux2pXrkySWrqjdvG386DeceQG16aFWfxlPE/pZ5ggdi/pENBBZRySj/T5Ln2+GklUyni8e4pI0L0Mg0XNpACB2enbBnXRap944riAWf2GEg7NhgEyHT81UbxxFinN5aBR9YHyBqToRHHZw2qujNHVq8qK3J6hh4ZvmuB59U9ogCohy43jPXj/ffyKnpWJanKcXn6pKxfmsFfDhGv4bmSpZ1C2m0XFzTAMAaZhMBm7SMByjk+QvHmG0cqwLrpRCxytEI+199ppCYqms05Rxi0KT4YiS9HKunyxUs4k+ySbVnKsTN3IOe7LMQRdPcC+xtyylOZL+IpmzOfek62GTlSuhy9owb0o/KTjTBsVa/lWyJH1iwqcLGYdncqXuT8sxjFO49Nh4faFL+rlFOe3fiRCQ3Ii+UmcjGZLsxE1ysLMpaGHoSmpTCOIt05PG9uOtf462O10+HLer0KE046ZbSjs3JSBZLq26LLV5zvyZYGpA6ahv5nx1z9jkiIhqV96Z6Rh/4ez4K/+7H3qSLpxNPYdp9TH9mFqMFvyTdDfH61CsQo/d+uw79R/+l/ETf00XkqdHu5XX1a75LTPs5LSZS8vWOJCOsYSphxhis05rvjvzQQSERqMwDO/J8UgGLwSWgeuof3g2igtb/KJqoDh6HY33qmkozB+xhbLdOh4ZpZYwx/3Xkzd3TEvllwRhrUANoMbncmnEQhT3ZBqPbVlSlVxB3pWck30uf0nbptnbUdK8GsDmSlmT8ZMapcWw6P34Xq+kNZSIomKpZR9sZLWaL1RRMq9EEluybunzD1LyUe2YdaUxEIcgLAHX6ynycQme1JCs8jENCjjPpdfaZGPMGbn9k6xAl1Ytv5s0va/LgdzR8kWlWkZmHsc4J3U49jiue7sWSEol7/VmeZVtNtHsOFljQqRPs8NJxFmWOEujS8rL3tVsxnSjPJL5Ji8XaNHEErdtSpSSmM2iyNjnjKU6YGSTik7YyyCemfvKzkpJfcUalgFrL34jOdi5QmJGUOpcmFW5OrTvbCvX0hBHmhWQphGFIlkHVx4ES5n6nm1FVaXMtIq7dBlNSQr2Zg0it3ilu+JjSTrvvTP+w6/Tu6+TT5uRjXg6BkjSB1IPG1u451BvF3WaZXfO/+zY+Pe/kamZ2nW/E+8DN0MD5uzWE2gfS3qLXFKaFGwGNLnYa6NfS+J3ajN7tPQO57S0dbWK+jJ2RGbUI82Rj3ayqzQWenYdnkOedTDhbEZCWp8e75P14RJbRVgsnXAppI5VlE3ICUskY6aWiH6Nis2ZHNkKku/emGYTLcwoJN9lqZDL688unKXYovL2HwN7yWrT8gWo+RJjkiEEiWBZllQhOfbF1n6XZNAnOQ/v5JMiYI02WJ4AACAASURBVLcu2dGn76i9aRApiUe+7KO9GyjPdK617J16ZRJIml+iJLjyY09KZAGfKFci1gyftOtElMhoSzKCEdu7d3JGU5/OJBubuJOvMZd8Su+97mA8nNM9i3DHj5aLpufjVCSJLPM6wEC6dNeMu2nZGN0vQ59WzFrDJF+2pTl7gWTqQu3Pm8OE7YjzKF+MCyrumRZWMU2n1wBO1ybGerYqk2Q9jV6lJvmOnxy7T9PMCnmbgIre3FRVKTOz4s6Pkm9F+ezIvT+/X6k++Nfu/GkzZJknK4HP+ObY5D03eG+/2uhCzi1cSis+WLtyvVu6Mi5S+flP6z96MjGiY2mt97f4bCWyn0z3NkHczChxyCsMcrBukA/RmxE7o9ArHQdf6zO8T0vXGYkmk+JxzCb16RonxY2ZijHZ8vnfMgeS421S/DmO3EjWNRXH5jh2qyx0sqCnckFDLO+ZTpmZCFK0VrKem82pp2HG7mEm9dQoezGuta+/6gbHW0xTTLOXmBPTU11irnCTG6zEIKcbgkvmak+kqlyY8v5mOtLlGikKBZNfG4ZisWkvTI401/teSkJs1Mgk84Cx0WoYdjyA4LVV2WIW2ZIarN7Cm8rS0GX0ttV2RSErtafqgptsocI0/idpaOOIc7jp+U12RFUYOa+/6lliOpy99DQuaQXEakXtKW/+LugzXQDEJcWf+ZqTG4zdoXy0XSwTB6x+i0eG2G8m2dQuHUcZ0+yIMbxZmoEqKlPaSfsPtkvL04YRy12qgI+Kl1iaXyrUu5jsk69Tx1ztNPCq7ci8WivjkjWYDfeUZ51I5xYHH1x7bYlbuc4eUv/XY/Tu6/GQ2KZ099h6HXsrT2RWqXHckwDlpLGph12yYsHNX6QlcT6r/s9/V//nZ4jI/+you3KdW/FBsaR2zW/VX/vbeLRsNY4udq0kiCergONfsUWinKamUdQ54sV0ocfpsyt8XBnr4nKL1JfIuhnpseZX0x1VBLkYSVwqs9RaWSijUdQEHylvPdausxBfKCMKOixEJPYn5Rmql6MRL9DzxA9Ac6bgS/2KZNOOABRUihUsZpPjDPj013i5zH7O6+6O12aaGTa5S4zNTsvIS+vwKg61vTjOpnYu/i1tMyaLuhogLk50RGa9ls0Q+bqJ9qb6HJc4mUoiHdSPleDl1DZPZHdysXI1O7YaUmO87G42e+4gMWSZ9qOnCCnyOa2MIyKJWKlLkMZjaiqL31q8jswSde0EjkgWnKa1Kn6osLxa9aicPFST3puULI52qUFpRclP8pG9ojNexCg6m3LmZsJxZrSWzKmIO4StMPk9hn5n56nZzzqpQWkvoRW7qA54BxXUXotN6lxyYBYsmxeiOTnKnlycpSyKSopSSsRP0P6zwrelwaabahCvEM9TtsBZkip7Sp5elldtbKaqozKlJBO4hqLA5HVjdqf4Q/jHda3JD/nZ3ybfZdKDvxYuB3y8vLQ6nkefOfAotWt/R3QMEdU+8DG3dGU4Q/1H30kS7ljqVn4wnlvGZeSz+MLiVbYOe1iTeMDGbowjExrPHJFeJHCvDjvJdBK7gmw8QydxnDGAr0Y88aV5FDvS20v6kgZf3sAdV52e+vBgjOokU+Pq0olYjqnNSYnxmk0nckGtTYs5JCYV4UIsj794k6pPTpFmrpSSfJdeyqbJOD2F/JJ1BQkjXndLf5JsZua4JH3b/tV72vXZJmlvE0nLRvqK/qIN3LRbrg9Z3MDtILTlZPyDbJreWlUwi8UNca0leeZZUhuBCxGcJHglY7XFdm4KQ66E83VFRGQWCRUHKkJZJOtVTBnyHjwJlwXR1F9pzyhu1CEQbkIxowV7ufSy76aNSyc1qWUn565XbKrp+dKqlzU6OvBj0jdzTLaXs9iIpsoCP9nJ2qA1bguJe4Ed8rLfVUJJF026sRcvkle6lrjJdCwIFXt2CjFWjecxJEmqjMqJlcbMKykj8KpSZ7/mSGiSFmV/XH5dkuD/d5TOv6MHph7IbJ7wPGF/VTDOpBAmNbo/mB/JW/y7J/3p15I0V31I9ERugESXfGCDtAfoZhEuqRqQJMvXZkY15lmpEBeyl8ckqMsKDsXesMPRhpMMHkg9h87L+BJribVCkjNJJ884X6mlrlAkRuILyEgfE8a1opIQFAJb1nDMigoinVlTaxKLU0+Z/WgNFmuzLNtfxR3GktT2rzt4afh8x43JajxWhmes9M1VTuk9zS77N1EfxUwEqWwamZR8EumTmGADq+nackAshIkGaGXclNJaTtuUxrYJ2r9RZ9x0ZYzD571yIs9g8xdMMpORFCeyJH+O7JBOMcxzUmkZOmm1SfunVAXEz8mDFUpCoE6oitpIK87JckNpV96XV4Uv2mbG4KL7soVsUo2f8iape3gvrTcUjVzy2FhgBmKzW59CSlYqpd3Q5NZYaA8UhcRN0boFbaTJqbQNp22dKPvd9qtC0UbfqTdnlU656e5lE0mVm12i+SdlkpnYSVUnOwad7JTGlT4Qrz48kB1WcO9pbxMrFi51y1a7961371tPXR90v7Tam9EBzxOo5a1t/Cxxf/OnrAHklq5MGvGETdbHeEt81VYIXUaWUOIRorPQyxn5G2+3diZdIxGc2Uf8cVg/aCaSxHJJybrjVNMYyWkCfmZziAd2pCoJh/HKlQoayJZHmVsQBSDzYN48QcNUupFZmphON0pZ89lMsdl2mA6taHsuqoMs8KZFGwudTZYiiTniMhWVkPguR7qmQFVDmr/SWEfprsSySLcnAdXcqE9GE8RdZWwjKwNHWqhSiMX+aA/SsM2Ztm5CA0ci0ELbLTZZ0R4uqwpnWqBcFhtxUeKRnMt+8t6Ua0yNnyPgkrVQnHCMxLLQLena3DDtQwd8ZnbUhtyNsigmXsP0N11oYkJt4ie4mFTn5WYT9x82wpku5rTHi8OynksvoMyvvFqcp5T0siqkqTeSq0TnhMputkqqTnu7+ASZb8zKKx3wN41Nu3dM9gObrvjg//j+mFTh2oDbv9eEsp/0a1nD1ow30iXzZmxmXq2VoelWTBq+I6FJLF2dbDz/jqeowq169vrsNXaVwS8sXErv3+AuX+cWr8hPeu4dP/J6/V+O0enXHPdgR+Tf/G/uut9T086+Q6cGojne0y9OJ4l0XmnCUXbZo5O8qgziL7JGwydbXOz3MUIsWykdxZ85zWHDe9v5taA9+5EYUT1fzZr55ujceRYqKWySkMYzy0WHb0KqiA6N9jr9o6FRHrDmY18uGaMKTtnMyvF5JP6mxzjnUlfEU2oxh0kK9lCniRNbJyZopig9W2pVVmo++cDhzDteW8OOP7wvx/3/7L1rkF3XdSa21rkNoBsAQXRDFECAoiA2JOsBSrIkUC8TGksaQrI1ITXxpMR5JKZSlYqpil0V5Y/K/pGqUf5N8icRk6lKia6Kx2SNa2aokTUmoLEnAmcchZBlkoBGIxFNiiIbACmyG48Gbzdw71n5sdfjW/ucBkDKsnlRORIb956zH2uvvR7fXnvtc7sVq4kQ4yVZ/Kq+XAyM+BTB6r0MjwBsYujckze4MyDAKFwRo2LqcT4jAzFICGs9h962uUryF8lEMhWZTrI+T/1j031iIuRvRDJixBcSwFsBbiAv4kdVgV5vAX5z22BGlZkL/POX2tU/aGVDiWwMhymJOOrOYGCZ8oW58cwtVwQfcswITg1yM/tfNSI2R5hBYpRLZpGQvyrCM3NtTo23QBiYgphrYmeF27Z6cplwrUHFxLVib8mBjDplo/8+tkEMsBVEcttnd3/0K+8ioi27pp968CelT58dt7QdewhlTEn61BB+7HZ9He1Nl6H+Bt/o16RCmfXm4DW2Uumo+cXudWmZQ0zNe9qrJiCmIM2GzbTrYLPrIE1N93c6PcfTc4OdB+TcQvufHqLVJXVVzx+V0bDZc5A2zNBwafwfH0rkrCwmwqdmwBlJJrtyCjC6PqGNNovCbpkbfPb39NnFpfG3vuqms/iMUiryY8SsRICYMGlptyU8euWa/BGvo0OenInJv5Ad7IDMrV6sdmN8mCqrgSXvoNg+e7lf2YQIi+ZjLC1acjGXwzACjXCsJ8l66nGlYdrD0LCbPMozVZJFOZukYurgBaPYWoAqby8Ms7hxTFz0Zile42UICZ9aeKClWEiCgLH9Vqu6jZpkCtb1PBB3PyoljCHTTkVjDmlvDuEBoit96Jbgr06xYgkfQww78IF5aEC0NcrCSWCQ9D6A6vTEIh6mLJMNcIqxRSOM9QEH1woNHddInSkxLnJMO0N5InjJmwmMZzcXrVcrBLQzhQN2EbUghisrZNUKVg0WSC+HKQxjGhHEroLDngmjcM4MNYWkhV1y/a2jqdBFqaIRnyb1KCLMjZiJYDcEDkxwIoxB773vbUT05Nd/QjBHoVKSmB9KiMeyIF8bOOh3KN8B7kwgZFnvmjAo477zr2YOqjY6Xjau8ZBQNMt5CBd2s4XNprnmXb9Fm+q3A/defOP84MO/1558RBYfU708fWx8+piZMz/z3BfJ3zATKEEDHhmW1QdmjFAcLFWujCvToK1DjJPDmZliMbtPVRMXvt274rgRFo/dvLnFKgud5F2ZAzrs3kfb5tQYPXOC1l5NHRk9eQ6TpdM1oLAbbjIIQh69sA/mGiVQDGKNMJnuCBlOCbmVNkuaL2NrrHkFp89pV9+ePHNpsAffxEMjsE1lzA/b5Lc+KG1bhFJhNIRWnpA30CVwoLQKsbBwjEB++BgccRwAcWzX8/oXwlBHrN3Z7ie3nbhkE+dQI7fPMX0E0MxucZSjVBcPDwfYJTvEV3mmvN0X3DBdTqJFKC2SCUDuWXAAWkjtR1RDxT5ACeJeAH0q/45vnCpWWyBBvGPYwMC2DRMMTZNt9suNkzMqYESPEEbUsASEnBmpKlQEKOwyg8bHFNzPlDuBjLoM/5YpEVUYpUV5IP4W+Q5qTKsaeebRM1t3zdz+xbcRoBmEngSmxxQzWvBZ5ixjEJC3GSLu1aDr7JowKHPtCKYK2/RHcUBraxfS06IVRu0Hi0abdzfvul/fX3fNV7PvnnZqRn5ymDSWqJl3sG6Iw88dejTkifck4QCqtBNuxpqeKMx9JfMlDKP6y0ISP5sCdsU0PTKOwpwJi+fN4EFS28sAFGZhnQwo3X5w884DzTv1hPzo/AOyuAAFFBMVew7+OB1aTlEZBC5o+eB1I8hRX+zEBjybs4ukGYO4HjHqct78bY+cubXietK6dxLZhSzM+FKeeQCmcMcI93iW9SnQhW8zubOh8AJlzjFQomW0bXfi4ftNhLUi+GPBSJyiZvQfgTa0X2BZEF/zhZzHTnryLooJJO1Sue9EVAGNeGXPa+3gs2AI66Bd5PLssTlDvOlDhzN3wGW2vUJLOyvKpRMjyKbgP+ygukYaR5xRZGt8AybAZpBY6hmIz5oXYB2eRU0cx5iKWv8MoAMUmKKfOjAS0Q6H3xD1QvRDJVwSEE24aTxo6gCnukJm6kHaSsYshhDQrzbC/UKBSjGSBIYIjCPRU7//rBC9N9AMP/n1Z01nMRgZJAVppurZr3no2IxMsv+9ju06uSYMylz1qsI2633tq9mHaaqrMnsUWtFMzzXv+GIXx8jakiydoMtDGg1pepa37OEb91Vlmr2HaDSUF47a9k1QcDUwXWMUXyjErfzeAbvNJBKOwnwyeigr6HbODIUaqlAhVP2w86IgxjkGS0Og0oxvMQdMoJm+FZy9ZIcD4KWYbG0nbmESRjEDx7GJHZBO9DRNbEUBAAiKiu2vIkdhseJ+bYpt/556wtfJJvfjGNwF6BVUd+LoEdwBq/dsBdsMzgPLjEVZ/gwtQdUrKoshBgsHGJpFiYgtvvDC8ZmlmnNDCPH6lgAnCamUkbtTwacuvxnuJJgUNz2FBYdrie2E02YlzN8F1MlDKCYocml8Ehh+H7AeckEibNnERnapyhllpjCVYiOiqmX3l+RpIoF7OLePk93xqZbnQymlI6ASjAKqFgzmEcmYI+MtdTZNmKkVjPhU1Ckv7DOCEiYw+zY03I7E6SlmwRAjEOCfbRVm/Vtom8kMW1qPOYaL+Ao0+9TvP0uBZvaS7TSRmnPGzteRKEo6FUw25gQhr+GauENM1xuUuXLYxmMe6xe5MpYhNwxRnIiJmnfeTznDV15dbJ99hM4t6OJAVBlp01xz613NzvRTkc2+e8ZnF2hlsXYVpLi7K1Z5IC7k9sFMdfb0Hiv3xbGEH6iSJ7Ughih8xERhWNVhmC2JF/uSI4b4GktwSnNRfnbNglLWt5kt3QjrkuePwJmx4H0y42GbYmk47PfLt9Q8dheWzEymGJoxY6G02nAZrJkaT7C5Im5pvEF71hPOMd6SIUm8j2Nxq6YiZ44wAE3+OeI0VPgrtvnBtSPPGpB9FNzyQat3t603904die66TL8nAXrcA9nOj8fYsSEbhDr2tFUAE+vaktMO0nC9sGtXIpgre4BbQ0TZH5NytmZ5cYfmP21H1UllwwugoIkbBq1sx8iSJ9gb0R0haAHnnoPXFk6o58SFGRx0oE8/nciWQO3S7VMPbljIAhtiLZZRi812j9sVcfHXgbPOPkxNMT2qKGC7fNTSFZUAQ4BIpNLf4KRJNfl+OmI2m3GBLB/vFK0fTOJTDz5LzAXHvPe+vZLQjGsQxwGRkIpitiH4ahJlIzJ5hn3Sa7wmLo3mejuMXV3VfHR3neJzCH3fZeqvsu+iyExCza6DVX5Me+Zo++T/TOcWqCgZgxFbXWp//HD74/qnIhs8vuQ0mZHpKncamolrRFzR97LhGCpBB3fw1gL7/zrjZteOGLZn+tkSs7SuRoDdk+tYJByYneIuBtRDZW5M8rhsYV0+9+G5QkQgAmBeuAxGhnQ0mjt/8xMcuppMkgpcKpnx3qAqQSWo0cHU67qMKnDC+wgrxaSqhLbWcIxBNHdIZoeNbIeLFMWjTTHnw1gnQcE+ypDGXuKT8S/sTTdSJXamYfuiA/GFQqAjfVTGFWlkNtAQWvHxmedl/1wTY3E70limiPOMzT8j0MnUOkeEGgtiIErwptTnuRAEFYpy1J9JZlBttkRcvLwIdYZW1QEclofflUc0Hc4BNIod85NGxMzkmbPRns2sU8upa+CZTV3WAP3XgtOZLzkRV7mdnjqdZGHnDiNKXRO8fl/Rw0KlFQ22lSyi8NSDzz5l8OV99+19/xf3Vi0AE7wXHaqR7TnNUZhVbAj5P3Hhlmu8Jjsqc7UQS31VhTvbH1dpM/tcUz8m3nkQi7VnjspPvmErErU0Yb2KFL94bDxaHbz7vmh8+zxv30dnT2Jwl8xO96d3kvVBpE5au5Ak1BaWIEPxUN3NvkSDmWfoCZr9h3iLgrbxdx8iId4407zzE7xznsr9lSV5/oQ8f6JdeYUM06Q9I1Em8875Zu9+2rmPNs4QEV0a0spS+5MT7Y8eTx6Biffub/buJyHeE28RHNxxF51fLuXG/+9hurCsY8Qubplv5vfzTXto2xwR0epQzi/JyRPy/IKcW0LDaFCMfY+JNk43772Db53nnXuIiIZDeWlxfPQwnV0mosH77+C3zpeqo0cfkbVVZ1fzq4f4xjkiktXh+N98g5ibvfODTx6i2TkikoWTo3/xEPwmtRAxz8w0HzrAb5vn3dbXcEinFsePPSZL9mLGmC8iouaOA80+5cboDx5mIt4xN/hbd/K+fTQzQ8OhLC6Ov3VEXlnyPBXaPDP41YPNO+ZpxxwRyStL7Z8fG//5MVjqFSnNLwnsWmyAR/GwimazC45tq9n2SSriwR8NFBVdMb2C7hybeW8Bpv1ODlqEttVwIgAWu+cLlY56sZVj6+mIwcDi3gkI9faoG0IWIgnhhE0BB2OchgxevvBP4y7GejQTCo7CX0H00cGawDfCs2BIdbBOCJK4NYISRYkI+NiXZxNATaxJbkqLMWU4L/DXWFilP3s2dQqLGnfJQjXdrRyC8KJZceY8Xi+J8tLJ/LX5yPNqcs6KCImoBWVQtQJj7GO06Kw89WDZaerEZhQMRo4ijBdeXsSWpZepBSanhq6/a7KhzC9iVvrBNpitZLGImjcdwJCMrC3JC4cDiWhpS9YDaeZXjrcvfKe55RNet9l7V/vEgikai9jqfz0YbW11FLW66YXR/uDuiG9IZEUmLSZmRHjnPr7J8MR3H+LbDgw++HnaAMfOt8zyznl610F+8vD45OOU8aJ6hrk9gw/fw7uqtxvP0o7dg7fuH3zw0OibX5MLywG+duxufulALky8Zx/tUca0P3xcLth7d4pPuGnP4ODdfEvuYtssv3k37dtP55fHJ46N/8OjpCOP00wam751furX76UbYcfwxlnetbt574Hx0SPt0cP81vnmfUpS850j7epQecXc7N3He+eJSM4utX/yjebz9w5++UPejMzOmsdiIuLpmebThwYfvzNzYpaJaH6+ufNg+71j48NHakBD1Oybb+4wnvzBw82vHhx85hDP+ETM8i27mw8fGH3r8Phbh4m4+eiBwW/cw5tjpnjHbPOO+cHnDl3+Jw/IK9p+8ezFaTiIDpNNoADRkJlPsTC2RIGIdZNAPMgUyITbUqeFuQHXRyS+exK1ujLqUMN6RI+bLvAtgZEAZsUJGu1P9wvycDsYhXodXLhhK4W7SACXTO4IbghbWMFAiefSknOs4qehQzvHlLGCulmdVLAY9mYUAnCgBDV6olCgqtV0TGAxktj1cE6YThVwZbbABcyZWtkegxqZ7aUkCE+mx1ldQFhMSrbZboSDf+H+UXA6QSpAnGJbaYnzzI0lCDosxUSl2G2UignMIvLkg8+QoZn33beXiJ74+k9gx7NiBucbPm3VDnLoXY/i9F2xXzlR13W+wfTaLjTW3UehlbFnxEQ8ezsWlMXDenI7N5qsuMX45KdHcJuJt+6RwbQVUwTg8KOHJLNFGKiFdAQ80GL/5DUVAP31BFd6+UFEvGXH4CP3Jhzj15bZ5mNf4F37cOeqRDuaHbdMffb+Do6Ba+vs1N/9Ms/t7sNVV7wMMzW3zE/95/fXOAavbbODj901+PhnYuPd/IWINLcfmPr79yccA9fg4F3N+w4gR5TPee+mXPzLBxDH6E3/sH1u6re/XOOYfDUfOjB132/SzIxJYM9k8I65qc/fDTgmrqlfPzR43+3N+/dP/ZdfQBwTdd80u+F/uJ83R7o6rLUpberZKBUGp5F4XTgvZv841WHdU+RPSIr194wLpM9I4mBAdjLif0wlJNcmsh2QpIZ5yy8LWuicBxE4HukDYh9RtAXaZ0YDeBBbS9as+0IEgC74OLZSQDcLEnQLijx9tn7qK3o/uKduNE+JNeuIwGNhjGt74BIpOdaV61MgMMqwIeShSy20rO2nNBQnG8PMCS9G70Z23hAtLcRphBBT/yRZAShPfeE/4zixrlt3rtoVLMlJAYr0a3TmyQeffTLvNMV8xFyhSdZZCgp6vIXYVl2/Oa22nERk4nAMTXpU5lqu17oJ1e+39ZL8kYmFN6efOJBl+4UBNmUzrbW0U3LZ49FQLp7iG83pTs3wDXvo7Eksn3zGOlRpZHUdQUXTREQYnI3cADSYqXYsiqu9p8GnfouI5NJQnjkmZ0/x5lneOc8743zW1MfuHf3Lr0ajTCIy9cn7dEeJSE6fbJ/+Hp0+KRtneOts84FDvGMPEdGmmalDX7z8h/+4FGufPUEXloVo8Esf4t3afvv44fbCkipoCcmUwdwwN7jrXtpkiPD8UvuXR+WlU0RCGzfz/HsG+zXhevCxu+Tp4/LSKbWoIkzcbN/RfPru4OzqsH3qcXnxNBHx9tnm9gO8fW7wt++WcxEmKd2i/dNrembwq4dKI3J6kZaXiIhWV30JOPj0XTw7Gx1975g8s0DDIRE1797PHzrAMzNExLv3DA4eHD96uFgq7qQMTf139xNR+/RC+9QJIuFb9gw+HEGswd+7Rwf4ylL75Al5/hTvmG0+eoB3aCiR3zTbfPrO8b8+Auu4WIBGTM12S11AFLvB94RFGOAycsb1Apb1nfU3E8T2PXVR4ngaXviT7IYVwK0I9QUw2BNSEK05sFCidHLz1pX9GxlTFsyIXRs7+Ied2hPMeFGWsUYHxbZyUopouK6SLQv+m/1fk0NNRVahNqcrAWLS7ATHDC/axOBuiVC1MU3EzG2rPtLG4bWcPONEdIthGyo9WN1MHc5MJER7s2TYqytRYuzHLoGNDl7TAfUg2Y4OqdkUbSPTBhOTxhNKgmcRkkRlDljjRkk50/Q+iM08+fXnsCOFsiHqPuwkGxobKtvLqJRUX5MIXLrXdQ5lroIBsJwA6Omd2drHE4nIYIY2wu7S+ZNVMq9V1P0it4yuTfLy8YAyRDw9G+8hw3DMurlaxQ5A0gK+MU87gaB72AIPGft+FNpMJ76rwnZtmWt/dHR8/DBdGmr949Tcflfz3kNaYOss75qXMyd9QM2tt9NWdd7tcyfGf/p14wLJK4vtcycGB+9t3nGAiOiGWd69T06dJBJ6ZbF9ZZGEaXcwql08KacW0JQX6poPH6IbDB/8bHH0Rw/QpVUfsZw8zpdWmw9obhO/50D70iPq7phJqPn4XbzJkNa5pdE/e0DOLpltp/HRI4PPfWHwvgM8nX7XQmyK0vb89AxNz7Q/PDH6lw/RcNWZWOaI3zbffEABhywvjf6vB2XxlDfXLiw0Pzgx9d/eX240d945PnyYbCKLK46O5mZHf3K4ffSID3P8rcMbvvJlRUJzs0Q0fuLE+J8+6NM7+uaRqd/8wuCjtkf2jn1jOmLHYSyyB9kWLjUhDQzuJ/uuDjRRUw6AIOy7DcoARuCfrsBXx0+iB3AtElks8SFcXOV7Sl+iWhN6UpTbt70qYqwFUJicpsDgJAVZVpckOOoPixZFFeE+3T2bdqdILASpzJllEom6kTDOa7zAi+QmoVAlRjmYlLKLAft0YrRZ++po4EdNBQAAIABJREFU2UqHbOjWmThmRcnKeNF9MOTwgklMk1FdDs5igMFPdkYljGKAT4WibNYQlCD/Zh8ARSXkZTAmWU/b2rOVpD1rEsoSoZI3E2hG6IkHnzMKEzGZKiI4omUDUfmv6Ln+rutzgwmOz1wz5PTDDrQOAuLOfSauXiQzHkZhbNkht9ET9mW8ig3Q9JyLZ2qq14TjFoyRl8/7ZZdBTL2QKLro9FKWXRY7xSdycWn8/Uf48qqXIJL2+BF5MX7Em2d3A6HCcxHBan96nNxdMhf/Pv7uI/Lc8fb4d0b/90P0yiLQzJ1lIZnzkuCPSPvE0dHRR9qF4+0LJ0fffJAuGXvL6JjH/8+RqH/rPLuZJuLtc83tEc8Y/eEDcm7ZDlzp+NtvPiwvniK4nKzuDMny0ugPH6TVVZ8FJ1aWl0Z/8PX2PxyVZ06O/+1hObVohr94EmkXFuSZBaVzZsbjN8xcmbT26ZNjwDFERMvL7b87GmS8Ohz/i0di/oSYafzPvxF8eEuZF0tLBZbEV05uw9Gbxa7XYYHeVi8Z82X9OH5ybvZAGEmUdzrLvQqZQArQJgaVkFZzr9VxM2yXw5hwXaAMKqMctqWFEm4irrdTGMsbNQCU2wZaAwTZKX+p6TH/SzAd9i0Mg8KHImjCaerECgnU8t0QAeaXjKg6zJO37JwDBqmsffGuyHgSwuRj0erMEgNwwozHJQ5E+bL4lBcLBY1BBaFQ3SYh7UmlQXVfxFFKuwEFJRQo4xWYBN6x7YKKnZUqT+FO0xf3vvvv3UIAH7vUs80W9BuH7MhEobvfdt1ckx2VWW/z6PVEzBJ+7u9NgT6cS6ovxyUOHkQhuGMB8+pGZyeKg3K9Li1aAOKmNf3SqdwdoZsQczX9jBOqloFERNSeOGzDIvIVs0j7o8cGts3Ec3vgWErW661zUlcXWhuOjjxIjlzSELIOKtV2At1mRX52il5aHD/xWLGabmViYbIGyUmbZnBQ/Pb3xOiOH6Oz5Ye3xCetWInxkUem/tH9UC14WgHF0b96OKaDLJtGiJhkeVmWltofnDAT7iYnVtWytMS3WSBqxxwtLwdDoKPxd45yUKA7ZfL0Qszf0wv0yrJ6JIcFw6G8ssw7ZomIN8+4RQVQQU56Gmy55+tkBMCVyKl8wIIYFvIGEMEpM3anMECIPC/VgugJ1eoEd6U9JaaYGPj4JNy1x43SQJ3SeBlPbkS8cfK0cc8WEmvDxNiwSfXSlx4NFj2rDBzAD1aAVLxTLjC5xwfdtFxmSygGj1kN1xAJMtMqQ+K2ntaRnOHKXj2mxWY52EFGIh4d9g067zm0wMjOx9/s3ccFHTGxB+H8WJxHQRikHtrwf8W0D6w2I0hy/GPhJIlatsRSqGAc6v1dJJs7zG20ybCyQerFF2OVu2XXJhNGjzsG64PlYayICM5M5YBxdb3mHIw35HV9RmVezxXChl/wqcmcgJpWQGRmt4o3R4WQLK7bY+b6p7NXl5CYK8tXHHvIY+h7cwBf4ZuQlHx8MrOeHhIVDaqwjCyfcrNirTIzyVL65UsqGR7F6LwY/nXwnoODt9+h1TzXxNbRvQOvqfbtiOAvG1pMhEF9rtOBHVMyNW+JRJ/2+DGn3KGeeo4XTyEesjGWdjLFZ05Fv/l4hBKsPqntGezMDM/Di6EF/lbXUvrVdEhNt2uo1PqqXdfFr0DGT+6nTIWv4WpBo5QzSp0OfSVP2S0yWl3y9o276u6jeI7Ql7l111HvmTg93WmvYjns/4m5B4nC6OIcHeJApQod1TqT4nSs/jgGKnkqwU27v3V42FXkGAdDlifORmFrGhDywphdN4e4FTsPjWQcqQuGPqwAUOqyyJItToDM0nhvpqp34Jv+As2DkWYblwTDtao9QiQRza9n8UhvqrpzhykWKPKOvGUTjA5/s1Phzgfgcbnmf23Xx77yzvJ55fTqD//oBTL51w/QCVeN2SAZOkaXUhM3+TiGJjQq4yjy2ufgNQLPTsm8gLA7TOOhrC2xHcbmLXtosJnGr4ptvKP8e0tFuUWERJrt6XcMZHXJi9uSa12yezL/ueh8Bji2vw5Lw2psuCTvdKe2qH7Cl4e+0xHBD6r9i24/l9csnFmQlSXeOkdEtHGmufMLzYfvljMLcnpBXllsTy+QEJWf82212ZLO3J8kkX+oDwwOZF9um6Vb9vGmGb5hlm6c45v28Laeo0nKomk4yPPiKbsProaIhGR1KGeXeSfsLUpnmsvt1UA8YA47s8DczM7Rrj08N8vbZ2l6hnfv4bk5moYzR2iuKlasdtKzuoVqCUynIHwE3OeVHDCSYxoDE+RbJnGIlwL1Riv4FhMfPkACMfcA9RQ3kLttqF7GobTGAV3HJ8FnLeBjruIrOiqp3SyR+M8EeEzCxgI+sm9CADeJHo1uk+o5p1xzPOBRnmD58iFhyZw6Q8Et65U7+srah/1skw4KttbE4lhqQ4o5ifySmoSaXWp5UswJBd6nA/QJYR5pvEEMJth7nkAHxWbG8wGlzzgYm4s5kpY6ZQxgUlhRn0obWqHHyEhptga1zP75SIPV9rGrSnBaXiBQZeLBRLf92q6PfeVdpcrK6dXDv/3ExTNrMU1qpkVfkQ7qguoJ3IC0ns6ipPfqWwy/0a+JhDKvA0Wm04DrwZr+VYU9Ikt0BANNzLSygO+V4Z13yuLhuncT+lhIlF3PTXO8Y3+UGw3l7IIedIJfAekXLBBgcuPRR3/awa1wjo8los89I++NThbbxajNnaK+BiKLvY4efWDqM/crmiGijTN8636+dT8RDYjk9II8fWz8o2NhJOJPZT7JQ8qB0sjOvtwyP3XHIb5pjx9lutLlBhVQjqy96kkOPogwvIAeLHmlgNuKwLQPbk7CWcq8fXbwwTv4Awc8FebqV2cqfLcTPAJVrIp4jO5KdDIA3QCDFmiyejwnH6JIAak5ofwaL58o1Qyyn1m2l+lFDn4BDQxumBIw8qG6vKQYe+Vn/Fc1fIAq9VyhGY/8kJ4R7/LJdhu6Z1sASVsSLVCoObMJn8SBGZvKDAg8tYLImENmRoileo2b5dLYjrF6vuRZAVQZ202didvwxHGOTJwyIiE/TRblKisB4CW4QVFKiOLVxj4+7w7F1xkFGAVnsDYMxlN2+wl8wBkUI8rffuSk2WRktTDE4Rw1/NGJOQW1/VclUcHqCscc+e0nLp5ZFesLNlkLlxDCBipC+feJMwZQH7sycRMYp5kwKHONwZUrF7tSC1eYYtQGctGW9uXHBzsiV7TZdXD84lHdeDKZZyKK9V3o8uCth7CH9uXjalCIUGdTXmR3rB21iA/ZbuUFAtqVkO+eTRmzcxXOMcNqy3L2JUJFYM4nuLg0evSBwfsP8a37eWP965t88zzfPN984NDoj78m55ci1TA5IKNfbLXuOIa42TTT/Pp9+F5gvGRtKC8tNm/eQ5uu8gPmBiWZSBMgCnekgwEEnCfXj7BFg6Zm+5qPH2w+eYin+8FWu3CSZzbzbjjqrza4ZjJi2vQHSviSU7MLuuON9pMHVfiVMZkBA/hQYQZSpyQ1WwL6uucmnUy2D+qkS3veTIwUPFO/8KeRp/ZjsAFvfKSe3N4BesWJZGdlK2AJKBBMyG4tRqSdsQOgbFSgipCdzXZq1CIwMKoz9BgazCISA2EPYjdL4KTN2vh4oWGH7C6E4PUN5/QzQW0AAwdicLb/ljgcIlmhN8VA5KzwMzseHtV2AwxXW3hWivK+FfvB7Qz0+h0GbGVhqC/etAwCGSY4kFRqqWQ/3/ZrN2cc85clHoMS6/Kf579f/p3dLqg+/ZOHVq54TRiUuUa0WBXrIpsrY53+LG/cMCJQ8AsLNB7SwFzj1Exz2xfap3/fwty2kPDVmF3Nnk/wm9NLbOXFY96yWhG3oesQm/WiK59MLNRKfYcoFD2MbBiJfPXmCVpz9soH8QOTtT8P512GzxeXx//+IRJqds3zrbfz3G6a28OILbbOTn3u/tEf/+9yYUmD4WXh3B28EeF4i++8G3GMnF+ShRNyflnOLdHPFuXcEjHzf/27ceLa7VU18E0zvDo0O2s9dXOplQyxmEuXQZXP1I/NLx8Y/Fp6gY384Hh7+jQNh3LqBVpaluFw6r+4N0EZtdfdELEu6sMlilS0YCC631sbZIX5ij0jL1u5T+oDzGT7gthRYCSpahMF8+1mHFHu7IeqS+3KqRjiqJ26eX9BIIXtFeI74aeq7fJfB6yD/CP/CHhmK//6oBQ6YIQMuuw27CLJW8dRYSst2eundLHM67RXK/C6Od1pKpEge1phLHOKBNBKc+DaQm9RBEwNTnwqUmnNms0J/GxhFIBQjnQxGc2QXLDSOCc2VYFolFVtNkzO7Xh5ToQ0ADETGOIkvj1N+WZ7LL7SdptwhLvQCpv2Es1/dvdHuzjGOBGBSZSHcBfQdTxyxCPB4nWdyWRfEwZl6GoopPfqlr/yftP6wCELs31oTx1u3hI/Bsmztzdv/832mYfp8tDxAtt+a5GkZvfB5ra7sW15+TidXTACiELLTTB76MlDi7SSTGIyzmALwgoQGV7o68jhTrpMhZgj2ixEUmeSW7Jg5BroiQNqzyzQmWdKy83cHn7Pwebthu22zjXvuXP83W+U+plUbaULmnjbXPMue1nL2nD8xw+2z59Ue6aIpTd/laiYgZdO0Y2W9rRztzy3EOtUghxLIdq1u2oksENa92WGafIzkVDzsfjdrvG/P9r+6WFZjfffGKyoOQnEJ2BE7hFdZrA24AKx3/ztB5yCxe2RAxR0HFfAbZhXEnaeIqIEEr0efAgbXafYku15QQNi+ZkxjPgekZ4YJ3ZpvGaiOI4SXtwcmXVjhISPt1y0HFTQrR8LG0bEgHCy3HObq8+EmtcC58R2eqhHQrxifhoBEg4mdgSIdJrUuydwpu047okBGo3BjNhCQodt4p8O/Ig4V3zm2GolNOMQIxA2UYraBiIsZRvYigmAIgljuXigRCEnyQkOiipWE+JBEuprSsF9hXHRQvPbPrsLcMzw27/zxMUzq8pFIjQHGJIM6JaEweXfOvEAlo+/g+kn/Zq8E0xdXPJz5ijF8YSrtuNdM/wVopcekwsLWJBnbx/s/zLfdIcVAzd3477B7V9qbrsHy8toOF54JKx+vq5MmK2HYDi+hPBewwIrMetmC9WXwN/aqZih0xd4MHNfzCAcG1tAOL4aGe0ri+3Rh8dHH4729+6P6EIsdGLYZbSJvJvizXXtE0flhZOWocnkXGLibelnzKP9l+LsVbNvP0Wig9r60lqzd1+KIUnHvnUvjofKq5sVDMny0vhbj8hqfr1QscIzV9kF89ZFMC5eGFu5KvtqzO95f4vLicXz2dKFGICOtxUNQNQKHyRn6nDDBSCoct+Hc92L2gKlwFMEGOrP6hAZ9rNeAE16v4Ejc7m1vy6VyidOmgqwkBlb4HrERBHNIDQYEl7IB2tJWagSYF7Y/+DoVehgbopfgx6DZFGPzE4IKGyfgQJp6jJdCYiSRriE1CKEExi83VaStEDXQJbiZnuYPX5mGNVlra4LKMYmJ17fwiZctk/TZyCdMQXzlBoxv0A5FFcqbcxv++yuj37l3eVhicesnIZsPOAG4bRYW2lfzyNkPVMRW4n9ZmqSr8mLynSv15Gj1BvauXo7Jgcq/WarRISffaj5pfsZ8n9p01wz/wV6691yfoEuLcnlIW+aoxv31aevS9fPHea1ZVpnI0x6tLeHbNjoJXbr0nnhRqnj1ulK4Nz9WKxqqnYKG2ytLUnJUsFigbfMNnN7aMscrSy1zx13EKZRDRF67kSqlvYD+njASc0xA0Z+BmfCzQgS9R3G1nmU9vkFh/bN7Qfav3iMzi1RTpJg5sHfubemse6J0g1WcEC2f8+z8Ibo06dKE4m/pdHdu+vWnObcRzi2aCUas5iW7r/gqFOHidOax8lVW2QiY9lT4ui5MpGY4ZKbiPL22EQ1DmA4u3O0vG/w4QaLn0sFunQx4brW979Sw9BXwB7cBfOb2prG2wRbgXHb7qtIsA9fMRK7Nj5uknhXE0KYUGzyjRdw+kCYAGbzuSIdkRR++wGocjXm7czNsg/cnbndzvtizrgIRcG8iKUHOTADSKWgim1Inn4H7MgbovYYRldJPuskSogQqliSh5wwXsr5HSNb61ktn7QqwO/xGYwEahXYFS0xPNWh2z57M+CY4bd/+y9ffXGNfAJi4FKEBnlN5osMB6optshLNvBisM7Xu9fFG2XKdT1AmWu/MLFj/UJ93jjfxFWdfr601P7ogRrNENHUDM/tp34/rFf73OH21FEw1q5QhFp9tbEkZYed36o2J50OL7feyGGvoH5AdljSFKrc66za3LtM/Z0v6w8wXRrK0qJcWFLKTR95RzhvubAURsFyQqPNHbvl1ILZi54tsOamPeNnfgB7DVp/6lACIp6kx8zy/IL89CTfuo+IaHpm6t77R3/4gJxbimD79Mzg0/dw/qVJtLCd/Tn71WW0oUyyDL907T/DJGkeBncdQsTjXfRPB0ydpa7CQ3anpzd65R/RDGJdasEy2zCYSNoEcbEM9gYzA+5JyABc3i0KV+08QR+viFmC2qA61tdCADsEekQ+Q9aHrWRtrwd1yfUIqKrGUpbJNka2c1htODNlvy1+zMG7bHa2cnya2E7tOkfM2QbDKwBJ6iIRbSDKKdCrsfCHuzwHS2U31eiLRwFgdCyJ4jJoan324WwR2xSECqc1lPXWVaBgBmJK6NJFSZQARWkFzdj8iM1yocGnJm2NoZKmYBj8GgBogNgjSiJqn9i5BO/uC1FUy3DbZ3Z9BHHM73z/4otrQVi9kIutQyUJHIDLvyuNqZcNzfCOs+3KiRaTdU3eBtPPs52kllF6UkivvXuiZMfiw6Wl9j99TdaW+qqtQ89oOP7h19ufHsbWzPhBl33EQjZlKSWVJ/X4qn+jIN068IjxOn3Y1gx3CzA0K9BmFU6NfECSduGY3t04M/WZL/ENc25QmLi5eX5w8AvR+dMlCdqthMjLEWgZvO8TzS8d4BvmeMfuWCwtxjZf8/6DfNt+my8hIt42N/Ub91N+r0xmroz+5OF4/d2Ns1O/9buDv3tf8yt3DX7l0NTnvrDhS7/XvPdDcnZJzlVvpYPVTmZSniT48KyS2ty8p/nUIWJrhYinZwb/2T2DT99F1eXWDNa7Qbq5yGqbo1OMyN77V7WB6zv/G3EEAhrF3Rx5Ow5XKpfcwVylnRrzOQ2+GQMwIDkVyvAI8QJsXbk0WseFLLPsBAywaoIKBAihiGeQnTWVYoLLNgN5Frxv69TgR9sPXeyoJxXU4q8bSFWNCAHZCm8FUNG1FiehcEKIhcJkOFSK0hKoEkCHCUl2tEaBQHOJneLyGQln8I/OSMyYMOFcWF/i/BQbc5aviEobTtMW2PF1sf82MhtidTbRZMRcht+rrX7qG2yVm8RsE7wEE9Ftn7n5I1/RN4yvnB7+29/5/sXTsdFshHXkHxMiJcm/WQD/3iHQ8hQLB5Ltm2QcQ5MYlXl920lVxSvEZvrvD2ZoPHSkS7SOtb683D71Vd55kHcerMMznat98XF5/oi+3hfbY3MVFO6RN+S0ifyW4bJsSiHY9VQo1lK2emLPviuGN6EhSnYnX8n62WIwZ+4UW+vbGu1/PNrMH9DAzNbZqd/4PVk6RZeGQsRb53grvNblwlL79DFzBGq52h8faz54SHeRbpgdfFJxz+X/83fp0ioJy/klWVzQE0ybZqY+d5/87JScX6K1Id+0h2/aTURyfok3zRCeYGI3kUznl8d/9o3BZwNRNe/YT++Ad/8Qjb/9yODDn6Acm7H1Ut+y0gUGnPz4z49OvU23uqY+dZd84ICcXqThkKZnmvl95eV4cmqRd8PvVtriq3cnPCdM9c1YqlQjDhcEkA+the6o25RUjcG5pxQzCAGMfFdYGLA3DJ2F3kYqqIstolwkUKiADwh16EaDegFxNwxYxNuHofnKG/oRd0SxCSV2v0iAwPsWLJDfqeveFoZYTZE5ThE3XtCOCHFjj1Mmt9go2b5QdUUgFWMNgQEssISOUvvVPTFx5sQoSsNi/C6P2CwmG6z3OdecEs6WS/vtTI1bmxyoBrwZ8sludoDJSGdG4lrB4txNK/aWHE54IE9T4oyCzpzKVIQnIkbBCiKim96/vcYxZ1YpBBvJRkKL/Pf+tKoRFcnRoSiMi90y9RCSug6uyYvK+NV1GetdJd2ke3O9wsTww5DlGqyTgOkChgb1zNH2xD9pn3lILpzs1pCLi+1PHx197x/LyYf13b6wMnINwHgKEVH+3UoZwivn+47X4b4+/pvwikGEVKBiiwH8Xn6LL4+YoXRljYNOurg8PvyArADxc7t513yzax5xTHv65OhbD4A/VZplbbX9i/r1g0TEe+bdKYz+9CHbtyIi4pt2N/P7m3cfUByzNhz90QOyln/1006Blq/tiWOX/4+vyrme6JqsDcd//JA8/YPUO5PzsZ6GimeAJNofnhj/WYyFZ2ebd+9vPnigec/+gmNG3360/cGJvso9a60uqetrR97tgfK2pJY0mVfuu7CNqxtaBSJifVSnPS8rEmHCdciPSuKqEnJIpk4ebHfnQyFNsSSvWScg/yjGGgjxqAPlEGjxXBYGit2gtDCO8KR2nkOaqIliN8TcH1BdnvkKhGulIzNIht+iG/tQYUClPKCQxlCiZaYYr0WoqjEyttyT/O9jsfaLkYIgTV7AVZsr4nQS1XHkvAkOYUvlHBo6QAZJxFgjFgGV2KegVpasDh1U5IO1j5AwLj7U2X3bys2LZ4Z/+jvfv3hm1WIl5gl6lkVhE70LRvk3GgRhY0eZtBPpyv8EX5MXlfGrZxLSBufVL+404sEMubzEg1gQ85Z5uaSJHbWztyJiGbbMJONVevl78vIxEeLNu2kwQ0I8Hsraslwehh3g0JRkNvKWBBPxDTkDdIRvxM9Jl/jXH/WMOAU84mHFwFgQ9a3uQvNVP3tYSuxWW0hkeVEOP9C87y7etS/e+eu9nT45fvqY/PgYkcE6XOsQjY8/1l5YHnzoLt4Rs9Ps3jd+9gdK6vml0UP/y+Dg3c07D1SNty+cHB95mM7nvSGChbiTfn559E//J37LPL9lnnfu5k0zcm6pfemUPHlMOr8SENCg45vLIDAaqKNiJpHxnx2R5aXBpw7x9sQHWR2Ov/lI+71jg0/jGxQ5zyw+KJYM3M86noQddHbgBc4zPnRr19k6SzaVmaltydamhZK0Wghnk9BO57OQLd9zZ0ZE6JhXTe/hAxgTxbVlzqeU89y4A+PuYIvH9W0JZ7edgxWCzaBcDxuu4lX5eaY+iim4ywGSIkWEWzIwkEiwlegSmAwtWeNY3/fixDnkItHq/LD40j+OQKfZtGFxjE8cE+WT3h4g8DCcRWZCL2PopL0hxsjJrUhPUTeTqDBE3haRIxj22VfUqlMgWmo9dY5vJSKmZ5l0Muvglnb87KOnZvdt3bB1w1/8rz8qOCbnZQsxg0eBTjvy38EqYRRQ/rEL5c2EbyrhxefOnfubpuE1XFt++j/+9WQnNbfcy9vDF8rKyXbhAaKEttMHRyTgFIuGiB8kEFOFynFS/OQQ5fiRB7gHv/wl3h5Hb9pnDrfP6JqeS3Um8h8lVNXPHVWdSqfAuiXTX3Fj4noiSqo/IvMi5DZCyMy9EFlgc/Zm3jpHGzeTCK0NaemUrCxDsxI+WcDIl382TjdvukVE6MKynF9StQzDRrRpmt+0h2+YVfY/f1IcxAjoP4xO7J0r9dlSGHsZ6dQ/vJ9v1ekY/W9fbZeXoLV1quMoMm951247m82ytCTPLPTPQq/g9X7IhSVSyC0V0RgZjt+D01bXl5dVleQ52/BnXTK4Wvi5/Cviid+dsE0kPVAj4bsY7K3uAYUTtVC7D41cINmPfqCzt3HYy+HyQMnlTaA7H6vQOm0aPHLx0cKpU4A7rKNQSg15WCOZ1OiLfb8q2nc2Apewd7HBkuSbOEAwA8BGoB94UvUOjKrIxg0vVwcN12RSrZZxJsimzO3MOmSRTzr03umirmW02ZaQMVPlnXEsebzIQ2tE7PydwpmYGp2dYg4DNcICFOVfgnXOjSxRIajsGpHkXywOBFOQyPZ3S/Vm3fl176PvXu/RG/CavKjMz4Njrh0GycWTCGV46z7eOKcpvb6cSk2brMHCTwKcWxmr5jZJ9DQCqbNnRoulkj4zhziGiGTZtq6Sn4COOsNke5GXefGr8EGoZBxQAAR/l7+Pi4iEjGQy/fNR+0lXH7VYCSEiWjolS6fNytqqWl1jmGe19d52KXFptV1csJYiQUOPvZLQ2pAWF8qLjnvmnKsqZcmF62UsbB7d7+APT55dTgiVdMGsMV4yZmBUC2dXSE6fktOnyOct/ukhA2rGVIl7CUIZsKJQNiCLgwXEtB5agmKEKKdDktiAo4K1EpY/i2UYcwTcRL4QZ2u5wEpdWBtrmN21VGEfzaRBlwaU2oEgIAmjGvrZ5JdImBuCUYP0Cai1nWHJEWHuDJMptASTNU1E4INIiJC/WS11as1yDNynF8J3PSkTwGz11+7n0HmjgeC8sxYtBhtdfiADL5qyfjkaBGwR3Qd5pYsqmATs8hom4yjHjK2iJOQMKisJcbiA+y714q8l6MkNygOwDsEmuwbZHZ3k0p6dMIqnLn1W0aQKTBMbMzGLzFccbPx17Y/mMQuKiFg42Dfx1wTnyryO69phkJw7UaXL8M5DtQBz/wdEwnUV1zU2hYYqZuxgK5hJiJp35vPDwyWx9wKry2DUpWyEcs+U/gbZZplMbZiZkV+2Yig64uSJtRx78mCLcj/s//OvWoJN9wqGCSMD9Iv9n8j9FZZhjqA7ZbNIMSW4DkcLHkZ2ejPv2z917/2DT90jHlKQ6IeIaPssv1n3+9ozi0YRxwka8DElcdDNRy2BOFh/Gua4M7OrrGgvAAAgAElEQVSIPnxOS8SeECsh2/2DZSZ2MkjE+VeFnF2GMcLNxClZIubSpvYqu7zut5jVUseEWAv1B8DQ4BKVuaFD7s7ECXFJTD6l7hTcTxF26uQSeEOc81bQLXbbq4ce3jNhEBP/LCGBEXoaAi7EYHN+hREGZoDhFgMx8NQGI1JR5FkumSbxisw+udB7CuphLe2R8xw5YRFVKMU4fcitoSoh2gH5rzFouorw13Jo3EnibZ8BB4s1UFQWUU8nFhYDZP/kM107jbAd9QuTQg4liElDkyT/FaYipFC7urLWvtGv6xDKRI7VzzM37bB95Whqdu4Az93R26H/K9K3nOakT2523Lai+CbsQcxEzd5DdUjm2cPuyYUKiuAk6GGakqfso90yGiN3DHyfkuHqhrbBnCizbxtJXhRpsMVOsqYIjWpouLFAWgmiaBVACeLjUsp8ewOiTYBNnMcKN7DNoNPomPqvvjz1+fv4LfPNB+8c/MpnMB1YUeaNcxv+wZdiLp46RvYwYKoG1hTE1DYMxhEi2uUwE0pDn2/MDVNuCtvxEuz9Qn3/jLau3IQmK3K8aIwRYFANIgOZMNzOrpw4/RMj6m9VxyKeCipQX9LZo2jay4pFAk0CmVQIg9RgTD6DHQ2bC/GXsFWDyb2Hh6ZytqbB1B1rgXNHxDZGlOTEDkuQNSJwoGGVjBYhYRKSJP8dSylEwswNq8vER9meRTwpjV1/HTSEqqeHTtNhWooZAKsmjqgEAH+qrCz3ycp64HYsmSiwlL3gU5IJreXf9J3MItX2Vsy8BimgR+IVbacoDyjITKkDPlwR3ddCAGeD9ZNTvQ0a+uSsE5N8Td4G01WvdBISru7u0lX2m155jHYcxLNLze6721cXZbiY1UiIYFWcFAj3HZQk37imDJhB64v5IibhnQeavenXs0tIptRmexfwuoMy15XgOpMFoREBuC0IROC+AfdKJDZyYwx2jtGXzb4JFbkyFXlsWEfdCr7qyTpS7RMKnKCsgciz8tmcquEIGLvvgpT4KpP9DLL5iRjU+HvfGXxSf1Ni8PG7BvsPjI8/LueWaXXYbJ/jW+ebt8fBbDm71P74hMAWQ8xjabr002o0WZ/5jAQkS2l9XBydVwh+x5yUQSUveIWLLXJuP5VlXGO07G5Ng8e+Vdo6yTFD0Hx22jZAPJZsFcWbt6+pms+o3hF3yyV47l6MCax5j/evB5ef2jogJVoWko0iaNZ9J7x+t0OiOEExnAR+DEZEXogxWUiIm0aqn331wmxiwO6AVPdsv8A2pxyLRfKEOFG2ceJVVPAYBhsUKntcTLHfNCzx/OPAVi7q/nuKItGCTjLr4gfsDeAbzXvFrg1PhABRjaIIRDEJhksP6BEzO8vDdjk1viPfo2HWv8+y/rFEXaM01L0sXiURBjvvTnrQbLzRGKgQIVw3U1cro13JSNcT56fxmbtjm9DrOoQy611d1IJ3EAEoRBi/2r50uLkZfixpMNPsu1/OHG5/djRJgAm2S2jcB4iiCxgT5ORq8xZ3edDc8gmeTz85SUTtTw7T6rJS2CenlsTmr9CtQIyVojAKCEqIqGGW1kwmVdkQBgKsRfe06iP15aRiNbwdssiMUxAhU/EFBJvRC+U2A6ZE2n3mUq3jq7Ci2kfFFG74NCZmxxkAbLXff4ynZ5qPGXy8cXbwK4eo75KzS6N/9kB5V54oKkPLZXjJU/D8P7cjQQxQG+d3uPbEAb86w60wa/EYcNyX1WkxEXHCRrk6+SoyCHRYU0rGUT3vv9dcFg43nDy0NYxoCaEQQ+W0KE/xFc+TzTMCbgD40XGilJxZSUyJVJDCoTQ9OkyERolBSivlXLSKIWzMA1Isi0SKxmnXwdeabOjPcAxKThDj4wyZF2ejhS/ADDl8QWVjkxQgyb476e7RoxFTKwMrymlY05lNLCsY2I2BIA07/kYO1qhCgrFicVDFCxW7tE0yvOd4KOsAIID0+wnWfhlKqggf4BirMQXeY9QTpM2jKug/BI1jgy3WiKkBhKHADfyC7ykOgAsiijNf2pzI1/5eJxtMsAHxuq4c24jPrzwmF/O7YQYzvOee5tZ79Q14DObASHDdUKEJutAcF7JBeSFOzNv3Dd7/pR4cc/pxOnNMSCR2kbXFaidV3IBnmcQdk2yyoylwoK4UHSdlD5lNv0zv2IKWpjYOd9xfcVCixAfdvsKF0KyYmYPAl0Mf/5y8McdTCKLGmIBjmSc0/vMjo3/zUO97ZfwaP/W445gCkpjDrof9MXeVujYBSzT5uLAJ/YuogbASttn9UGtEn36YrwoXZ4Q76LL7fTiK0HbmDixS1W8TPXyQiRQK6bL4h6i0pw1B21cSEBSUMcfxAjeBNjJZqh6JbrMyFMPIqvi5mlABp1w9eCAw8HGU76grlWBB8Sp+DgZbl9KsfcCBlC6BbVATrI2bKXxm3taABzKh/JNTy5zNHhEEFewRr4IGDBakJ+FdhYA0gmkE/ISWGZiv5cGqlNZUF8l3k5N7d4nQz77LA69TCojvsxFPuyLt9cCoWHmJpSKZ0caAYU4uQjuW5Z9hhLry1U/O/iT/SRESwd6XhZLrmZtEHEPXTVTm9XEfQhf9MEhI5PmHmtu+xBvTmz947gDPHZCVBTl7goaLdGnJdV6EGoPgbFuc5SahoPp6yjM7hWjrHt6ym27cxzfmnzwsNVaX5OQ3dEHQSc/0iAjsdZEaZYfdUjHKDVXVXCogrqJCBNtAzozyVzwKYda+9lGpFq6z2SNJZP6f7QPsdwUu0NWLq2FASL8DNrBatSTlzWT6QvAHx0Y/+J6+V+bNu8vvYMvaUM4uyYun5cfHaW1VAKNyVLfZMIufcIxYnNkedcISmSO5bi4GlFfVc1Oi/g8mBcoj6+swiTttE1FxA1xNvo+6h85e4lUYyU8yp7BAY+bb36DKlFafTpsjWcu9Mj/lhAGBmUW4GcQRMwiAqyKq2zE2XyUaajs6eZsDBxEYgIw56mvyLxQqg0nJiEMo0bs7O4YdGIyUWLDBhpJHi+Lvg4qJ6NlhYH/kzPR8OLcHeXw1f32Dr2+tFIEYjje+uHxY+7W0QI/BBSUzNM57p0AGGv2pGrdBaeyE7NejgrFGmEgIWoqLJE6C6nMm3oFbVTHJPxHZxqemDST5J5zIzHjXTObabmRxpLqWDey62Ga6TqDMtV/h2a8ljCZEl5fbZ77WRTNExFvneWsP5vhFXLKyOD7+oL4ZD10R/Khk7O9c4ep1nqkKqJ6EVfCiHI2YJiohbiZFMmHQOezsmFVyNIlR/ey3LGxrZjWeJsfrG2aeHaD4wSjiCD6oBYVcnGILjT9CQs8vyE/hFS9kJIRrj5wboN2YlCoxBapMYXNkPAlZ74gAuC7jNxGx5ctsKlm5wmMsHJH2frcRPiF7ULCPycfoNPoM5Ch83YHu/Fjshq1HcG1hY8EbF9uuTLBUDHZBYh+4gxOpeiZzK+71K/jWXakKcALyJMkELvipTxjJS+xx2VSnhXwxmgGOuMyUHBeXPKegYmyNVIzTRM4rfA0JexeSmMwwouRH03QIOkEXi1JThE0BjdpCgFTy709t39DINAWreGQeX3LHqFZuntwKkZNLofsWHGVDAonjZOlZzmuzZmzoxqcs5A13kwPRohYBz4kcYxVeSxzHRrCIG3lGcOmQLUImMUepsI3AiYQhRsgpZGZCd5foutlguvbLBfOaJqwYjsvL7TNfk5WeXyH467naM4+3TzxAa/orB+JON3yr+z5ACUSk/hzRSNECt5TmMYpi+laLowgvoO34A3L37Kph8MHVUPMcrXVST1iUlnQK2JplZhuXWHAYQASBLUXPmcwEDNw7tC8CUV8rbEbLdwXMroDDqv0FBw+0WbPvhK2I+9JYw2s9d9VukhLd2Y2aOaPEDfzKfldw4yasITRolAjBUZRKE2KM3b+E0wlOL7fvXiMeSbcEss8CKxlKYcupvSJ+gEXQn1WD8X0ib1a3TsSlns3Wm+y5HugGAAMBvpHqtaJhb88wRD7erGTYtEdgkmBfFxK6uyqQP6eJjdYk2KukFvebwg6pfe4XEyZTIRgG7My6B8Wn9kybgeNR0VLPWAwKVA/c94eRyRsxwaKSpUcGO4p4VREe8SNvYbvwCoNAPh3s8myLGNt4EqIsb8Ewgpgs3K07iomr9aT/SslDaKOUT8Ioq2Z8tVTwwOaXc0MdczdB14RFZX4ezJjqMl+xLBQuNS4vt888wG86yG862A3P/OIuGQ3lJ4fbxaNsjlskQYSsIgwONI+CwvsnfO/OSBzigINzW42siHbKTcM6eBSIGe20rtCk7AqZ4gg0RXa+hjVLVKjKNUWwossQ64SVGDd6QZx1YfTjgV1d67TujskXgUxM0XO8Q0/sxWVoHTktXgvDLDJMEdiIr57ZrNRVi9fM5HT5uipCHzCjbmB91CQkkeRrnEOnWQypt+uzzRatNjTm69wq/qSNiZA0wiTStESi72Thlss7qC2Tm9uGiKhtSIjagRDRONw+bqzZjkby6vYvzKK7lLgvyBD0szHEKoHJ4wbIdBdSptZDZTUlqTTuU4V7MtGNPT5fMCQfxzBqjOGZ5y0BncgqFaKGPAPbnao/BJUlHKINXnXABRTSbDFUx3aQx9Ut9uLKt+BmDFCbqqwsbH5zar8r8KLSbmLOMK1mUuztD958vGZQcVvN2+y1vdfABynO5MWwZ3awRIGbgTaXWNcyZQkwVtJ0EU5hxSrdGkM+pogadaqb2zK1ygIW8i8mWTHVRFRN2CRdEwZlelKurv0Fvq+lbi8CkJePyrkTPPshnrvjFw1oZDSUF74jpx6Ty7GplCWuqJ1pVF8+mt3Jnreydm4ww0WHfTMbaSFV0SVAeMJsX4O68PHki1xWV6mYgKCWWFPu3iPvJ7XNBk3cpEruLQafa7lTBFYIEcAvdmaSmUs9hmHY0SCUA63w5rBxVzHd8ZY4XeZoIqepI4bREiAPCeBlfwEOdi0RQwGRzmPjDYqANW0IwehIU8xCTSuDsfBYmpa4pYJg4j/0ovkr3BQhoobGDctA2qa5PCXCPNpg4h0DR36GmQe4UWNBhSgCLNKQSez3YT5KzCfZgANPdHbhSteuROYRmaVVhqJ3zIOODmxWVCMohuBgHXdazQkRIewTpxa9ZzDBBhWOLeS/YPfWuATIL8uS9WpA35RA6Spjb0LOwXkKyH+oN8iJKQ8KWrlFrc5UnLsxBxxwrKFCP3BVLZaS6u2CXgZ3zGb4uXcv0vPT06JJUpUZkWCuGiZfuhH1NOIgAuBuYUDyOSpR1L060KcEYlJ0zKfG98zD5FYSbSixBp4Tdk0YlOlePVgknNZrr0tEV4ZHl5fkxSPy4rdpy218436e2UMb52gww+v9dPY1XzIa0nhIK4uyckrOnZRzC5WPzq4RnQYlHINYhatisPaNBQnBhotWaTQdz7xQaHlBGaG25AEVsK3u8OA1C+EKLSHAEZM5pCDT3rlHjmxIQyZtDCS8VBqLmwgFPT2zmVdenUW6f1K77AU8PGPDZE+XEeeXrb8CYail8U6MVt96d/8UWZBu4iX8WdjAClkE5RV2RIK5KhoU4iXiizbw8CQkTSuD0XhqRDymwdhFI/7CcK8xcqphjKmxUCtE442rChHGAx4PaDRF4wGPp7zdONeq3LAtSpsa8w3AGoZR5FkTmxrUEcDbiS1kkM9xgeCLlIiMGgDNNYfRl5i76hNhbyrJLU43u/aRLmNcP/volrYoao/E+K6rCV3wzZYR4eZti8r78U3BOA2ATlLIUY+GjyC6x4CzVPsd/1nUQLNmWg8Xee5UYM5sYmzx5gYkMoyrMbLvADnvqUWZB4ziCbLaK8hHzTenMnHa4kqUZAZ3i9a5Avw5tMrpUBagR2qdG96M2mkNuMJaMlwElp/EjJlJhTJX4vW14ZgrXFWmasTZ9RaRCF1ckJUFxAkksUVi4N58PEZCi6y3SRXKzVJMJU6VTAU/xRzQ/PkmLlFq0AlI2lr+y56nM3otAwTGmtc8W9wMPdBk10KvmRhbuRH6VLZcDRYR33XKfGbFXb48sgRPCaa7zuLnPCIGU+beKjEEpcXMn0Gl2O+IXESSVriEcMrSy1IuiqUy22aWpUR98JfbwiUTzHC1BA8Da/Nnd3ql3sbNuXo2VzBOA4jktjdoUG5RWRZPXW4HIxlcFtgu8PiT98VE+laNtCvYk/pNSZjDBYdZZ6LBuB2MaeMlIqZxQ+MpvryBLk+xHQQMn84BDgKmkAJx5kZsYm3rpGpA4pizwwt7UvkFnwgJXUhMzfcC0se4fZZ8lRD622CQztiXvRF0dQU/g5oAmIfc1RHFGbrUNLhNXWc4KvOwbJgT9vtukSoHnunQ7/7R8YHGDCr5j/bBnKKkF8nFaDI52xxO1JgUBms2zLTeWotm0fiQTy6E6whHprNpUS4Jo5G2SoGNHk8LNQBlzOxKbwukmFZbSYk37cQIN43OV0BJM00gEjb5wfyJwzE0uWm/Pw+v+6N265Tsi/r44/pB8e7MbjIBOqCGGkb3tovlJTemxTcWG2fOkUEAJf9F2USquhYP0njtb35efSjSHY27h3YbAV6FKKwxxz221Dvx/5eHERxiX19rtmosvyxnIgCL9m9eqfyjTK/MqRXvWlgnPj0J2+D1XFqsQ0nyw2h6EGuwAgZxGeDgDEddp058bAkyUI1fguY+FcCJEvhsFYuH4hhOzJQ72Jal3bg22rzS3nB+NP2qbLjk4TUXWphf70EIOE5xp/Zxli8BtQRocQrL00FLGy+1Wy6228+Nb7ggGy+VzSzr2tfhDhQMRHgUP6Yg5VyoYPcbAy4cgbazinVW3uZgPCTZ1chwMj46Do+O+3+4b+hM5eAuh+xQKBTZCiGPJE+HEmQ61VUMAxeoNyGb3mil98YdqYapcww4MDryxPSUcOM0gqkI+l2+BDEB1IIcR6vuf1zoXHhg1E4MSchUzxsLkwI4xwLk1PY/mEegb2lQ3qiw8b7HNDOnqeRSPkgFMsWINx66OKEIJw6kMV27i3zjXJMKZV739ZpCZ52NiepxvpmVu6dCeCwrZS4FA9JsOuAP3Ia5D2DoxMKL0nHMPSTk/JIe4+G7rKWPYmEsFA+PyPeGwKUkZUumGOAfs+OD8CQKmcR2M4DzGHdSZ2oEsDkMdCm1e4FBig/TXEE2oNW8MTX4VmWjvxpTaqDYG/NmArcJmO7HKGJtDr1DZ0YHTHbfSGusoF85BoIUElTDWW1ZZONau2VlvPXceNNQBqOe9DL769AMhT36ZCzedxnJHGIOxcWdFvhvIhqM2s0X223nxltX2o1rBHtEgA9Cg6wbpwhjZumDf3Un5ytwoq6/jH9Klo7HJji6EZJuL35M32fWgQW4SahbsyxsUkCfNM9KTw8zyexGCZXlBNgQISelGABCKKg3CxU98o/sQW3S3hLzmbL420Ck21IfH4ggYAMAzjPMK4wVtKznv92g44YysC4TJk5topJdXdnMW+6+sNE7BvslYZISPu/BHK4x0D22STGNnDuFSROsaFqjlur/j8q8ca71cOVfwSRVHqKWMQJHDDoahLmBDB/t1tplFwTU1jsdrFJsjdi+cni8jgOLC51ybsgNVwzSYq2l+/AIUVGBRbGMkURpPkpMPdzDmZGOPx6GiSMm7vzRBFpHygs3J+JLH9BrNyZEpP4pfBskiQrZMYiuVyMyo1+PuvuP0ZAm3P0xVQ+oSgbsRSp+pytsCBJ7fEnfVVk+EDYiksFoPD0cbzk/nh7KYORdpJVe0A6YDPyQwP8rxEDovvPnHqyU2AuHq0MViKZGsvnVdtu5dsur0ox1XCkQYq2YHTfZ6iY3qttTmQWnD3QorAHvHOikdGOz7BuCjhVSGC9xSwCQOHMLRdYZ14xKCASeCjSjETYIvNlmrW2fiNooQBEeWsQYrLTGHF/2963vcLqB7CiaVKP2wqGOwYgYj9q1PhU0QZJcAxWKc41cZF0X4ZqLk+PUdhNlyPFC4UPJ0RHCwBIaZ5vleuJC7vRf5HUdDSrf0iZ434AKgxw0Zvk3NTfzn3ucqOu6hTJXSOl9Pc1xroi6gyrh4ooa1ImdhlU2GFKKukcVED2yIoaB1N5Wi7MSPDBpZ9Q3xPZAKjirMGS+9yCWk4u2zk1vxBugOiTH5M1eAS10KIKRWOcKBvyVE+J04nIFYirs/6/tlxNpjgjhAJsxZVs+sTNeavfTnT8xirQNsfeRCPoEYk0CLp4Ofbl96loWL8OJIq8JOxGG9/qNcjXj+Nlt8WA0nlkZz6y0G9bYf8XSZkt8q9MHuz61JKEjWeI4l0XISYQ7GiIGhcgRkXuLHIATKTB041q77Xx7wwXZuFYrfRaVjt6Lk12+ZV9qggeOBlsX00CR5NtcCwhGgoAzUWHHbH0NkWBNjTWircA6fUauL1pXn4QwcA+GCj107Gy6KkGcAH2tE+eRHuCb65ynhwVZyiv0rBUiKeqkmyQYW+qO2HoC5GR0oThVXeC81FJJam+4X3LSTiWZJYKvZslCN03eKFCmFvZZTzOeiHPJdzEwUIJYX8IBhHAU3WFO1aFrIetUD2hN6HXdQpn1ritHZa4AdPAwSO0kXGYkyV+YpORcwVC5uyIiP1fNIP+ZJt3sMJffo9xqt8T2UMx5h1ZVCV8eidUBeItNg+rJBOVIPT06eyOVWYwwAT6FIlkQxxgmMUTAIt2URCjgfgUOQCXn6IYP0JiQJSUkg1PZMtsvSKhIHbkU+1VMkudo+wC57Iv1NUpp8y3tcFUuLnlyyUMOsqsb3kq37HoCz9RuuDTacm68eaWEYZJbYoXf7AnookFBQQcIf8X6MqnCvwkXYoHy1XaJcOMyKMLRhjtjYswdnrosM6+2287RpjXvNqIiFIjB4VBPAEd7cHQaU++BAVxiawEdjUSzEkjGNQsjHUltQMzNMxVg0AN98LN6eGMSDsJtULUEF30Bb44GwRDY+nY+JVVx6GZWTmDgOpHSAQT2pE71sJ7NDKKFDHuqdi6LRA9HREhAzKJhoFANkqTqeRmgAsgK7DitnmKRBk+9e/8bBAFhftf2/gCZpUWpy0yvJwpgy0n+jfoIDpr1TTYmlnPEDp2Chz46KzxR14RBGeHp7s1kKNeZgGuaGEe1/U2ETcSb+jdcJCRgRWNuTOMuJxFDKkL52HLQ1HC5SsRpD7DIneW5AgXSc4DC7h/dcxDha7IotFlpCNuE4KR8lzwu9XTuBqJ9pFmZY7tOYH3Y23SrZMgjHIZT7uEdZFwUi7r1xBCMI1QZhpZFBdajXMNZI8HdK8N7J6wlDapleQB6ESL6WHs8WCV7Geq5XHHdS1fy2w2XRlvOt5texVefSGeC3VIXopCVAmXI3QHjvUQ8AlPJjwgYgN7Mi4jNQAKiQmSwX78yUdPK5ldl23nZeKkUCtijgm9zBSv4imEV43GHhGKHt7QlUMFpN9BqdHbYj8aqmnptQbIGhR+0Eri4QZOid0wSYGhM1mbkVIM2EKFNqexXuE/rmm1VREnyID2lh4U9plU6n/vebcL+5jtkBcgRTAkIbdb69fxCIszm2OUeZxg7ozw1MeGADcRtZ4CxsAOG7DoikLO8nCqrFQwAavIRDJ+Rjo+wih4kCxMZw1ICNmyZMGwwYeTSoAfK5MBvPxa5AkYBb9ov7utUW+9BGASFuJXJgOqmeIJCZwaO0bW4T2ezw6Yjaey+AuakajW19ZsJGPTE7WWl4dqKeoLOnot6M9svs8VlLmFKWtNcZauwxQR80LZwd121Mbr1DFaDW+z6frHxJraIsd6LhjlBgGiZSSLO4eQUkEfK5rQBHYJWwyVbYad0jC4mgA/h0r3RKFAV9jTUwchATIutY1UHXpJby27NCrv4Zk/sXdeBzI7UaC3cR4EJFMhg7ahpp8XCxkErmy+22863Gy/VgC/alZgoO02IQDc8AVuzUKDjURLPc1dd5CbIJE2fdQ0AEjNABMcTSoAC4ienYDq4MyYyUNaFFilFxnUkzgG45cnpMu68E5yCpz1WtQvhDKfCiKP5HqyZgtLiEWh9LV5leSjb/0wtbIv6Q7agl2tEUJPGn//JY1QzGAKUpCWAToUXlTtmNgDbddwU15XFzxNERDIoJxuK1PMHFcms9JY3b+gZ1Rv4mjAo027Y9VfSDmzqX/OBpmsplRW00vCuSnfp6fZXpWlVsonVbdUlnKFGN9UDV6XaFqOm8TrEooFDEyW+dC4K6E0zOz1aS5xOXXyW5UkcxiZVczXtaEcMtYSJIUswym4je5pIMxJ9z3rFSHa6LSKmhXuYwBaldbcj/mJxdYlknQaeREkwWyLJnDOnWdKNRPTitb0Nt9aLErQZu9uM25mL45kVBDESlQNymxOsaOn0wIm8SofCKVIOJvXrQGwN6DSyoYduhXDK7iF8clUsmImaMW2+2G5dkaaNiIqiFhg9DBjTsIwcwUFXusc4a7Dd46JuXsLECbkA9sfFz6GLxAjrSXXPDl0FWfXcxYgCUFvQ2KASnP1xXMWVNGJzDF3rN8crONvrvjvWnTSSbZ63f3bQ1KR2CpezRoMulmkR5zEoHBPZ73PCrkpUTyYQkKb47AnZobmunVDGwqIzNWi2zc459Mi5B9TRqGEmHvIwxsU6s7h4SlJU/XgDjNdfG1Hkf8uujfWo3tjXhEGZ0aa9fyXtWE5fQaPrYoyeOccPVwAn0v3YEVdwQ1CK3UNzj58yC6mPDAeocpiPL/sg4JpSzKGij7wnD9iDj1M9dIvCoOWxY8QU7qQou8c+ASyGKtugiqlxC8u28cRg/UNjIaQP7tU5RRROK0+Ae7xiuXz9Z3YwSMUsvzral11yNGD2wnpJ6Q5iOTUeJjfDGbObDJLYjCRLitMBt9FShST5qkuYWRppNw7HMxf0aBJ0AhyIm8l0mgiiveZ4Gt8Z/qZGcq31L+y2A0krkuOB78iIl9IAACAASURBVP4D2ipiWNDf1Ei2nWs3v5p+V2EdAiKZAwAMq1qYgFdkqdsw+Tc5VflnVZ1u4gsMLKYPhs1RTLpFO0yIAkEYFsp7YUaeomWmmNOsAKntTH/EFQN4YsfQSEkg8+gpBOCq6QVFTowKqCFoQwTwIpQX1AdmmJbUm7+d3I8f46PgBqnV6JFj9iFVbcfHHjfg7eBSB0AJRNUyg2oZAgqjAyGCH4BLvsJLucSmAmb+rKvZ2zbRRF0TBmVk4y6qEMbPc0V4YJ3u1lts1q6827L9jcxUtI7WPoVPEFB0sSVFWu92knX6UDnHo9oIig85oyqOiglzOKGi+zsFKEgorxLOhRewkV68aTHz4o5c3ASKGnkjxjSXLXEnzlD0o6hMJkTXbYTRYvgFmwXgGivjwfS3YY3DfnVFDm2fjcLQUuyPqbcNE24YiMEw+5zFQhMHWEsYvIQNNkrAXzrlLIPRePpCu2GtagNRMoGwpW6sL+NR8uXiHAjZ6vgMk17OIZzUB06pNyr+HVvtc0nQl7cOYI6IhDatydYLsvESWWAPhg8upK891br0zmJYDePZbQOcxpyWnTvwOgBTM4n2VckQVFs/zjS7HVOW9gjidThGmN+IYnm8Looxk0ZcS76vp7GxztXZozCtVntWtNh9pOBodET2G0nQdZ4D1AL304R76KK/HeFygvKE6dUuTzBdgUXU9LLVStIHKomiynaLKX79qGZUD/i1ZZQAE2HudMlkK22wBgyEra8RDsYtKQyUyBKQJQUnja8cDTMT0Zvfu6Vu/I19TRiUGU/vlWa6Cz56lO0XcEWoowOx9S9fjRT0Hnbhog0j7brg4zB3uA722mEevGWgp9rkCF+eaogdCPLhCZpsI959kZuAyjWF3mAwhou1TQpdXIpFjwQ1O4dAxH47BNkWdNrBCntQ2WVKxsLvC8wAm1Ev2k5IJ/naVfsD7xJzEdxAZgg877rveEUoEIymxMbuPcfYOwibAWyZueO23TQcT68Qt7TOlbjA9TM31tgZQ62Aogxf+zRA1vmctEkiqzaXumJkp55eAaYRebJC09Lmi7LlVWlaEBFKMyud3otUmrxDjCq74IouLtOLmfn2489RK+Q7FN67RWVUx1PjCQUHrGN0nJwpSQDU6c1Qj8DqSHzh9J49UyaLr0DUNbfeUQCoHvdNB02r3e1WhtUQjKen6O/AJJHGUA7szUH/tqTJO31u98jXG+lieypGh3Ik9FW7DcBRjTWxwDS+7gcRi2/tuTYbp8Fmp4htpXQpV81ch789MpSZa0IN6BCRyJY3b3jzezfTRF0TBmWI6PLWj3RvdtBpVyte89WzEE8LBUL5SR+485dMiqSvSFZ0tn/E/pKrfwcvSdHHUOB6feBqWO5qakot0bBfYoMnoiaiLGRKghrG5n65/DiBncXVZB0PDVC2+Gi/RN9QBx259TQPabEodUuaT8fGUAZfij1kcGYBJO6wkLw/Vfw8cYXylHtkSKtskLGtFN2j+BSbM7KwVvLdQnbaS2dAy4ML8XNkKI3onXrCk0xM7eDyaGalnVrDgeDlwZIEjt2hgPFDw9rVKAch5a9CnzSNndLrXf1jQpwKNHOnQHYlyK0ounGNtl6QDaPoLrnqTmJPg2JLBPklFDwBN5egqSAJyYcSVIySvlGcaWDVNp+cQkLD7Hf7EAQIXYmscOZQ6HHPwKN3syuIpSSk3IGjjlFE6h+oN2Ic+lTmJ40XI6pOqcm/462U6Rh19Q+MyLeKPPISQMfJ0fEBERZgw1s+ynoWAZwI/M3wxmwdgerVw7fRdSFZkn8ghwC5YPDet66wITcxJhJJHvL6jScuJEOTCGVG2wLKXGmn6QqPrq3GVdKB1TX6Z/9gwXRHLZxktUsXCjcINqMyoJcWg+jhl9EtlWJJMkGyAfdEiywdFQ3cFSlvTlAhLZryKDqHQsI/2ron1fpPNpKbaRG0d0C7//UtqmJnwscT6rEjG8ltmCeo9D5Nn91M8y7Ae7Kcidh08MCEIjrc0XIR0mL5J/ysoEM5m4PsCkwcpL5TPmZ+MRFRu2nYTl/kpq0e5oo6trQutkMhRhn4vBC0HiToeKi411KxnRq1m1bbTasyvdZuWpXp1XZ6VaZGtM5VpCE0KVEb/lJsC7aiIdCWc1Ov/LbDZixbz8vMsCcyg9DEBVaRgKZkeWJXISQFkmqCom0JW4LwJcYqtiLhDrfLcxufGJoh8a0Qxk3ozruvSE2DINjy9g0l1Opfs0Y/h/wrozoDThIjPqHsBxHShlfKaS1PDQ8Z5/CxZ7k5M8GwQc8BNBP5GT04SLMUNvjNChsgmGCQTByuv+48Bs8mPNasDUbjXNlgJStvbFFwAWKL8o9sCa30DQODmMAKV3fsK30AMCsksv8f3kSTdk3eL2NLM335ho9suPBduira6Lt844M7gfrX1ti6hW2z03Iz6liOJ6rWNpeiIqq4n4AQb8PyfOElCO40uzyp8maimNJQnz9hsh9ydrVU26eJcm5Bo27RYg3beNiC/UA6CZpgRUIdSoI8ZWRsH9msJbZ5khwmZVhDTrujHm+RfbLB7vvBSWzE5pDDgAblZpz1l7QtB5RsTjTl2fkpQUlimJKThSGmBYNh2VGZXXMb3LbTr0pjvzwgUElS42LEwaSTzRSgLWO3CHAFxJmZ2o2ro80r441r4y0rMhiNt6zIYHwFyEJEPJpq1qZ5NGhWp5vV6cHKlmZ1erCy1WMP+aWjAt7L/Wg9GtufsnPnxhbzFKFzRETTQ9lwiS5upfEgsyFhAxUWUyl0FUUvG6a01dE7iU6zwRpy+Y+QIQOOcZlAoshO/CVl1YYx5BJwp8ic613J5CrqZm+585iE8UrJMz0GcfVfFeEuJV6RYYA5KxdtYAh9berCnKnRkNBUJxlCKPkggLMh7xaJ4gJbbbBQS8LUkOMXMXsW+hvnFyTmEhRQ0t6/i6AvTECIYcUbrRuHEpPReuAsR65ZiYWXKUjTJBRnRQQlIYKmpYCo1QUrmru+7a7ZLTsn7CQ2TSKUIaLLN/6tqZUnWFZfR931cMxruHrwB9ys3SohBohvAvKrlAGRRG6cipd0M+qrFjdExU9Csm00AU6paj+7ijyQlDKpWgleU517IDYiIuHQmHDyREzS1tsTEay2ghzgLEwwm/k2SgBMUHVfwCGZ2XDHi0bXC9W/eRsGKaCPMaQhblvfQWOG8UR4id2yRBzOcKmBPyQEJ0D8H9/aRnMUVrhj5YKH0ozG5YUx8QhG5FJhldyOgUtNnCXIUGJosp0ajW44O9p2brx5ZTxz8cqopfeSqdF4aoWI6MZzQexoarCyZbCydXB2++Dsdh67MY2chBS4MGbHJAPO6+xyAEuJiEQGI9p6gS9upfGUs0QnoBYWlRZPpMJJVOftU1Pkvy/yCTRbf/YMHph3h9bKJ1sAQBUYDcW+gcq/EqIaDUglRBRW7kahR0xV4ux2K5aRwzEFsI6pEJyqE8o/c56C7G5N1wHDWQHHBDoL7n5tvmK6bDUSeDHG5e0Jkf9MbJpNAvXkMGkAX4Djdk/nK1t97JSxUjTuJ94NLzOQncoD6aW8TWLhjC/AnDDrOmdhGWrFV3XgykVt2padG9/zDyYvJENEfO7cuauXeuNdGy58d+Pyo9dS8udCLeu1kJRt3a+BV3pL+l/OXsTvg0llhxgKFcRvFhotaMEGCa7WqQ2ORPJXtJewBEkVTcurAYpSol6ftXEhDa66bUBTYBbITJGrtMBfMk8fHQn75rOtxVOsxcozdEtC/nab8BYwHOCh2kQlCd/zi4yFz2om2pTgrLtqHqTr1DUX1rlZTV+nDBq4dmptvGE1WdyoBfYK71dtwl/JVBViRjecHd1wrvylX/w1OLt96uz2qZffNFi5wYgIX+AuxqEpuAkfRQCwPlUwQz/cTKvTVgxBKmUA5AiDs9KUMg6F40dV2TduzZOYYnUJA2iJ+ofqJV6+LswGVmBuPdGYKQ7QYayCsZho4x4z1Za73aHPxKAIWUBCYLCsiCEqBjPB5qRJgZivt1kXy2wUZXvQBk/BoMLccdVp3Q4RhK982ZNnBJnvHeWpcWLgRYOdGQ9udNuP8aalmsMeu5kXcmm8SC3VUuQa5Oy647/f87a/vZ0m8JpUKENEG5cfLdtMfwNX1wHgB2JqpVM4h4Zd8kS3HmzNziISYUqp/1ot8/hwM9LxzCVjYgx3CgAlCTewGb6EckpVAQ1gxz0V7JDUBbSP4SVvkwtz9D7qdOzglBZ0XVgvo4CMhFGwJ070SGftmwtkNEZAPFcMcf/qYaXYPrP9JnbWMUkRDDzrSk5PhKu8cWVX64x1X+s0S7thrZ1aTRXX+4Dz3i0Df505oxvOjraevbTjxXbTGv1NXM3q9NTLb9r4wi28OoMbBzk+AZY6thnCX4oFXTpcYSKi4WZenU7u0Fe+RJV7JvJoB/vsJ6CbUYWm05hfLJ3mp52bmgec6CcYrw9H/RmhiwJuaBlFJ6k1aBaEIrERIzrWYIdaSTAxIsXpFGIQ1k+Djppgjy1NYii3USiGFKv2KQQjt5+SQXCw64FFWBtq0MTj4T4Wm9NK5AzOVkwDxFNRWyJhDYq0Thwh0Kz4LyGuHTjoM54ZRSHPwQFyy/mOz+94/39zM03mNcFQhohmXvz9Zu0nf82dBiao4AL+tQ/FgVFbpKXHzUuYpeQd2Z8SAh24Ge7T1LzPVBPucaTYQB/ZaQgIUMr9sNbxVfBOaLUYmOPUmo8uRT7UomRHLmGTKthBCb5E2CaPXaAwUR4Lop/K2cfNgDJQRloNvTjmq6I15v0CDdgoyGLoGclBrS4NMbO9f4najRfb5jIRVO9+7pXPK5ZpB6NLO168vP3l0dY3in1oVrZueuEtg5dv4stTIT61UaaYU3ZHW2EL/GBztzbNwy0i4S8prcUJfUnPCrh8FUQARh5DeCCYb6m8VaipfHBHaNXX79qSHrgGJcGfAGG4IAp8Rq5nlFswj4j9Ats7rrqahU5QR+x9pOCbE0YUQlIrtlAGXh73kowCiZlb4BI+xaBImjiYGsRADEy2m1X7ZgPo/2Pv3aOjuO5839+ufj9Etx5IjUBCsjCCMQiIDTHmYCNfY4e5+IGTXJux710Xe2bFPo7vWpnxJHPvWcnJJGfOmfjMiWdN3jcJnntPfP2YCcQ2GezAibAxxhZOJAQ2wghLSDxaQo9u1JJa/ah9/9hd1buqqx9V3S2pW7/PskV19a5du+u1v/X7/fZvA98e4M9O0kGqdUVx14x8xJJV8RNjqY8n3zC1OFYJrLTXBnfVVbY4dv6wBUqW0pYyRAzbR/5ZiPgBFG6gvJxKVOGPT18s5a+0nsoOTM7HRLlbhCreBdQfgesFCVcGQAqyIclKaEpjkj4aql5P+TtSpcM4qcH9osR7f+L5nlzWbLzSKsPam8wKk3Q8gfRMVbWEKMsA5R4N8nrN1rK9A68DaOpX0ilJp3vk00M0v5KdTfy2vAeK73Yop0LUIoZ/7gIf4sF9m9o8+dfJka2EUsu0aIomSya7EeX1r3WtUumRqfqZoik2W3tldukVPjvwwkEI200Br22gGWYcbI3qIZ7sBZU+Jkg5tMB1PAAEohYy5aJUSBamym5D3p/UN1CucrnvT+lduCEyGt8mFYAs2eVbX+2uSl7yXMMS5j/pLkv+RjmUWNllqtsmdb3yPcfXr1iZ8qO0dJjiiKXsjru9kopNKqBqDP9Q5NqjZdySt2KFCSFisnJl+xWPjRSZSPhWJXfByT4Ni1riUkm8MREKlIDAvWZyP5bJ62QXQ6R7mj8FycOrtszJK9N9C5xwUQojICCKUniN/CChiQK1be5t31pZclNI8pS2lGEUxNOkW/1odjag6FHkrxKV850c76nRrIRTACBddtK9zoeqyFGlcq/JNVLkK1S2VnocALc5AHChJCkNkzdJmg2ous2JPlbOLZLQcwBAJKMUBcWR4YSOWt9IhZVdBBDO4QIg3+HJTiDVDyXvUd6Q/5npjDTKAsnNJWNMxpOe2BOlKndSUtkoLTeSyVittJKGmWTfQigR49YpEOIpZyf9Anf5KZC+Fa3hGd+lSNUwlAIWv8/a30xmHcrLP7HE3SUpr+aK08UfDAIxE4SWsKQ60sFWdmZSlyZ9VL2GEO7WIXKTkh2P1F3T5K4V/XFiWfYwK3xYUiM5fSP/BOnyTwggYNeS3F8mLit+Q6nZ0u9SrOS3Sh4E1kkTqjgaUknFb0mG3ajNObKgT+m800oZbhSB4vhLP5zKtzxXJ1ettFP+GPJXC6//aLIwL3RkISI9cpX1J0+Nyl4FspKgqh8rt1Y6C1y1yguDUyRygxVHgwJVXd4pR0muVnoVSgbZAIXVe2o2lKxfSaYcpAwAmKe6rcFjJBYwtrkRK07m/kOzk+M/Kg2RSpWg0fekGnISG1DOhiHdaSD1tWrnl2p3mo1PfiWJldTyGvWkKBuQwoASDxqa/BWJraRnGlU0ODnkIWlaIMrHgMo8A+p2JldKBxpkMZESx0PkwKaEhpDsxdJgFU0rjnSsKDe2nAvuSTRJducRqWap/UlBw6oi8o9Q1J8swO+dAo3bQiDENc6m6irOfJXKh8cUn67vKxURw2Px+yz9zSTskDsMXp0ouy4AxT0EqsKJ5ZgJQkuoyHIGEZGJZqoQKMB1hOoeUboX+XeEpBTg7BCQPAnKLlPqnCB5/hVBspoSLZ2xB5JCOtkAfr/JyglwQXrAfaXumFN+bDIwlq2X++Bka7VcaVLl0kuFIkYYqPyykSIskj+Kv+nTG5+Sm3P9t3yIpAdUMlFPyh6TRyP1lEmNkZZBXYO6NsofRlD83uQ1w11dyoaxlapWJX+Fstmpp091NCwu8y2P1938UDWUPmUiZQBAiAUswWPmqW7dWzIDX3o1k/arZMepdruo/3KRLtkERKJOrmtXqBmq6OPlW0FyKkHySudsAGkapl5Qhv3KN0+i5USyZkhPZMpZXGT1ILdC4TmXOntuL7LI4EN9VQ3TciolWpH4XVRScBrngo/14ToWRRuSjzfu1Ch9TFyTNKJnpL/yQ5cm6iS8fJF/jlRArlOKZVadKanJ3ErpcKXaY/jG8NepVEma0w0UAEyxcM3l2ZqrC9OdlCPWgZssA82g7Gnkn89diQopwy0Q7i9A3AyTFSy1r3Q1kdQgU4V4Bu5FP53bhfK6RMMYI119XPfPq3n5skrtL5OXvMI/krD9JazCkLJHde/ON1the6BqTcD9ZPlQ8IJMLpXqAVH46aS2qd7UtM0S/CFSHQHZXJSoVtqKG3yUvKPlXDJ8awnwPqnk2ZQOBVWeXO508McQktdbag38AVd7FbljpTgClPLKjP825WRRzeFRVCH4FBfGzQ/V/MljvpJ2KvGUj5RhMEFjmh0wbKHRh1avlvhLVBJH1Zum9IJAQLqnNf9q7xSkDg+SFhoiVZW2kcBFn4DUu8u9qWKlpGkkQUCT4okqy4BSAVDl5sBZnHmJJn2VTKepUgDJ6Fql/0W5U0lvyb10It+DfAaotFVSdfEKQHEcQNqjJIa48tLPSuxHaUZiv4X3KMn6RhUQyJosr+QsN5LuVTeStYTGrdOUj49R/k32CXwB5YJcJuoOTK84L1rnZ2hSYRHCdsvATaZrzE6elDK8KYUXEHIXqOqbgR3pqIVMVXC9MmefUKwB5YnldkT5s53SzVO+MSozCSTve6ookMlGIvWm6Qw/yXd3otZS0s2k0HOcDEonoTS7yWQcruT0UVmMFN08/6PkJ0pSRVF1YXlZahh/YOUI26RjS7kXpnIIcCW5WydVLCqOkpbUUB4QRUrA5KEAripe9CQPC6VABHkNfzHQxC8lqcdQfc0oryi5QOq5MztNN+9ZevNDNRaXCcqIcpMyMkJ4wDQ7IET8QjxAYgEiGsmnp0nSSKMQB9JyajeZ9qMUB8NWpAgXotwq2R2qu2e5MJHkgsIYAJzKUbYkNXhW+okASXOIuuUk2UvIjyHpcchXkhzdI1VFZcs7p2nYJvyYJuAkApF+FJUNGJJco5B86idqZ0eCJjscdfvVJXk1RpLr2a9RjU6SapCdSqqaE63lLDdym+Unn/S7pJarfgI7ubxik1z37ECJlhnRFEk2iRNV6nYqTqh6gQqxqYZPo0tGobww+5dZBm4iM45EdwXspgAiDSIE3gOSQFPQEDprhWmXpMKBLyD1naBcI9+VqWojpVvi4z/U/R8QkH2eJPmqTUHT3qAUOoo1fMOkq065hnJ3ZKqhiEqdrryhIjxIOm4UFKO9KBAiJB5U7B6Xf51mlA9VnQLOFKEIx+Fux2QUjiIcR24Ad8w5DST9nFRRoravqNsjtwH4X6E8cZKwkwSWfNJUJbnfxX4U/ys485JK86l/VPIwykP3Fe2Xrn8KYHGZLS6T5ybH0vVub4uzZn3pza+UC2UrZRCkdKDZvyEghkfpbAHER2zsD9G+n9HYdP5VLUCIvcbS8LC59s4CVGWrEew1wOnbDGXz3x2CIIZBKYMg804aKcOtFiPjNDyS725i05HBA/FrOaXJLmnM9fdZGr5IzM486yH2OsFaKX3IUjbPfSEIYhiUMggyj6S3x3BfUjEshvJNBSmGr8+e/buC2HVKAmKvsa/7D8SW74QygquRmJwAKGUQZOGCUgZB5otsfiXmJY9HxelBEKNpC+dAPHgu0vtCuTqV0kHMTsuqr5irb82rFsEiuBqJYAGAZARF+n3mtS8EQQyBUgZB5gstKcMFx7COM37jItC8dEz06lvR/l/lU0NJY2542Nr4cD41EMEuVDQlPtDkqdEsm8+OEAQxRpmMKUeQUiOja4lBQAyP5qljIoMHFrOOAYDY0IHI4IF8aqBiWJyR8gdm0SopA6QQBCk+KGUQZC6hWXo7ObsHBXE2mGdoy+yFn8WG8urFy4PY0IHZC/93PjXQyETSPZfFzYSGGQSZa1DKIMjCQBY5LERGjOavY+IjxwvTttInPvJunmpGnL4CYhxA0ippFSkaZhBkrkEpgyALAyL9BwCU0tm8XEuoY1LJV83QuDhzhctmmNn+gmoGQeYOlDIIMmfk2r2JkSCNGo/HRx2TjjzVDI1Ni9EbuRc3vCMEQXSBUgZB5oYcOjYKQIHGo3R2zPBuIoMHUMdkID7ybj5RwDQ8AmI8a8gTgiBzCUoZBFkYSBMy5eNaigwewDjfrOQ1ponGxcgoqhgEWVCglEGQOSBbzycn9o3NGHYtxcb+gDomR2JDB2JGbVd0doLGZyQbWuZzi4oHQeYClDIIMk+op62mACBOXzVWmRi+Hu37WQFatWiI9v93Onvd2LY0PMpmS5Y+c39TyhrbBYIguYNSBkGKCjfAOt2X0j9iJGjMtURj07Nn/26xzUuQJzQ2HTZ60Gh8WowEgXA2mSy2GRQ0CFJEUMogyByQU09mONo30v/fF888kQWEhkcjRlMh0/B1oCJbzFYWk+YhSHFBKYMgxSZNT0YUuUkMm2Riw+/ikCXDxEfejV19y8iWNC7OTiSWSeY0M5n8TwiC5A9KGQQpHhn7sMSAXgost2/EiElGDF+PYqhvfkSHDhgLmqGRCQARIHeVgmoGQYoCShkEKRJZpupRFI1Pg2jEJBPt/xW6lvKExqYN5s1LGmYo0KyjmQA9TQhSJFDKIEgxyOZT4KJ9AYCGjZhkYsPvxsf/YGBDRIUYPGfMzZQwzPASBS0vCDLnoJRBkIKTiz0m2eMZi5JB11JhiQ4dMDKaicbFSJAbTp9ZyOBQJgQpCihlEKQYZOuxCJH/GouSiQ4dQNdSAaGx6ejQr41syKc0JCSjiEUHE4IUBZQyCDJXqOQNIUCpsSgZMXwdRy0VnNjVt43E/8ZnaXxGsSatjkWTDIIUBZQyCFJw0g/MlUctsf8IofKAXj2ga6lIGIv/pbOjCTMbC/4F+URrFzfcPARBNEEpgyAFJ9eQCBqP0FhIb+1okikeYvBcPHhO71Y0Ng00Ln9K/JvJm4RqBkEKCUoZBCks6XuphLEmWcBY1nw0yRQVY4dXnB1PfpCtctpqBiNmEKTAoJRBkOKTxt1gIOAXTTLFxqhhhrOu8W4mrbIZvkMQxADm+W4AgpQTWv0TZ4UBmnwjp+KsgYDfuTfJmF0rar/wBrFUZC0Zn7oydvzpaCC7Dliy7v9wt/7vudQ53X8g8Mf/RKOTObW1QMRH3jV51urcZpbGZ4jJIX2WzjU7+xqGGLTNIEjBQKsMghQZwi9xuiYS1CqdiXkxyXg///e5aA4AMLmWez73H7IWE6xLKtY9m2OdzuaHHSt25lKygMRGjhvw/dHYlOJzplmZAK0yCFJAUMogSKHQESUDADSqO+B34buWTK7lWcvkKGJ01VlwDCT/pdEbGmtRzSBI8SlbB1PX6OyFG9GusUjfjehkRAzF8KmBFJvkNZbZeUAAbBBeQa7q3cG3hWNV+puFGODG0OFvXNqud6tL1BwFS9ZiFAAdTMjc4DaTZS6zz2G6eYllU411U7VtvltUFMpNykxGxX/5LPTaZ1OoXZC5hYLkQMqhj6J2COvdwc2krwrGs5dDCoEDZlZBXx+s0rWVC6aC4M3t0aNjtlEEMUwoRi8EoxeC0eP+MHwKPodpU7X1idaKZc6y6v3L58dMRsUXz994rd/I6FYEyY/kHDw59k4uMpW9kJIt0Kl3EyQfPk86+6hOKUOmgtRDgOCLFLIw8c/ED1+eOXx5ZtcKRzkJmjKJlXnts9CXjw6jjkHmCQIAJGMuEbkc+9qh3yrTRs4aaRpilDZy1gEz2ctx2CAigAiKwUsaSJdBppTACFJUDl+eefb9sX8bKpNOsxykzD+dDfzTxzfQo4TMK4Rm65Pk8Ut6O0gAaCNnDGyF5IMDZpbDFV2bCCDaYBayR8PIZhv0MSHzhn8m/p+7A/90VvdQygVIaUuZyaj47PujaIxB5hsqvYiTDC/ZkvvJSKDMejhjhCOyJAAAIABJREFUvHWIUdqI7sPOTm5mhcLlF8KIGWSeea1/at+710vdFlDaUubZ98e6xiLz3QoEYSOtM+kYACCSN8FBdNtXbiYXDTcOMcznySm9m8gnN5NNRvGptLsQpAy4EIz+n526M48vKEpYyvzT2UDfDd3JUhGkoMixDgT4VL7aJL63gT79vRyu4NilecGAj0k6ubkIFDm4CtUMMs90jUVK2tNUqlLm34am0a+ELBholsyuXF9lg1kBRF2130z6jDULyR+9B18A0QwxyEGecD6mXIojSHF5rX/qtc90j6xcIJSklLk2Hdt/fk7nZEEQLVTdTzo9I8dDUABg/ZwuVgFKmXlDr1UGpLBukoM6IdlmN0CQuWT/p5MlGjRTklJm//lJ/0x8vluBIHI/RDJOhcyGaie+sur0LgGAgbzASKEwEKWUu1ql8h8UNMgCIBQV9/dqzb+x4Ck9KXNtOnb4Mo5KRRYIimmvNUuo3rttZFbXDhwwg4Ey80gVjOsdBi9LmRzcjqhjkIXFa/0lmSu/9KQMupaQBQbJGivDPxj0OphWEN0ODqSw6HXw2YhseEtMZ5EO5QD+0us/kLLktc90z3Q775SelMHR18gCg2aOeKDKsAmLTiljIFYDKSzVRJ9VzALJkZWZs/lyDiZMMIMsFEox+LfEpEzX6CxGySALCUJy6oESZQQQ9Q5fQu/SvGMg5698ljOb67iLB3UMslAIRcWuMX1+8Hmn1KQMmmSQhYI8hWQW7wDfR/Hv6zmCDqZ5x8CEWTm7EWnGjwgyP1wI6h5oOb+U2KyYF4ILVMoQQgRBIIQIgokQIEQgJNmFUUpFKgIFUYxTSuNxNCyVB1TK85s2OZ4ydwjoNckAQBVMGGobUjBWkCt6NYYZYhGw5lJSmkYbRQyygOgai/wvN7nmuxU6KDEps9C8S4QQs8ViEkyCoLZvUSmcjwAQQggIBADAzNaIohiLxeLxGKX4CCtFFANPSM4JWw0klUEH07xj4BSYQH5SZQmCodJDAsNlkIVD340FajVIR4lJmWvTC0LKEEJMJpPJZGaWGM2wPUISs/IkPioXBEGwWq0AVkrFaCQaF+OoaUoK+Xwye0yu506vVQZnw14gOGBmBhy5l1ed6AxSlySDf1HNIAuFyWiJ9UclJmXmfbw7IcRkMpvMJsJMLQCUUqZm+CcQlZKmZX0sESJYbTZKxVgsHotFUdCUDgnDjGqAUvqSAChlSpY8pUw2cDA2srAIRXW7wueXEgv7nV8Ek8lqtZlMJvYingCAUsp9AkhRMHzcjCaECBaLxW63m82WYrQcKRIkm45RfadXyugdBowUCb0+JuWJzqJRpHFMaI9BEIOglMkJQojFarVIOoNS9h8zDCc+gZRDIjXrq5hia6EpC8AsNFar3eHIKn2QBUAi4DdzD6T6zqQ/7BcpRQxZZQDVDIIYA6VMdgRBMFssAES2u8hihRllJP1CAYBSESQbDaSkJU99Yim+IgAAAhEcDqfVktPwB2ReIbkH/CKLmRwuERQxCGIclDKZSETGmExMqTDFQimV/gEAEKWv2EophI+tSfzLyPz+zt7xpT9gtlhsNhuaZxYyeG4WD3kGLWWdJZsLHkdljCC6QSmTFqZjgBAmXZilRTLBAACA5GBKmmEopUBFeT0AcN4l1vMlZ5AjBPgwGmlB7iBNJrPNZkc1syCR/YlZO568eiYcib1IoACojRHEMChl0kCIIJhkdUITUTAJvSLH/IpUBDaIiUv+CpLJRjbgiHJgMJfInA19SobRKONpEnJHEFDNLDySZyq3WQuMMw5VRa0fyRFdw5c0yTzbqHJIPxpmEEQfKGW0EYigiOJloiTxvElG/MoOp8RIJki6leRlAAAmZ2TrTWItFXkNpEQe0kAEwW5HNbPQyOl04DlD9IDjmBDEIChlNCCCwJzblHJOBGnkNch2GTkmBuTvJe+SLHgk+0xyXdJuk32INgUQCCEE1cxCQzUBkwZ4thYzotajNf3sFoS7jNAkgyC6KbEUeXMBIbLZhRCglLAVzChDAZKPHcqeQZxlJZEzDzjfNyGyCYeQRCWEEjYeKpn6Xuspx2w2iZYIFos1Eimx2UrLF5L4P/0IJs0o76jOO26MVqEmWgjodTBpSpn0IkUe6Yg6BkGMgFYZNZSznYiUeYES9hhRjpWRYncTOkbaRBqxxPm+k8O1uQFNyaJULpX1GWYym81mlJ4LAcJFb2e2ymDPVCbkHyuT+WIgWW20CIKkB6WMAjEZ0csLloSPiHDKA0AOpEmEyYD0DxWTiWUoABXFpNaRq4eESUbOrceH0SjGcEsQAKvNLhA8ZfNOTuGZmmNS4jqtMhj2u0DQeyJiug3elALFtL8IYgzsF5OIkvaQx1fzQ5cAQAQQZbUhx/lSClQkQJP6Jal1KFNAUuwwJK0xNBkKrEo/k1yZCqVWm20ODgWSEeZdyhbppLUyrv+OQzUz7xgwycTBlLIui92FJOdtQ2MegugDpUwCURR57ZKwt4Ac+kspFYFSKWxGGrWUzITHv6knssskpzdImnmSxhuQRmtTrgjlZI1cJ/9gEwQB52laAGSfLVSzO9L/sl4Q1waSF5fpcr2baMXKZBEoUgh5lusKQZBUUMoAKENVkpKC/8j7gJJjqoFSEGnSygLS4GxpU36sE5CEISZpz0kWV6oWWfeI3A7lby0WC45mmm+yvjdrF9B6Wc/CZVqvdxOksBhQk1qaNYvwJVzOKb27Q5BFDkoZgKREUUXfUipK70lSAhg+1FM218gxMCJnz2HriWzeoSxmhnc1SfKEsm1ZTA2ncyR9pHq0EUIw/ndeoRpLaohm2K8Bqww6mOadK6BbTWqe6AwKhSSfDAStMouEB2/yPHiTZ75bUSZgjwjAvEsgjb0GoITI3h05+wtNDIom8oL8JpUQK4QNnSYU5AHblFIKJDlgm0DCQ0Xk1y9CKizCaq91d5O73mX5NBD5/ulxAKBACYHEACkCbDJLtoIAMZktsVgsh2FP+qiwChUW3WYDmatT0TwbUO9K+s7yr61oEGnoGc2WwlUj7iEGZjPEct8ZSpl5R6+DaRY0Atqy3qvStUKlT0g58+BNnu9uXQYAy1yWn54Zne/mlDxmQSglwwzf1RUKkVJRJJLUSLxOs5QhTHPQxAzICXlCEtJEKqbw9SimVKIUiLSCfeR2QIDSerd1R73z/uaKCkviLNy61P6H6+FPgxGmjgTlvEyEENmRHrPaYzEdPWIu3N1Q8fVba41tezUUfeLoYJ4N+E9bl91W52TLTxwZnGM1U7jdcVI1hQhYdUmZC3QV9mvzi141KVLt/HiSUtE8nfwFk+v5LsbzEJkb6t2Jc/fv22oA4I3PgvPaHA1KSxuY3W73fLdBB289VEqtNcY/3GFQTMwv9W7LWw+1FLDC/TsbC1hbjkxGxd7xcCgSPzUy0zse/mhkOkNhTaML+0bqrzQKRKlFlzQZh6oZcOQ5MzNimBlwXAF9VpkIWDXXEwCa9txTrpQ2ayptt9W5Wr221irbEqsJdUzZ8O/bapigQQyDDiYESVJhETbXOQGgvaECACaj4kf+qd9fDv3+8uRkRJRKUcikY7Iwm6afy8Bluvxm0mdgX0j+GBi+ZOAUAwCXejGpZiqswt0rKu5e4b7N55JttwiCqEApgyBpqbAI7Q0V7Q0V34Vlr38WfP1i8KORabmnyTBqVvYmaM1doLuf64OWmwGlzPzQB7ptjTHQtJdQmvQiqa+L1Oj+zXXOx1qrNvucqGAQJCsoZRAkJ9hwg6tT0Z/0XH/9syCVcpppqpkMKieq3c9l4gJdtYu8rXcrpCBcoKv0bjIDdq3Viei6VB+T7I5kKRjYlSYHjSEIkhWUMgiig3qX5btblz3dVvOTntHXDUXqiSBEwGqFSO6bXIHlGC4zL8yAow/0SZkZmi4JDQXFDNhJJFsN3Vzn/O7WZfUuY/4pBFm8oJRBEL0QJmjuXuG+MhW9u6GCrX2SG3LFOqcKi6m1yvZAs6e10lZhNQHQq6Ho1anoBX/k/UuXNatuWmLdtXIJW37nSuiT8bDTLOxYUWeeaIbJT4r9wxAVBkwy6QNlMgV717st3719GVpiEMQYKGUQRC+JV+t2ScRolaDtKyq+u3UZF+hAQRo9Ky5v2NsE/8+58dQRUk6zcNfyxDC9T8bDSx3mv9pU27TEOn3p9tB5lDJzTQ9dp3eTMDjSDmxLs/7ptpqn1vMDWHDuAgTRBwaUIYhesnczT69f+o93Lk8XsClYK5Y6zM99rvZPqjSDKpJ8a4uvaYkVAOz1dxtoKJIner1LADAL1twHttW7La/9aZNSxwDqGATRC1plEEQv2l1V+wr3S+cnAOCBmzxPra+W1380PP1Gf/DqVBSA1jutT62vrndbiMlG47NPr6/5xomr0zFRs8JdK5csdZinY+Kxy6FLk5Gt5pvrYxeK8XsQTS7QVXqT482CLQ7mdNYX1crH1lQ93VaDA5QQJH9QyiCIXrS7qq/fVldhNf30zOjTnI75ac/oT8/yWcln3uwPvrKraZXNSeOzSx3mzXXOd66ENHfTtMR6fSb2nU7/9ZkYABByy8MEpczc8SHdrHeTMLXnaJL5+m11j7VWpvkSHUwIog+UMgiil7S91dPra26rdT7/h5F6l+XuBjdQUOqYxMY/Ozv6D7d7YXYCAFZWZBquIusYAPiQbtlF3sZxTHPGGVivd5MpcELamJiEQKmwCP9414rbajNE+KKOQRB9oJRBkEKyuc653G1+8ujQS+cn0s21c358VrC44kQAKrrS+xc+GQ/LOgYAZsDxId28g7xbhFZngkYmcy8sRm8UvAFipPB1ZuVDumUG0g2r1kYEIQwOSCt1CQFY5rL88p7Gepe+ySsQBMkMumkRpEBIPVi9y/LLexoyTJGzY0UFABBL2gFQDF7HMHqobjtB/oQ+/efcC0+e+UHWMvGpK7nXGZu6HL5yNPcGFAoD3qUp6mL5ndOpFOnCMANIUxQokLcr8Iz3CFL2oFUGQYyRaQ4m1mk9eXQoFInXu82tlfZ6l6XeZamwErYMAILVE4/oS7LXB6su0FVzPB/T7MiH/jd3mFzZpyKKTpyj0ZxMOME//t10/4GsYo5GJ2OhyznWWUAu0FUGxi5NgZPJEc3Lot5l+UVGgcuBFhsE0QdKGQQpEPIEO0AAaL3L8tqfNinHpyj6uISPSSeH6X1zP7VkfOpKfOpKYeuMTpwrbIUFxIBJJgrmaUiEv6SKXKWOyapUMOwXQfSBDiYE0YvsQ0jpb6jiH81xtpMR8aXeCbYsWD16990Hq2bNNdnLIUYZo1WdsEXvVmFuvgItHdPI2WPSGfOodGmhjkEQfaBVBkEMk9InkaRVhl/9xmfBj0amz0/MTkbiV6ei9S7LY2sqIYdwGU2u1+5ZcfXnBpuMZOMwvc/AVkFYouldqrAIL9y5XO1X0tYqqGAQxCAoZRCkoCTdTAre0Jp7UrC4iFn3tDv2+rtNE6/HZ0YMtA7JjDGTTBTMEbBpfvVU29LWSlVOZ5QsCFJg0MGEIIZJ3ycRxVcP3OR5al3SK1TvTr6jGzPMVNzyrIGtkKwYM8lM0ESyO5WCfWp9jUYePFQyCFJoUMogiDE0RtNm+Oaptho5K1qrN/kGP00qRP23obVqnaXyFr1bIZm5QFcZM8lMg1P2LMq0r3CnTK4EGYUMjsFGEIOglEEQY+h+uWYxE3KgDEMEIUiXGNi9u/VJA1shGXiJ7jWwVZjaU8Vovcvy17fWaRWnqFgQpOBgrAyCFAON/qrCanrhzuUVVkEVBBoETyUE9O7AsqTZ0Xj/zOCbxtuIcHSId+mdPJIxAUyYKqStcsgST2YFjMOwEcQIaJVBkGKg3SGx/HgfjUzzK0UQJqnbwD5cLY+MUSO9L6JijFa9BUaiZCapO8a9EDIB+9T6mtxS4SEIUhhQyiCIMYz7CTqG1FNhS2/2+hAsLmM+EUTFYXqf3hmXGKkmmXqX5SluavTcICkLCILoAKUMghSabP3RU22qaFASA7Mxw0wfrDpG7zKwISLTId5lINoX0phkfnFPQx6KBONoEMQIhFK8eRDEMOkHMWXqluhPe0Z/enaMcKXNEFtBrggg6m2BA2a+Tv6hmozr3RABgDFa9Tx9zphJZpA2SFImkRzvqbaap9YvReMKgswxaJVBkCJAIH1/RgHgqbaaepeFcqVjYDY2lGkGHD+gzxjrjBc509T4oQtQD69jAGC5y/LU+lrUMQgy9+AIJgTJhzTJfbNsQgHgO7f7/uJ/DPFfBMHjgRsGDDPjUPVv4n1fFH6jd8NFzmH6BWOjlqJgvgFq3fncrbWFaFR2AoFQ/6A/HI6EZ6Nej8vrcS+rq7LbrXOzdwRZgCx2KROLiyMj45OhmemZ2Xg8UxdiMglOh626ylNTrfHq3H/J/8Gpc/7h8UBwKvMefXWVvtqq9u0bvF4jsRHIgiRF0FB5fVqVc1ud89Za5x+40UwiCBPUa8xV9A7cVU0ndpB3DGy7OPk38QvvwJ3Gtp2glTHlw/P+mzztK4p7R4fDkZOdn3xw6lx4Npr67cb1LRvbWppX+oraBiQfwuFI/6AfAJbVVmV4/udYDOFZ1LEys5Ho+QtDkUhM11b1vqr6ZYqwzY53u4+916OrEq/Hte+x+/AyXSCMjNLrozAymrgXamuI0wnNjUY9Bcl7KlO4DABcnYr+6eufEeXKZeSaA8LG9vws+dHNpM/YtouKHrr+F/QJY9tGwTxEG6RPibP32wdvqndZgJgK0ToNTnZ+cuz4aU0Rw7NxfQu+Ji1AAoFQx/HT3WcuymvWrG7Ydc9m1ZkKhyMd73Z/8FGvvKapsW7P7m14QrOyqKVM/yX/2PgNADCbBKvVYjJlegzF4/HpmVm23Hrzigp3Igl9IBB64ccH2LLX6/Z6slxzfv94eDYCAE2NdfseN5LKAikIZ3vFs+fpx+dp/xCdntYus66VNDXA5zeZblljQNbQjMG/ifU/7Rn92dkxfo0dwvXkmv7dAQA4YOZZ8qMV5IqxzRcJ+YT6giLaF5iU+bPWqr++dSkAFEnKHHzzve4zn+VY2Otx7f1Su68OEw4tCDLY0lJfaH/yyzf9wxOplaBCzcqiljJdPX3xuGizWlpvXmG1Zk9pNRGcvPjZNQCorvI0r0xkJe84fvrY8dMA0L59w47tG7JWEgiGXv6XDv/IBAB87ZmHs0ofpLBMTdPfn6CdXeLH53Vc+Utr4JEHTOvWkNpqnZqGpvNaJvY+GYn/z69/NhkVedFTDWMeckPfjiSqYPxZ8iMc0JSOMVr1A/qMsRAZAAhQj3Jbssxl+cU9DYmceEWQMiodY7dZN25o8dVVNTf6ACAQDF3zj39w6lwgmExWZLdb9z12L6qZeaf308HDR05liDrgX2gzW/ftduvtt61pv3Nj4VtZFpi+/e1vz3cb5ofZSJTp35oqT1VlTrMTO+y2sfFgPC6KcbGuNpHT7IPOc6PjNwBg75fbzebsDzK73RqLiX2fXQWA5pW+mmqP8d+A6OT3J8Tv/mP8VBe9PqZvw+lp6OyiH3aJLifR53giJM2IlsRam0modpiPXQ4BEHnlLNjdZMpA/C8AzIDjDKxfD2edZMbA5uVNnjomCubrUEsTpylxvv761trb6hI2WiAFHhOqcjds3bJ275fb165uZHG+drvV63E3LF+6dctar8ftH55gFt9YLN732ZVNG1bl8kRCikTHu92H3vqQN8bYbdbtd6zb2LZKPlOB4BRQ2rzS13/J/5vfvi+XbN++gS8GALFYfGBwOBAIrW1tnOMfUhIs3rDfiHSFmUx5PX3kS81uy3UEgTzWYCYcyWfXSO6MjNIf7I/rssSkcn0Ufrg//uob8e9+3azHPEOAEKBpZ9J+4CbPG5/dUMX/jtClht1M41D1A/rMs4C2GQV56hgAGKZ10syRibN/a53zgZuK9TYSCIT41/TMdt9NbS3NK+te/NXvmHkmEJw69u7pL+zcXKS2IZlRnTsAaN++4fYta1k3UelxvfjS79j6Y+/1qNxP8one1NbS1XPx2PHTssmt+8zF5pV1G9tWzdHPKB0wrwxS/pztFf/yb2N56hiZ66PwV9+OvXlEp8mEECAq9ZP8+J2tvgqL4mYMg91YmhkGUzM4Q5NM/jpmnFZGQH5dSVxL37ldHjFECp5RpuP4aXk5F/+11+Pe9/i98jvVyVPn5BctZI7hz13TSt/Xnnl4x/YN8qlpWum7ffNauQCvY7weN3+iN7W17Hv8Xr7wyVPnitjukgWlDFLmvHlE/NZ/jacL7DXG1DS8+Er81df1OoAIEEGzw6t3Wb6yviZRRmIMqmfAbriRqGZk8tcxUTAHwKta+RXFtJEFDjoMBELygBdV95YBr8d9+xau2+vEbm9+8A8nDKJej3vfY/emxkTu2rmZFygMX13VvsfvVa30ety7dm5uaqyTap5AhZoKShmknHnziPjiK/EiVf7qGwbUjMo8kxQuj62pvK3WqVp5nS4V87hJx6HqefrcBbqozdEX6Krn6XN56phrdBm3ggCQW+ucymkjC2ySYZlFGO256RjG1s1r5bf/7p6LmQsjRUI2tGQYdrRr5+Z9j9+3sa2laaVvzerGPbu3Pf3k7nQDQZq4jEFhjExIYfHGyiBlz4ddRdQxjFffiC9dCnffoVdtsOgZtQz6262+R/9tYDKabHMMzH5aZzhoBqRpDR6G3yzO7Hkd4l0H4aE8Kxmj1aqEePUuC+daKgq955OZoJuk8ZK5YLdb17Q2MBETCIbCs5Hcw/iQQuH1uFiAi394PMMpaGqsk80tmenuSeaLwnGvqaBVBilPRkbp/peLq2MYL74c7x8y5FwgigBSAKh3WZ67VT2JTxjs47QynxYCwAH60K/FfHv0kuPX4p78dcw4rZwGp2rlV9ZXc64lKMa8S7ITwevJnq1Kha82aYLCN/h5QTaihMOR/N18584PyiO617Q2ZC68OEEpg5QnP9gf1zvi2hhT0/DDXxrVTCljdx+4yfNYa6WqawyAdxLyfQ97B+76tvjNRRI6M0arvic+Z3heApkA9aSEyJDHWquKN2qpIPDzMWWdSgUpBoV18/V+mjTR6fI2Lh5QyiBlyO9P6MuAlyf9Q9RI0AwjJRD4K+urW702VakxWj0L+boJWOjMh3RLnvUscDrEu56nz12B5XnWMwvWlAgbUu+yPMcS+3Ir89xRweEtMXZ79uSfSMFhbj62zGcvNIZcg9fj5k1uiAxKGaQMefX1uXAt8Rw6Gp8yPEhKqWYqrKbv37W8wqJIbiaCMEzrYnkHt82A4yW691fi3rI0z0xTx8/FJw7CQ4YnJZCJgnmYqoMY6l2Wn9+jMu8XS8fI4aIs3kXXtgOXkiHDGFcxL4TDEb8/p6xO0WiM/ZehjGzgCc9GAoF8hVFZgmG/SLnx+xPi3LiWeKam4dAR8ZEHjb4bEAFocu6Cepfl+3cu/4v/McgXiYH5Kl1WT66ZQd8EqKl0wpY+umoXvP150plnVQuHDvGut+C+/EUMSEOWUoXj3271FTtERsZXWwWQcEycOz+0qa0l9239I4lO1FdXhTG/c0YgEOrq6fOPTITDEf/wuDyIqUlruvJ4XBwbuzE6fkMUEwZdQRCWVDhrl3qtVvWF5/NV9V4YAoBwOPLCjw+wSGFfXdWa1Q04Fzpj8UoZqy3xSIrHdbgGYnERlAmCvV43DA4DQO4jBWTzr8OOT5nCo9ck075NWNdKQJIjI2MGPVOHjsaNSxlQq5nb6pzPfa7uH/44zBcpoJoZh6qX6N5j9M4/J/tLPSnwBbrqML2vDwoz5jydjnlqfY00Wl6GFk/NrG1teOvoKbbc3dOXu5Tp6umT42N8dfkGjCM5crLzk7eOfqT5VWp0SyAQuuofl0UMQxTFQDAUCIZql3prlyoitLZuXvtBZzLh4cDgMPv7walzWzevxZzOsJjnYDKbTMPXJyil4dlIVWWFOeO02IzRseBEIAQALpdDnrbJPzzBLqx4LL6qJbt7PhyO/ObQCSbYd7Z/zo5qpqCc7RV/ezRXLVJbQ/7bty13bxOaG0lzI1ndQnbvFGpryMAgTOmfvygahXVrhNqaPPo2ZTrgthoHofDRiMJxJYIwBS4XmTY2Q5OKSVjyDtw1RquWw9VSnLNpmjpepV8+CHvySRvDk0HHSDkMeVLOtTqhs3HsduvAJT8TJYHglN1uaVi+NOtWgUBIfrwAwN4vteMTZg7oeLf76LGu1PV2m3Xn3Z9b9ydN/MpAIHT56miGiZynpsMA4HIl02Oazaabb6rv++xqqqvx8tVRnJgJFvnM2AOX/GwmSACocGexS8fj4vTMLFtuXumrrkoklQ8EQy/86ABb9npcWT3TsuHRV1f19JO7DTce0WT/y/FDR3Pt43/6vKW2WmP9yCi8+nq8433dWmH3PcITe/OewI8qrErfOnntzf6gqogZYgWxzfBsgc5d5O1SsdBMU8cxetc7cGdBPEqMdDrmsdaq526tTSmupVoKOp3kwCW/PFMPAOzZfUfmyXcCgdCLL70tm2Q2trXs2b2tgO1BNAkEQi/8+ID80W6z2h1Wr8fd3Fi3sa1F1SNEIrG+z67K9hiTIFRWugVBEEXxxo3pCBcx09zkczkVyb4DwVD/peHuMxcDwVB4JsLLmn2P3avpxlo8LGopE4/HP+m9NBvR1x/U1VaqXo+OHT/Nz7iRC2y2FIzIKzjffD7XuZbatwnPPpFJdhgQNLU15Kffy99pS1XZ8/7y3csdl9WxfsVQM1AKgmaMVh2jd3bClgKKGEivY9pXuL9/54qU4mmsL4WeGfvwkVMfcHPu7Ph3be13btQs2X/J/5tDJ2Qdg0+YOaOrp+83hxKTWm9sa9m1c3OGSIPLV0bl4UgOu7W5yScIyWtmZCQwMhpgy3a7ddVN9Rn2y/c7KFsXr4MJAARBqKleYrHfwFqBAAAgAElEQVSYY9F4NJYlwMJsElwux/Jl1b46tSm7aaVvzeqG0FQ4FJqJxbPU4/W6t25eu+f+bW5XIR/ECOOH+3MNlHlyrymzM8jlhM9/Tp+/aWoadu80WfMd/apu1R3LXO9fnRoLK35aYT1NMldg+Ttw12W6fAlMLjRBc4GueonuPQh7LkFTDAo5xjidjmmttH//rhU2U9p5QNUUzsHEaFi+tO/ildBUmH0cGBzu7ukLBKfMZhMBCIcj4XDk3KeDbx05dey9HtmvZLdZ/9dH/6ea6gWd/KZs+ODUOf/wBFve+6X2zA/2wcsjbMFqMbfctIzXMQDgctmnpsJsNFMsFne57FZL2lejppW+7p6LzDYTDke3blHP6LSoWLxhvwyTyVS3tLJuab7BccvqqvZ+aUdBmoQYpn+wkJ06o32bsGWT8M3nYwO5pfQdGaPNzrz7M2UIcIXV9PN7Gv/i6OD5wCxfikUB15FhGxQ4o+sZWH+Grq+i4+vhzA7y7vxqmjFa9SHdUlhfEs8sWDUHurdW2n9+T6NqxvI5xm637nv8vhd/9bZ/JNFZBoJTH5w690H66ZHtNuu+x+9NfeNC5oDMZrApSZICQHX1EpWOYdQu9fZLY+nD4YjKx5SyO1f+SWvKg8UuZZBywnhml4y4nPDdr5u/8o1oLtNrDwzS5oZCvJoTApzzN4OauUaXLSXXXVD4Hz8OVe/AXe/Qu5bTK58np1ZB3wpypeB7SccFuuoCXdUHLYUamqTJJHWPQXXqnJ0LQccw7Hbr039+f45e7KaVvj2770C/0sKEHy2bLhzbwo3E1jW6dpGDUgYpH66PFqtmlxPuvkPIJaC4cHKKABDZMAOSmvnLd6+kjmkapnVeCFSRiULtW8UVWH6ALgeAKjq+CvpuJheXw5ViyJoxWtUHqy7QljOwvkg2GJ5xWpkyLwEAwG11zu/fuUKnjiluzt8d2zdsbGvpOH669/yQZsa8ppW+9u0bcpybEJl3opFYytReAChfjIJSBsLhyLXhcTagOgN2m8VXV5UhH9HsbDQQDGW9EJ0Om8Nps+UdT4HMMTnaWqamCxdHr3QzgaRmNMc0BcAbp6ZqMl7Y0BkV41DVCVs66RYAcNCZ5XBlOVy5mVx0wMxyuKJ3OPc0dYxD1RVYfpnWj0NVH6yaA/nCEEEYoUtT54kEgAeaPX+7dVma7eZzjgKvx71n9zbYDQODw9f84+HZCMtl5fW6165uwFR4Cx+7I3mOJoIhOaEzDz/pBCYey53FLmV6Px08+GYyDUNWvB7XvsfuU12Csbh48bMrk6Fcn+Mmk1C31Fu/LDVNBVLyuPIPlOFRupkY39m6bLnL8tOzahvUJFTMUEcxhjVpMgOOPljVB6veoXexNQ46UwXjDphh/wEAH2QjT5UwDlXjUDUDjjkTLirSBcdA2vwxjAxnlmT5vqA0Ndah9WXhwIvIgUv+DIOirRaz3WZlRrWpqXAgoFYzkUhs5HogWXNGKRMIhORwY01VtKhY1FImEAi9/K/H9G0SnHrxpbef/vP7+ctXl44BgHhcvOofN5lMdbWYi7OQOF1FrPzs+ZysHS4to3EeqN1MjK+01QBAqpqJgXmQNhTV2ZSBGXCoJ3FceKkegtQzAd7U4BgA+Otb6/6sVfOWzCZSFtyEksjcsXZ1gxyFffDQids3r7XbrV6Pe1ldVaoWqalecvlq4ra9fHU0Eo15PW6r1RyPixOB0Mj1gJxyptLrtmgNX7o2PO4fHg+HIx+cSub/RWm7qKXMwUMn2MLGtpa1qxszxPyHw5FAMHT4yKlAMBQITnX1XNy6OTHybXJymukYm9VSv6za4bCZ0icOjkSigeDk8EgAAK76x1DKFBbNfHcFYWSUns0tXU1e2X410TLMAMBX2mpWV9r+4Y8jV6fUNsUAeKPUWk3G5sY8UyrEwDxCl4ZBY0hIhUX4/l0rUuYlyBl2foosaCYnp6dnZqdnZmdmZuPxOADE4qLZJJhMJpNJcDjsS9wOd4XTbJr/UOVFRdNKX1NjHQtRCASn+OkLNq5v2XWvIs2M1+ueCIRYPl8AGLke4M0wMlaLWTV3AQCc7Pzk2PHTqT4Er8eta4qusmTxSplwOMIuvqaVvuzJhTwuX12lr66SJfYdGPTLUkYeC9e00pc1ZbDNaq5wO2ZnYyyqZnpm1umw5flDEJnaGgGgKHNi738lnuMUlU0FGb6kQNswAwDtDRWtVfa/ODqYqmamwDlLrVUw4SY4VhMgozGm3mX5+T2NynkidSF5l4ozI9Pk5PREcGpsPKgZhxePiwAxAJgMzYxcnwCACrejuspTU72k8E1B0rDn/m0v/up3qeOiu89cHBj0q6z4jQ21/QP+DLOdWy3m5iafyiRz+HedH3zUm1rYbrPu/dIOHLO2ePW7fCXlPuOa1+NmV4zfn7Tey8mCcxcllZ6EI2RmejZzSUQXLqcOJZHjUKOzveI3n491duVqkim0gwkAMiVeq3dZXtnV9JiWWyQG5hFYqpn5bVERBfNVumwMqjR1zAPNnlf+tLkAOgYKr2MmJ6fPXxg633d55PpE7gNbJkMzA4P+no/7r14r2og+RAnLrbxRyzQSCE6d7FQkATKZhFUt9bU1GkPnAGBJhTNVx3T19GnqmKaVPswhxFi8zzg2MSQog7YMEJfS+5rQrrsAWNdKcsxl1z9It2zK1PlMTdNXXhd/m/OMTgBwS2uRfAxpDTMAUGE1PXdr3TKX9Wdnrk9G1a2dAfsgbaiEgIcEizq4aQEighCkniAs0RQxFRbhqbalaYJjeDLm9i2OJSYWFwcuXZNnIVBhs1qs3BDIeDweiURjSq0TiUSv+sdHxycbVyzFV/Y5gI0v27VzMwvF7b/kl+ey/uDUudTJsWtrvZWV7qmpcHg2wnSq3WZdssSpGR/Te35IXt66ZW1To8/rcXu9Lhy2JrN4pQxSlmz5HDl0NKeSh47G2/8dqa3W6IimpumbR8RDR8VccuLxrCuWlEkbMSPz2JrK9ga3prMJACbAO0ndlTBRsWj8Tely3zFaK+3fv3N5DsaYbHMUFOGET8+E+z67GlHODWc2CbW1lRVup9Nh03xrmp6ZnZkJj45NToaSV20kEu377Gq9rwrHS84NdpuVReA2NdYFgqHunougHF/NY7GYcxx5JPsQvB73F+7ZXKDGlhUoZZCyYl2r4HTGc5EgU9PwvR/Ev/GsSaVmzvaKP9ifa2QMT20Nad9WPMtcJsMMo95l+e2DLT/rGU0d2QQAMTBfh6UBWuktd0EzQ+0TUKkZ3svIOOJaJqNIkV1+hQ74HR0LqnJcVbid9cuqs8bhOR02p8NWXeWJRKJXr42Njt+Qv7rqH49EYot85uS5JyAb/vNODyNbX+RkQnlWWH6glEHKjd33CK+9kZMnpX+IfvP52LpWcvcdJgAYGaW/f1/McWLtVIrmXZLJImUYX2mrub9lyV8cHdI0z0TLWtBkFTG31Tmf+1xta2WmeW2yU+g5I2UmAiFex5hNQsOK2uoqfQG8VqulaaWvfll1/yW/nCSCKRtUM3NG/yW/fCrzj2Xx+ap6LwwBQDgcOdmp4a5CUMog5cb9O025+4auj0LHKO04UYBBy488mHYQfmEgAJR1olkETb3L+tsHW17qnfj/zo8vEkEzSd2TUDEL9nSHpsIiPNVW82etOXYqGcUK5VRl4VTNbCQ6MOiXPzodtlU31VuNpgW3Wi2tNzdc9Y9dvZYwMI6O3zCZhIYVtQVoK5IN5lpibFqf70jprZvXHpNm4NKMvEEwUhUpN1xO2H3PXF/YjzxoKl5WGwmSspCJx9ZU/vyexvtv8qQrwATNEG0Yp5UlOspJBGGCVl6iK6/D0nB6HfNYa9VvH1pVGB3DKEIimfMXhuRhSk6HrfXmBsM6RqbeV12/LHldDl8P8JE0SPHwDyfyXHs9bs2RTTKBQKj/kl+eDVsTu916u5T+gyU5K1Q7y4aSfH4hSGYefdDU2UVzHMqUP7U1ZK7EE+9jyu5vqndZvnP7sm9vqQuHw7GYbHlS9cOJSmgsRCM3aEx71MxCg5gdxFZNTHIEiWyvUiR4MZvNNlumrJWqWnUUKKiOGR0LynG+Nqtl1U31hRoRWe+rjsfiw1Ietv5Lw223NBekZiQDciK7DIEygUDo4KETsh/K63G1b9+wsU17Hvj8A27KG7TKIOXJs0+anMVI8aK5rydMRUknkwrRWMqKIAhOp9PlchIi5z/R2JyY3YKz3uRuEux1xDw/syNlhZgdgr3GVNEiOFdwOgYAqNLxA2az2eVyOp3OnHWMrnYUuL6r/mSceevNK/K3x/A0rKiVo4YjkagcjooUD6+UPMw/PD6gZXHx+8d/8ss3+dCoQHDq4KH3T576JLVwIBDq7uljy2xWhMK3uMRBKYOUJ80N5NEH5uLyfuRBU/EDfmVIykdtXZKKyWSuqKiw2+1ms9y1y90/V4lgIdYlgnOFpGlchMzzU4IQgViXCI66hIKxVkKiSZo/n3AiRpfVOQeTjI7jrQPeJFNTtaSwOoahdDPNw/xci401qxvl5Rdf+t3BN0/wCjIQCL386w7NaYzfOvIRL33C4UjHu90/+eWbcpKhNasbitbqEmbxOpgqpQH9GRJIp4O39cnvfPG4mKNNWE5mZTKjlCwiu3eaQjPw2utFzAv3yIOmR+ZEMHHkNI4pHVar1Wq1sKRq0WiUqyqlTsFCrBZiXQIAND4D8TCNzUB8htK5yLNHiAAmBzE7wGRXWl+AOwKq/HTEbDZJ7qTc5UaOJUkOBQ1qHH4y2trizMtW4XZWuB1sR5OhmdwfVogxtm5Z293T5x9JqMbuMxd7Lwzdftua9js3AkDH8dOyNPF63Dvu3NDbO8jGKAHA4aOn9j1+n91m7f108PCRU3ymRK/HjTG/mixeKSMPzff7x3PcJBAIsXgrXsrYrIljOD0TrnDn5GaYnknMV1CM1y+E59EHTADFUjPzoWPSoUvfEJPJ7HCYbTbr7OxsLBan6uR76tqIyQEmB7FWAgCNzwKN0vgsxGeBxmi8MJNvEMEMgg0ECzHZwOwkJMOjiSqXCSGC1Wq1WCyCoHcGgZx1TDGRQ3FtVkvxJmXzetyyZpoMTaOTotjs/XI7PzFTOBw59l5P95mLAMDrmH2P3+v1uDetb/nJL95k0sc/PPHCD39tt1tV6Z69HjdOt5SORSxl7FY2nenA4PDBN09kDjIHgEAwJM/kzg+u83rdLKSu/9Jwva9aVjaaxOPiZGh6bPwGFPmxhcg8+oDJ7YD9rxRYzcybjkkrWnIap80jCCaHwwlAI5FoLBaNxWK59NnEZAOwEXPyeUppDMQoiFEqRgEAaAzEOKSbJEFg8l0gghmICQQLCJb0wiXdj0qsN5stZrPZYjFzYUAFJxd7DMPILAbxeFz2LjmK+UCoqEi+aM1quTaQwuL1uL/2zMNdPRePHT8tCxqVOtm6Za0sTXbt3PziS79jy+HZqMr91L59w+1b1mJyvHSQlBeyRcTAJb986eQOu0D5NecvDPEm4hxpXunTm/wKMczIKHzr+djIWAGu9toa8uwTcxkfk0IWF4/B3yiK8VgsHo1GpWnF+KFS+VZuFG0pYzabTSaz1WohJJ/QlRzy+eY06DqvSbFnI9EzH/ezZdXY6cIyZztCVASCoZOd5+Q3YZn27Rt2KL1F3T19Bw+9ryrWtNK3Z/cdaIzJzKKWMgDQe37w8NGPch+mr3lVxePxocvX+UzhmTGbhGXLquuWFsUpjmTglTfi+TibXE6ye6ew+x5hjsYrpSN7tIrhm5oCgCiKMYk0OobvvPN8gMhV8WpAU0WB2Wwym80WS54KRqPmlC85HZOpbF4ihsErjIblS+uKEysDAPF4vEvK24ZSZu4JBEMsRCYcjvjqqja1tbDZmlKLnTx1zj88EQiGmhp96YohKha7lGEMDA5f849njv+126zNK32+urQPmkgkOhmanp3NkjfW6bRVuJ0YczdfjIzCq6/HPz5PdVlomIhp3yYUPw9eLtDMU0sqShqrn/1DaTwej8Xi8XhMngE+Tc9t+DGSpTaTyWQymcxms8lkIskZA4pjiYGUSQmyW2UKYJxjOXkr3M7mlXVFjZ+76h8bGZlwOOzF3hGCzDEoZZBFSmeX+OEfaWZN43KSLZtgXauwZdN8W2IUUAAovppRGF0opcxaE4+LlIpyXtqCupwIAAgCEQST2WwymUyCIHBBMHlm2M1hQ906Jp/2IAhSMFDKIIudkVEYGROvj8LIaOJeqK0hLic0NRLVpNkLBumezenmLcgNLvfqCmXDzDbyMvubY42EEEKIIJgEgS0I8nJq2bzbX8AR13rrRBCk6KCUQZCSg8p/clYqiky4BWuD5heUBdzQ1DKCkPCraukVnsKqhGLomNyrRRCk6KCUQZBShOqUMgYKG6hKUy2RFKNO6oJcsoDozC6D9hgEKVlQyiBIKUKV/+q9i8v7rtcrNXLM5Jt9RBOCIPPC4k2RhyBlROow5lzKl6WgKXiqX0aeQccIghQRlDIIUsqo077om8FA3qz0KYYlBkGQ0gCzmyBImaG/Uzey1UJAbrmuxhtIr1ecGbERBCkQKGUQpFyQe1vdyXBLVM3oz7Qrj5zCIF8EKSPQwYQgZUdi5LWB0dd6Y27mmHwmCpjLrRAEmVPQKoMgZUfSyGLYLbLQ/CkkD9MRMRoZs6COAIIgacHB2AhSiuR82ypy4xUw8+8cULgkv6rg6JwqRh2DICUDWmUQpKzhe2SSj22Dr7FIsTV8GG/eE18TKfEdUX+TrQ0oYhCkxECrDIKULjpv3uQckXN81/OWEMPBLrljeKA1ihgEKUkw7BdBShT9ciSZR2aOw3tJmuWi7kjvhvhShyClClplEKTU4RPq67mdFduV7HOAEEOZeFPTA6JJBkFKFbTKIEipU5A+mEhCiJaOhSKfjL38fJYoYhCktMGwXwQpG/IQIEn5Ynjo8lxBiHYj9f16krKAIEipglIGQcoG/aNv0g3woSSpGBLrSfLvXMONbNJsgMFRRyhiEKRMwFgZBCk/8oue0YwJTq6cqycGUy38T5Ex7hRCjxKClCEoZRCkLMn7vk4XEUv5JaIoQ6kUc0MBZC1CgZDkX7k6uXy62lL3mJd8Mb49giALHJQyCFLG8MGtRivIMSTFgE6g6ZuWutN8dUxqpQiClAkoZRBkMUBTOvUMOiK3+uSa8ocWynSS+otQviBI+bNApUwgEJoIhlQrKz1ur9dd1P32X/IDQPNKX+Zi14bHw+HIMl+V3WYtanvygR3DOThoxaN/kE5Pq1curYHamlz7pzePiKe6xK8+aaqtzrTJ1DQdGASnE5oby77nowXQMcWgYBEsc5lWOFfYg4XHbrdWetx2e+EfIF09fd09FwcGhwHgCztvW3tz4+Gjpyo97i/s3Axl8VgoKuFw5NrweCAYCocjXq97WW3VHByok52f9H46tGvnZl9dVbH3Va4s0LwyXWcuHjt+OnW91+NqavS1b99QpMvrn1/6HQD87f/1v2Uu9taRUwODw/sev6+psa4YzSgIHe+d7u65+NDubZtK9pm1/5X4x+c1utulNfDIA6a7t2UZfzcySl98JQ4Ar74ef/aJTJd6/yD91n+Nt28jmYuVBXOc5zdnCqA69E22NJewB0sqTY11e3ZvK+DTrKun7zeH3gcAr9cdnoksq6s+eepc76dDALBxQ4uvtoo9Wnds39C+fUOhdlo2dLzb/cGpc+HZKL9y4/qW4vU4jLeOfgQAh49+tO+xe4u3l/JmQT+4vR53k2QgCYcj4dnIwCV/95mLvReG9uy+Y83qxvltHjI3rGslS2uSH0dG4ePz9If74wND9IlHTRk2rK0hu3cKnX+kn9+ESQdUkAKE0SwsFpBwScfGtlXycjgc8Q+PDwwOv/DjA3u/tKNQT7PunosAsGvn5ts3r2Vr7FbLwOCw3W711eIbfyYO/67zg4967Tbr7VvWepe4AcA/Mj5wabj7zMWBQf/Tf36/Xhv8f/zP/y+kvBh39Vz8zaETG9ta9uzeJq+8ffPa3gtDa1c3FOJ3LFIWtJRpWlm3Z/cd/JpAMNRx/HR3z8WX//XYvsfubcrmCULKgPZtQrvSANM/RL/5fOzQEfHzm4RbWjP1YU88anri0SK3r1RJtWGUkKZRtbYEdAwAqJ5mAHDs+OmO46cPHnr/a8/4CuKtDgSnAKBpZdJa7PNVPf3k7vxrLm+6evo++KjX63Hve/xerydpgAkEQy//S4d/ZOJk57ni2bF27dy8a+fmIlW+SCixt1Wvx71n9zZ2SR08dEKzTDgcCYcjmesJhyOBgDoWJ5VAIJS1qhz3mHttuTQsXW05blvqNDeQu+8QAKB/ULv3HRmlI6NZOuaRUTo1nVPnnbUqxtR09p3mUmbOkRPMKXPiLVD4LL0l0eBM7Ni+oamxLhyOnDs/lPqt5mMql2eXMVWU41OxLOk9PwQA7ds38DoGALweNxMZzNyVyhwcsVw6jtw7l1yKlSIL2iqTjh3bN/Rf8g8MDvd+OigbZsPhyMnOT7rPXGTvJXabZc3qRpWPM5cyDN5p6vW42rdv4I3DMv2X/G8dOeUfmWDF1q5u3HHnBtVzJBAInTx1rrunT65t4/qW9js3plZ17Php//A4K+arq9y4vmXrlj+RC7z4q7cDwdDXnvmi3DbZSsm2ZYF+ALBxfcuue8tc4y+tIQAga5H9L8c7u+i+vaapabr/lfj0NNTWkJ9+z/z3P4wNDMI3njU1NyQ6vKlp+uYR8dBRkQUUNzeQbzyr7aXqH6L7X04G67RvI488aPrwj/S3R8R9e02f35TsQd88Iv72iDgyRgHA6YTPbyKPPKgONP79CbHjhCjXtq6VZA1Gnj/4qRZT7R9UWaBIe4eU8VapBcoBX13VwOBwIBgCgP5L/t8cOrGmtXHrbWsPHjrB7uivPfMw61/5eF5IibNhzwf2ZHvxV2+zlV975ouBYOjFX73dtNLHezRU8DVneCqWMeHZCABoRmE3rfR97ZkvqlaqHrlNjXWb2lrkPoKdC7b8wo9+zSrZuL7lN4dOMCXRe37whUt+ANi1c/Oa1Y2Hj3SysF/WnbFNvvbMF092fnLs+Gm5R9i6ea2qG2I9mtxV+eoq936xfSIYYlfRrnsSvUCOfVBJU5JSBgDWrG4cGBw+9+kQO/eBQOjFl94OBKfsNitb4x8eZ1E1Tz+xO3m3v/S2f3jCbrNubFvFfNWaftCOd7uPvdfjq6vyetz+4fFAMHTw0Pszs5Gtm/+Eb0MgEDp46ATbI4vjOXnq3LlPB/naVA0Lz0b8/vFj7/V0n7nIF2N7BABfXZWvrioQDA1c8r81/JF/eGLP/YkHUCA4FQhOsZJer9vnq3bYrQDQ++ngy/96DAC8Xjd75HWfuRgIhsr7STQwKAIkhzJNTdORMdpxIt7ZRV1O0twAtTVsPYyMJYdBjYzSbz4fuz4GLifZsgmmpmFgCP7q27F9KTE3H3aJ3/thHABcTtLUAADQcYIODMa3bCIjY3R6Ojk65ge/jHe8LwJAcwNxOuH6KHScoJ1dse983Szrp1dej7/2hghS3M/IKJw9T//q24oyC4/U4dE0ZSHHGnQh75Q/MmWbpZd1n6wrBYBAcMrvH2cPDX48C4vkAAD5ucTibPbsvoN1b3a71UsqwuFoeDZit9v4Xpk9OtI1gH/4sJrZk3PvF3csHg8+E5RdPX1rtAJWvB4X//Fk5ycsUJcdMfbwHxgcngiEmD5g54Idc6+3AgAcdqvdZvV6K8IzEf/IOABh6+02GwCEZ6OB4NRMOBFuzDZUdUP+4QlVN6TZufxk/6Ev3HNbIDglW1/4YnLHd+y9nkBwSu5cyoBSlTJs6NDApYQoZqeqqbFu75fbZX1w+MipD06d63jvNHsd6erp8w9PeD3up/98t1zm4Jsnus9cVPlBu898Jr8JgeTPPna8RyVlDh46sXXL2h3bE2YY2at67N3TX5Acn6xhmsUOvnli75faAeCaf5w9Svbs3raxrYVtGAiGfvKLQ91nLm5qa+EfKB+c6uVHTgUCocNHTgFA+/YNO6SfEAiGXvzV7/zD4wU40AuSV16Pd7xPa2vILWsUHtLOLrp7p/DIAyaXU3vDV1+PXx+DW1rJ33zVzMpMTcP+l+P7X4nzxUZG6f6X4wDwyIOmRx4QpJXwredjr74hprREbG4g33jWXFstrXwj/trr4t//MPb9/2hxOWFklL72hlhbQ77zdXWZF1+Of+frC/keTDcmSDN9iyrVDE1Z1txWLqAqmSpcylDHAIDfPw4AvF9jYHC4qbGOf9WRIzn2fmmHrG9Odp576+ipg4feb2r0eb1u9jB54UcHwrORvV/aoXKUpKOrp+/Yez2qGBFW88u/Pva1Zx5eyPkmCsjWLWu7ey72fjr04q/e3rF9Q4Z8HIFA6K2jH9lt1r1fbpefwwOX/C//67Fj7/U0r/Q1rfSxc8HCfvlBSfseu5eF/a5pbchgJGN0n/ns6Sd3y6ebdWd8N3T4yKlAcGrN6oY9929jpykcjhw+cuqtI6f4ejqOnw4Ep1I7iNTOpaQpsVgZmUqvG7hXmX2P3/fQ7m28jgGArVvWAid3/MMTAHD7lrV8mV07N+97/D5Wkl/JPwiYCgmHmZpO4vW4v3DPZrk2r8fNGnDy1DnWsK6ePvZqpSq27/H77DZr76dDA5f8ALDMV7Xv8ft4HcOKsY/XRiZUbeNHgJ88dS4QnNrY1rKDk2Jej3vP7jtUQwpLl9+fEH+wPyb/99TXY789Ste1KpQBo32b8MSjaXVM/6DIBNCzT5rlMi4nPLFXbZL5/Qnx+hi0bxNkHQMAtTXw1ScV98vUNHScEGtrFDoGAB59wHRLK7k+Cp1dIgD0D1EAaGoAVZm/+arpG19dyDomHXxgTeqC5ozTqriW1DCXsoqAyZ1AINR7YQgA+LT4nIUAAA5FSURBVNEr8pNEXsMyU+y5fxtvp2EvSADQ8Z5G3oocYTWrYl23blm7sa0lHI50pQkQKT+8Hve+x+71etwDg8P//NLv/st/e/nlf+3o7ulLDYXpOH4aUp7DTSt97PW1QyuHiDHat2/gT3e71A0x19U1/3jvhSGvxy3rGACw2627dm5W3TvsnXZNq+IC2/f4vfsev69sdAyUrpRJWGUlG5rX497U1qJ+gVC+N7J7tff8IH912u3WpsY61YapNkZ21YbDCnFwu1IAsV2wK4YF8bFIsa2b1cXsdiuTKf2cq5XXMTyqKC2fr5L/yMTQppQ4nqaVvhxfyxY+H5+nHSeS/42MJcJ1r6fEz2Z21nR2UQC4pZWoBJDLCSyImN8jAKTmrVnXKjRxuzh7XmQ2HlWFAIkKz54XARIK5uPzlAXTyGzZJKRTXaXDohAchSIQCMn/XRse73i3+ye/fBMAtm5Zy9+tPl8l/0Tqv+Rnb0SpWazYs4WljTEAq3lNa0Pqs2LT+hYAGBhUZ/YrY3y+qq898/BDu7c1rfSFZ6O9nw4dPPT+Cz8+cPDNE3yX0X3movwA52Fi1K9888wHXnwAgN1u9dVVguR+Ygp4TWuDqvNKbVsi6uD0RdXKhZwUzQCl+FIIAMCUqSpKKxyO9A/6A4GQf3iC+S/5bze1tXxw6tzA4PCLL73d1OhrXlnHDLO57M7u0LCyLtPKzOirrQK46B8ZB2hh15xKfCSK1VXJv0Lm2vA484kyCxAzI6lborxw2Z2jeVE2razr7imH8QhPPGra8rlklzkySjveox3vi2efj33362Z+MHZmZcCGDmnmmFFpIMmOotFPNzfAgNRxDAxSVu2rr8dVxdi+ro8CADQ3Cre0ih+fp099PbZlE7mlVVjXShZBWmFEzQs/PpC6UmVShZR7PHV8dbKk3er1uAPBUCAYMvDqwp4w4ZlIqi2BvUH5/QXrmEuFTW0tm9pawrORgUvD5z4d7O65yOIp9z12n9frvuYfBwC7zappfWFWk/BspCBeucyVsL6juVHDrKJKGbx1y9reC0MsjnPN6samlXXNjb5ipJmeX0pVykwEQsCdMxaBK8eTA4DdZvX5qnk1Y7db9z1+L0tL033mYveZi5BxdFJWVLFg8l5AaUrRzEzFtpVj8fhI9UQBr9tXV1XG8S6543ICP9Kntpqsa4XmRtj/ivhP+2M/+55Fb22p8Cn4AICFCedoMvn4PNVMSczzN18173853tlNO7toZ1ec7fHuO0yPPFiqZlHEAKrnjN1uWbu6MevLceK1LU3H5vW4AsGQ7GrXBdtqYHCYf3IiAGC3WdesblizuqF9+4bDvzvVe2Ho4KET+x6/jx2xQDCkmYyeEQ4XRspkJjyTdsiVqmNqWunb+8UdHe/1+IfHPzh17oNT56AIaabnnVKVMsx3wwxuIEXX+uqqNq5vaV7ps9ut7HSywCsZlpZm187NA5eG+wf9A5eG/cPjmqOTciEQnEp9E2IiRjl8QOOFSSpmAYCunj4WD3/7lrXNjT5fXZXdbmHCP0cpo/kewK71cmX3TtOhI3RklI6MUV1DmkdGaWpWvakZxUenE6anYWpaQ82oSgLAIw+Y2v9dlga4nPDskyYAOHteHBiED7vEj8/TV9+IT81kSViMlBOpKfJygT090omVxJPEUN/Jtrp9y1oDT79FAgtGeeFHB9iAeXbEMo9s13zFLTjMUTARCKVK4dTMMWtaG9e0NgaCIf/wxLlPBwcuDQ8MDv9k/yF+eG+pU5JSJhAIMSfu2tWNIHl8vR63KqllulxAsuIGaXTSB529Bm7ma8PjqZdRIpK3tgqkFyY2bEpdbHAYZC9mSq7x3GHmZb9/PDWAK5AyH2eZsbQGRsbg+iikhqpo0tQowPvx/kHanvIU+rhXYVZpbiAfn6cDQxqih0/KxyTU1DStrc7VuLKuVVjXCrt3Cv1D9K++HTt0RMww3gpBAKDS4wJpoJOKcDgiJbUy0iEtq6tkNc9N77tgCYcjJ0+dAwDNfL52u9VutzIpyYab+Ifn/4jxkQyqr9LFTnk9bq/HzTq+l/+lo/fC0MmPzsm5Z0qd0rNvh8ORl3/dwYbtMCWRzpd87tNB/mP/JX/Hu92qMixCyph5tvf8oGqNPB6BNYZluDnZ+YnGtp8OgiTFGKntH0iZTTcVdl2mDjS45h8vYADaAmRklGaIaNGkuREAoON9cSpltu0PuxRDrLdsEgAgNQKGjWxKFvuckK7Cs+dpZ5fIwpP7///27iemjTuLA/ibmLVH2Csch7Unh2BnIxWsRCGVghcaWYoriITkbrrarrJRT0krVZXaK3vjkB62olrlkCjZC+EUlR4SEmGpaYNqawnOHyoZu2gxLghiH2qTf4NkTwewPXv4mbEZQ9aQpjD0+zmi0cxgw2/e/H6/915SGb5bZHdbvpkDXCkS+nmnFf+FnUVw2HiTcT6ZqR4QIrEZqtofutkzpxdeVOfppNPP183f2a1Co9HQaHTdIVcUs+y10NpgYWkisqzdiMkO+zU/Mfa8mIjNaq6ovuczsrw8lUiyQK1SS3MTbfy2r0d6CmVYZcOr/cNsnkONoAX7XiKKJ1KVX6ooapczQ6PR0L2YJpqJRGeoap9UjeaTmcqzsRiLiI4dPcRekt48eohl92kuOjR8T1zMtTSXlsnZFJ9mh3nwPxO1LGB3eNy8yTjxw+z98XLAJIrZwRvBLfxGejEZL35+OS9JdKSZq31K40jznsPNXE4iTRWZ/i8LlQEKEb19Yo99Hzc5rfT25dmEzcJTZfB24dpgwVy/Zpexv2tPTqLevnxldtLCU+VSf/7zywWWM/UwUhwYLGgCo+/GigvPFHsjt1ML/sJOwfNGliw5FFiTSsMKzhLRll+s2ZlLL4drB88vbwSHAuHfyB4aNetH8wkT0dzj9MD1b2j1pZdWZ240R7KCLkOBcGViPFuN0gQ9bI4tnkht7f1Ztd9ha29zy/LywPVvJmIzrHnO6t2uGVJuDYfv3B2v3Ksgy8sPxv9LG+wa1qkdvcCkVnemUmfs0q5Yl1P4i/8tdU51v2BzNTnU1CSr1SKK2Xgi6XIKlTUufd7Wgevfhu7F5pMZFruwipm8ybi1Nex3/W/dCoQnfph1NQlEFE8k5aWVyhiL541n/3qSXbT6sO7O4+ywjuPuidjs/fGpnzLPK2/M5RT+78SMtcFy0tt6Z2T8zt3v49OpUsJ5IsnzpmNHD23UN0Rf+gcLX90uz5pkfy5V77U3cp98sLk/4E/P1/X25YNjxcnp4pFmjogeRhRJok/OGy5fK4ca5nq60FPX25efnFYmv8irPz9z2rDwpBgMl0945s+GybjC2lsePMCZ62nhKc2lFEkqd8F8p8sQGlMeRZSP/rHyp2McEc2lSvne/i49vUvAdvF5W9Pp5/EfU1f7h11OgTcZxcUsizOq2wZt9szx6WQ68+LilZstb5Qye9kYJThsG1WI2H26O9vmH2fExezFKzcFx15rg4U3GdU0UsFhU9s9upyCz9saHI1evHLT1eRQh1zN4E9E7R53aDQ6cP1bV5NDEGws4mTVe8XF7MXLN6xWS3dn25aLu7BbejA+NRQIE5VGJcFha29z31ptUMjzRvaAuNofaHnjgOCwsYcju9t10+J0akeHMvLSihq+WK0Wq/X3Lqdj3T3/Z9/zfT0yzlKT2E9Y/ah//mtQPcblFM69f+rrke8rd+y7nEJ35/GtjQUHncK7/hOh0ah6UU2MRawt7Yf+oUB4/nGaHcabjMeOHuruKhfNEwTbufdPsXeg1TYoxrPv+X7KPK9ljanD4+Z542pDkIx6G79gsabtJUkkSWt2qPzxAB1u2ePv3HRdFnsjXeipuzaYfxRRgk8VIjLXc5/1GBRFu8pjb6R/99UFx4oPI8WcRPZGevuE4XAzd6l/zVKUuZ4+66kbHimE7ilsDoad88zpcnk9Fhh9dbsQDBcDI+UeTGdOG17e1htAdfZvvtBoNBKbVXdCCA6bz9u6bqH9Tfn4w3c0Z+ZNRp+3tbpu1i7G88aPP/A/GJ+KxGbTmRdqIQzeZOzwuDWFVU96WxsaLJVDLhvVNWGlz9vKEd1/NDWfzIiLORbKsERa9kRIZ15M/Zh6lTp13V1t7uamqUSSNeTZ79jb7nFrWpOqD4h4IsW+Yt5kbPe4fV5tu0Bd46oHcf2Sl5bZN2q1ml/yJdV4WO3Y3/2rX5SVw+FNRjUza7O3IS8tWxss274lbefLSTSXKm5hfedSfz4YVj49b/BVFdCbSyk56WVrRqwhFBHZ921iXQyg0uv7N8cAwrDPgUr7ZF/2UbBR3dpgYTmnGx0mLuaqD5CXlmV55XV81Kw3gtpsuPI2WDrtrvx+d1UoA/BLmYwXzWauunzwRz0rT56RpjQfAMCvTBSzU4lkh0ebe8saC7Z73LsmO6kWO3qBCWBbTE4Xe78omOvp3N8NavuCnKQM3i4+eUb2Rg5xDABsL1ZNTZaXWTtuZiI6w3YyVDfM2d0wKwOwDta5moj+0EiOfVxOoswzRZLIXM9d6Kk7+Kr7EwAAXslEbGYoECYi3vQ7NV+E7S6t7IP9G4FQBmB9wbHid2PF+RSx8jD2fZznTc5/ylBjRT4AgNdKXMwGR6Ms94qIeJPR5RQ6PO5d1iqyFghlAAAAQMdQ1gIAAAB0DKEMAAAA6BhCGQAAANAxhDIAAACgYwhlAAAAQMcQygAAAICOIZQBAAAAHUMoAwAAADqGUAYAAAB0DKEMAAAA6BhCGQAAANAxhDIAAACgYwhlAAAAQMcQygAAAICOIZQBAAAAHUMoAwAAADqGUAYAAAB0DKEMAAAA6BhCGQAAANAxhDIAAACgYwhlAAAAQMcQygAAAICO/Q/7HLFHl/B2aAAAAABJRU5ErkJggg==;" vertex="1" parent="1">
          <mxGeometry x="179.13" y="740" width="230.91" height="500" as="geometry" />
        </mxCell>
        <mxCell id="WF5Qyl10SJ5ujiKutUuk-2" value="" style="rounded=1;whiteSpace=wrap;html=1;dashed=1;fontColor=#FF4912;strokeColor=#FF0000;fillColor=none;" vertex="1" parent="1">
          <mxGeometry x="190" y="860" width="210" height="40" as="geometry" />
        </mxCell>
      </root>
    </mxGraphModel>
  </diagram>
</mxfile>
